NotoSerif.glyphspackage
{
category = Punctuation;
glyphname = exclam;
layers = (
{
layerId = "E17BEC9D-CAAD-449F-91D9-03766E30097E";
shapes = (
{
closed = 1;
nodes = (
(232,238,l),
(298,714,l),
(81,714,l),
(147,238,l)
);
},
{
closed = 1;
nodes = (
(240,-9,o),
(284,14,o),
(284,83,cs),
(284,153,o),
(240,175,o),
(190,175,cs),
(138,175,o),
(97,153,o),
(97,83,cs),
(97,14,o),
(138,-9,o),
(190,-9,cs)
);
}
);
width = 379;
},
{
layerId = UUID0;
shapes = (
{
closed = 1;
nodes = (
(193,201,l),
(224,714,l),
(108,714,l),
(139,201,l)
);
},
{
closed = 1;
nodes = (
(200,-7,o),
(229,10,o),
(229,61,cs),
(229,113,o),
(200,129,o),
(166,129,cs),
(131,129,o),
(103,113,o),
(103,61,cs),
(103,10,o),
(131,-7,o),
(166,-7,cs)
);
}
);
width = 332;
},
{
layerId = "75A83886-EED5-4C31-9670-660514D8A4F6";
shapes = (
{
closed = 1;
nodes = (
(207,235,l),
(265,714,l),
(84,714,l),
(142,235,l)
);
},
{
closed = 1;
nodes = (
(219,-8,o),
(256,12,o),
(256,74,cs),
(256,136,o),
(219,156,o),
(176,156,cs),
(131,156,o),
(96,136,o),
(96,74,cs),
(96,12,o),
(131,-8,o),
(176,-8,cs)
);
}
);
width = 349;
},
{
layerId = "C91144B6-58F5-45F2-9CE4-7ED6CE127FD4";
shapes = (
{
closed = 1;
nodes = (
(122,167,l),
(124,714,l),
(96,714,l),
(98,167,l)
);
},
{
closed = 1;
nodes = (
(123,-5,o),
(137,5,o),
(137,34,cs),
(137,64,o),
(123,74,o),
(109,74,cs),
(92,74,o),
(79,64,o),
(79,34,cs),
(79,5,o),
(92,-5,o),
(109,-5,cs)
);
}
);
width = 216;
},
{
layerId = "1D4F67F9-897D-45AD-B7F0-CA61A6862C03";
shapes = (
{
closed = 1;
nodes = (
(148,167,l),
(149,714,l),
(120,714,l),
(123,167,l)
);
},
{
closed = 1;
nodes = (
(152,-5,o),
(165,4,o),
(165,35,cs),
(165,65,o),
(152,73,o),
(136,73,cs),
(121,73,o),
(107,65,o),
(107,35,cs),
(107,4,o),
(121,-5,o),
(136,-5,cs)
);
}
);
width = 272;
},
{
layerId = "A0CCC833-A561-4F2A-AF73-A35187C9FE5B";
shapes = (
{
closed = 1;
nodes = (
(160,208,l),
(188,714,l),
(85,714,l),
(113,208,l)
);
},
{
closed = 1;
nodes = (
(164,-7,o),
(188,8,o),
(188,55,cs),
(188,102,o),
(164,117,o),
(137,117,cs),
(108,117,o),
(86,102,o),
(86,55,cs),
(86,8,o),
(108,-7,o),
(137,-7,cs)
);
}
);
width = 274;
}
);
script = "";
subCategory = Other;
unicode = 33;
}
{
category = Punctuation;
glyphname = numbersign;
layers = (
{
layerId = "E17BEC9D-CAAD-449F-91D9-03766E30097E";
shapes = (
{
closed = 1;
nodes = (
(172,0,l),
(210,198,l),
(298,198,l),
(262,0,l),
(341,0,l),
(377,198,l),
(502,198,l),
(502,274,l),
(393,274,l),
(425,444,l),
(534,444,l),
(534,522,l),
(439,522,l),
(476,714,l),
(397,714,l),
(360,522,l),
(272,522,l),
(307,714,l),
(227,714,l),
(193,522,l),
(67,522,l),
(67,444,l),
(178,444,l),
(145,274,l),
(35,274,l),
(35,198,l),
(131,198,l),
(93,0,l)
);
},
{
closed = 1;
nodes = (
(258,444,l),
(347,444,l),
(314,274,l),
(224,274,l)
);
}
);
width = 569;
},
{
layerId = UUID0;
shapes = (
{
closed = 1;
nodes = (
(139,0,l),
(177,203,l),
(316,203,l),
(278,0,l),
(338,0,l),
(376,203,l),
(502,203,l),
(502,262,l),
(388,262,l),
(425,458,l),
(534,458,l),
(534,517,l),
(436,517,l),
(473,714,l),
(413,714,l),
(376,517,l),
(237,517,l),
(274,714,l),
(213,714,l),
(177,517,l),
(57,517,l),
(57,458,l),
(166,458,l),
(128,262,l),
(25,262,l),
(25,203,l),
(117,203,l),
(79,0,l)
);
},
{
closed = 1;
nodes = (
(226,458,l),
(365,458,l),
(328,262,l),
(189,262,l)
);
}
);
width = 559;
},
{
layerId = "75A83886-EED5-4C31-9670-660514D8A4F6";
shapes = (
{
closed = 1;
nodes = (
(131,0,l),
(169,198,l),
(237,198,l),
(201,0,l),
(280,0,l),
(316,198,l),
(421,198,l),
(421,274,l),
(332,274,l),
(364,444,l),
(453,444,l),
(453,522,l),
(378,522,l),
(415,714,l),
(336,714,l),
(299,522,l),
(231,522,l),
(266,714,l),
(186,714,l),
(152,522,l),
(46,522,l),
(46,444,l),
(137,444,l),
(104,274,l),
(14,274,l),
(14,198,l),
(90,198,l),
(52,0,l)
);
},
{
closed = 1;
nodes = (
(217,444,l),
(286,444,l),
(253,274,l),
(183,274,l)
);
}
);
width = 466;
},
{
layerId = "C91144B6-58F5-45F2-9CE4-7ED6CE127FD4";
shapes = (
{
closed = 1;
nodes = (
(68,0,l),
(109,219,l),
(255,219,l),
(214,0,l),
(242,0,l),
(283,219,l),
(389,219,l),
(389,244,l),
(288,244,l),
(331,476,l),
(421,476,l),
(421,501,l),
(336,501,l),
(376,714,l),
(348,714,l),
(308,501,l),
(162,501,l),
(202,714,l),
(174,714,l),
(134,501,l),
(33,501,l),
(33,476,l),
(129,476,l),
(86,244,l),
(1,244,l),
(1,219,l),
(81,219,l),
(40,0,l)
);
},
{
closed = 1;
nodes = (
(157,476,l),
(303,476,l),
(260,244,l),
(114,244,l)
);
}
);
width = 425;
},
{
layerId = "1D4F67F9-897D-45AD-B7F0-CA61A6862C03";
shapes = (
{
closed = 1;
nodes = (
(121,0,l),
(162,219,l),
(340,219,l),
(299,0,l),
(327,0,l),
(368,219,l),
(502,219,l),
(502,244,l),
(373,244,l),
(416,476,l),
(534,476,l),
(534,501,l),
(421,501,l),
(461,714,l),
(433,714,l),
(393,501,l),
(215,501,l),
(255,714,l),
(227,714,l),
(187,501,l),
(57,501,l),
(57,476,l),
(182,476,l),
(139,244,l),
(25,244,l),
(25,219,l),
(134,219,l),
(93,0,l)
);
},
{
closed = 1;
nodes = (
(210,476,l),
(388,476,l),
(345,244,l),
(167,244,l)
);
}
);
width = 559;
},
{
layerId = "A0CCC833-A561-4F2A-AF73-A35187C9FE5B";
shapes = (
{
closed = 1;
nodes = (
(99,0,l),
(138,208,l),
(242,208,l),
(203,0,l),
(258,0,l),
(297,208,l),
(403,208,l),
(403,259,l),
(307,259,l),
(345,460,l),
(435,460,l),
(435,513,l),
(355,513,l),
(393,714,l),
(337,714,l),
(300,513,l),
(196,513,l),
(234,714,l),
(178,714,l),
(141,513,l),
(39,513,l),
(39,460,l),
(130,460,l),
(93,259,l),
(7,259,l),
(7,208,l),
(83,208,l),
(44,0,l)
);
},
{
closed = 1;
nodes = (
(186,460,l),
(290,460,l),
(252,259,l),
(148,259,l)
);
}
);
width = 443;
}
);
script = "";
subCategory = Other;
unicode = 35;
}
{
category = Symbol;
glyphname = dollar;
layers = (
{
layerId = "E17BEC9D-CAAD-449F-91D9-03766E30097E";
shapes = (
{
closed = 1;
nodes = (
(263,-79,l),
(324,-79,l),
(324,44,l),
(451,60,o),
(529,142,o),
(529,245,cs),
(529,361,o),
(424,407,o),
(324,448,c),
(324,624,l),
(355,608,o),
(378,570,o),
(378,514,c),
(471,514,o),
(498,552,o),
(498,593,cs),
(498,639,o),
(440,679,o),
(324,684,c),
(324,760,l),
(263,760,l),
(263,684,l),
(151,671,o),
(67,605,o),
(67,505,cs),
(67,424,o),
(106,365,o),
(263,298,c),
(263,105,l),
(182,124,o),
(159,182,o),
(159,278,c),
(110,278,o),
(49,259,o),
(49,188,cs),
(49,141,o),
(90,49,o),
(263,42,c)
);
},
{
closed = 1;
nodes = (
(324,275,l),
(372,249,o),
(390,220,o),
(390,186,cs),
(390,150,o),
(367,118,o),
(324,106,c)
);
},
{
closed = 1;
nodes = (
(263,479,l),
(220,504,o),
(203,531,o),
(203,559,cs),
(203,599,o),
(234,622,o),
(263,626,c)
);
}
);
width = 569;
},
{
layerId = UUID0;
shapes = (
{
closed = 1;
nodes = (
(253,-79,l),
(303,-79,l),
(303,42,l),
(422,54,o),
(489,110,o),
(489,210,cs),
(489,305,o),
(423,352,o),
(303,405,c),
(303,638,l),
(374,631,o),
(390,565,o),
(390,507,c),
(438,507,o),
(469,529,o),
(469,572,cs),
(469,634,o),
(423,681,o),
(303,684,c),
(303,760,l),
(253,760,l),
(253,682,l),
(149,671,o),
(83,614,o),
(83,524,cs),
(83,436,o),
(128,387,o),
(253,331,c),
(253,84,l),
(166,84,o),
(141,160,o),
(128,243,c),
(82,243,o),
(56,216,o),
(56,176,cs),
(56,92,o),
(128,40,o),
(253,40,c)
);
},
{
closed = 1;
nodes = (
(303,309,l),
(372,278,o),
(397,248,o),
(397,195,cs),
(397,138,o),
(363,97,o),
(303,87,c)
);
},
{
closed = 1;
nodes = (
(253,427,l),
(201,450,o),
(173,476,o),
(173,532,cs),
(173,584,o),
(200,625,o),
(253,636,c)
);
}
);
width = 559;
},
{
layerId = "58AAA307-6DE9-4107-B80A-C255AE991657";
shapes = (
{
closed = 1;
nodes = (
(256,-79,l),
(312,-79,l),
(312,45,l),
(436,59,o),
(509,133,o),
(509,235,cs),
(509,367,o),
(392,390,o),
(312,430,c),
(312,625,l),
(356,606,o),
(373,551,o),
(373,511,c),
(447,511,o),
(483,542,o),
(483,584,cs),
(483,637,o),
(430,680,o),
(312,684,c),
(312,760,l),
(256,760,l),
(256,683,l),
(147,671,o),
(71,605,o),
(71,509,cs),
(71,421,o),
(110,372,o),
(256,312,c),
(256,96,l),
(188,107,o),
(143,163,o),
(143,263,c),
(95,263,o),
(49,241,o),
(49,183,cs),
(49,120,o),
(103,47,o),
(256,43,c)
);
},
{
closed = 1;
nodes = (
(312,287,l),
(364,260,o),
(390,232,o),
(390,190,cs),
(390,145,o),
(362,109,o),
(312,98,c)
);
},
{
closed = 1;
nodes = (
(256,457,l),
(202,487,o),
(188,515,o),
(188,551,cs),
(188,596,o),
(217,623,o),
(256,630,c)
);
}
);
width = 559;
},
{
layerId = "75A83886-EED5-4C31-9670-660514D8A4F6";
shapes = (
{
closed = 1;
nodes = (
(215,-79,l),
(266,-79,l),
(266,43,l),
(372,59,o),
(437,135,o),
(437,236,cs),
(437,344,o),
(349,393,o),
(266,437,c),
(266,629,l),
(291,616,o),
(311,572,o),
(311,514,c),
(388,514,o),
(411,549,o),
(411,589,cs),
(411,638,o),
(362,680,o),
(266,684,c),
(266,760,l),
(215,760,l),
(215,684,l),
(121,671,o),
(51,608,o),
(51,511,cs),
(51,428,o),
(84,371,o),
(215,308,c),
(215,99,l),
(147,116,o),
(128,173,o),
(128,268,c),
(87,268,o),
(36,247,o),
(36,185,cs),
(36,130,o),
(70,48,o),
(215,41,c)
);
},
{
closed = 1;
nodes = (
(266,286,l),
(305,258,o),
(320,227,o),
(320,187,cs),
(320,146,o),
(301,112,o),
(266,100,c)
);
},
{
closed = 1;
nodes = (
(215,466,l),
(179,492,o),
(165,520,o),
(165,556,cs),
(165,599,o),
(191,626,o),
(215,631,c)
);
}
);
width = 466;
},
{
layerId = "C91144B6-58F5-45F2-9CE4-7ED6CE127FD4";
shapes = (
{
closed = 1;
nodes = (
(198,-79,l),
(226,-79,l),
(226,43,l),
(304,51,o),
(358,99,o),
(358,191,cs),
(358,253,o),
(342,317,o),
(226,379,c),
(226,658,l),
(313,662,o),
(328,586,o),
(328,521,c),
(341,521,o),
(349,537,o),
(349,567,cs),
(349,632,o),
(311,684,o),
(226,683,c),
(226,760,l),
(198,760,l),
(198,681,l),
(131,672,o),
(80,624,o),
(80,539,cs),
(80,452,o),
(119,407,o),
(198,362,c),
(198,69,l),
(125,69,o),
(76,112,o),
(78,215,c),
(59,215,o),
(57,185,o),
(57,168,cs),
(57,104,o),
(101,48,o),
(198,43,c)
);
},
{
closed = 1;
nodes = (
(226,347,l),
(297,310,o),
(330,264,o),
(330,195,cs),
(330,124,o),
(296,76,o),
(226,67,c)
);
},
{
closed = 1;
nodes = (
(198,394,l),
(137,428,o),
(108,458,o),
(108,538,cs),
(108,599,o),
(137,646,o),
(198,656,c)
);
}
);
width = 425;
},
{
layerId = "1D4F67F9-897D-45AD-B7F0-CA61A6862C03";
shapes = (
{
closed = 1;
nodes = (
(266,-79,l),
(294,-79,l),
(294,40,l),
(393,40,o),
(468,95,o),
(468,192,cs),
(468,271,o),
(429,330,o),
(294,381,c),
(294,662,l),
(406,662,o),
(435,605,o),
(435,521,c),
(449,521,o),
(456,535,o),
(456,567,cs),
(456,623,o),
(410,687,o),
(294,687,c),
(294,760,l),
(266,760,l),
(266,687,l),
(173,680,o),
(114,626,o),
(114,542,cs),
(114,454,o),
(167,409,o),
(266,365,c),
(266,65,l),
(127,65,o),
(102,139,o),
(102,215,c),
(88,215,o),
(81,201,o),
(81,169,cs),
(81,124,o),
(115,40,o),
(266,40,c)
);
},
{
closed = 1;
nodes = (
(294,353,l),
(407,308,o),
(440,259,o),
(440,191,cs),
(440,120,o),
(387,67,o),
(294,65,c)
);
},
{
closed = 1;
nodes = (
(266,395,l),
(181,436,o),
(142,465,o),
(142,547,cs),
(142,607,o),
(186,655,o),
(266,662,c)
);
}
);
width = 559;
},
{
layerId = "A0CCC833-A561-4F2A-AF73-A35187C9FE5B";
shapes = (
{
closed = 1;
nodes = (
(203,-79,l),
(241,-79,l),
(241,42,l),
(331,55,o),
(390,115,o),
(390,210,cs),
(390,293,o),
(342,351,o),
(241,405,c),
(241,644,l),
(292,641,o),
(308,577,o),
(308,514,c),
(351,514,o),
(374,540,o),
(374,577,cs),
(374,634,o),
(331,683,o),
(241,684,c),
(241,760,l),
(203,760,l),
(203,683,l),
(124,672,o),
(65,617,o),
(65,527,cs),
(65,440,o),
(101,389,o),
(203,336,c),
(203,83,l),
(140,93,o),
(113,145,o),
(107,240,c),
(69,240,o),
(46,213,o),
(46,176,cs),
(46,96,o),
(102,46,o),
(203,40,c)
);
},
{
closed = 1;
nodes = (
(241,317,l),
(295,285,o),
(319,247,o),
(319,191,cs),
(319,134,o),
(291,93,o),
(241,84,c)
);
},
{
closed = 1;
nodes = (
(203,427,l),
(156,456,o),
(136,486,o),
(136,546,cs),
(136,598,o),
(162,636,o),
(203,644,c)
);
}
);
width = 442;
},
{
layerId = "BD18C76C-096B-4C52-83B4-518A374966BE";
shapes = (
{
closed = 1;
nodes = (
(210,-79,l),
(255,-79,l),
(255,42,l),
(354,57,o),
(417,126,o),
(417,225,cs),
(417,322,o),
(346,375,o),
(255,423,c),
(255,636,l),
(292,627,o),
(310,574,o),
(310,514,c),
(372,514,o),
(395,545,o),
(395,584,cs),
(395,636,o),
(348,681,o),
(255,684,c),
(255,760,l),
(210,760,l),
(210,683,l),
(122,671,o),
(57,612,o),
(57,518,cs),
(57,433,o),
(91,379,o),
(210,320,c),
(210,92,l),
(144,106,o),
(121,161,o),
(119,256,c),
(79,256,o),
(40,232,o),
(40,181,cs),
(40,115,o),
(84,47,o),
(210,40,c)
);
},
{
closed = 1;
nodes = (
(255,300,l),
(301,270,o),
(319,236,o),
(319,189,cs),
(319,141,o),
(297,104,o),
(255,93,c)
);
},
{
closed = 1;
nodes = (
(210,449,l),
(169,476,o),
(152,505,o),
(152,552,cs),
(152,599,o),
(178,630,o),
(210,637,c)
);
}
);
width = 456;
}
);
script = "";
subCategory = Currency;
unicode = 36;
}
{
category = Symbol;
glyphname = percent;
layers = (
{
layerId = "E17BEC9D-CAAD-449F-91D9-03766E30097E";
shapes = (
{
closed = 1;
nodes = (
(331,0,l),
(666,714,l),
(580,714,l),
(244,0,l)
);
},
{
closed = 1;
nodes = (
(347,280,o),
(410,369,o),
(410,503,c),
(410,637,o),
(347,724,o),
(219,724,cs),
(82,724,o),
(26,637,o),
(26,503,cs),
(26,369,o),
(82,280,o),
(218,280,cs)
);
},
{
closed = 1;
nodes = (
(173,337,o),
(156,398,o),
(156,503,c),
(156,606,o),
(173,666,o),
(219,666,cs),
(264,666,o),
(279,606,o),
(279,503,cs),
(279,398,o),
(264,337,o),
(218,337,cs)
);
},
{
closed = 1;
nodes = (
(825,-10,o),
(888,79,o),
(888,213,cs),
(888,347,o),
(825,434,o),
(697,434,cs),
(560,434,o),
(504,347,o),
(504,213,cs),
(504,79,o),
(560,-10,o),
(696,-10,cs)
);
},
{
closed = 1;
nodes = (
(651,47,o),
(634,108,o),
(634,213,cs),
(634,316,o),
(651,376,o),
(697,376,cs),
(742,376,o),
(757,316,o),
(757,213,cs),
(757,108,o),
(742,47,o),
(696,47,cs)
);
}
);
width = 913;
},
{
layerId = UUID0;
shapes = (
{
closed = 1;
nodes = (
(301,0,l),
(657,714,l),
(592,714,l),
(235,0,l)
);
},
{
closed = 1;
nodes = (
(319,280,o),
(373,369,o),
(373,503,c),
(373,637,o),
(319,724,o),
(210,724,cs),
(94,724,o),
(45,637,o),
(45,503,cs),
(45,369,o),
(94,280,o),
(209,280,cs)
);
},
{
closed = 1;
nodes = (
(155,321,o),
(135,388,o),
(135,503,c),
(135,616,o),
(155,682,o),
(210,682,cs),
(264,682,o),
(282,616,o),
(282,503,cs),
(282,388,o),
(264,321,o),
(209,321,cs)
);
},
{
closed = 1;
nodes = (
(797,-10,o),
(851,79,o),
(851,213,cs),
(851,347,o),
(797,434,o),
(688,434,cs),
(572,434,o),
(523,347,o),
(523,213,cs),
(523,79,o),
(572,-10,o),
(687,-10,cs)
);
},
{
closed = 1;
nodes = (
(633,31,o),
(613,98,o),
(613,213,cs),
(613,326,o),
(633,392,o),
(688,392,cs),
(742,392,o),
(760,326,o),
(760,213,cs),
(760,98,o),
(742,31,o),
(687,31,cs)
);
}
);
width = 896;
},
{
layerId = "75A83886-EED5-4C31-9670-660514D8A4F6";
shapes = (
{
closed = 1;
nodes = (
(276,0,l),
(555,714,l),
(483,714,l),
(204,0,l)
);
},
{
closed = 1;
nodes = (
(290,280,o),
(342,369,o),
(342,503,cs),
(342,637,o),
(290,724,o),
(182,724,cs),
(68,724,o),
(21,637,o),
(21,503,cs),
(21,369,o),
(68,280,o),
(181,280,cs)
);
},
{
closed = 1;
nodes = (
(144,332,o),
(130,394,o),
(130,503,cs),
(130,610,o),
(144,671,o),
(182,671,cs),
(220,671,o),
(232,610,o),
(232,503,cs),
(232,394,o),
(220,332,o),
(182,332,cs)
);
},
{
closed = 1;
nodes = (
(688,-10,o),
(740,79,o),
(740,213,cs),
(740,347,o),
(688,434,o),
(581,434,cs),
(467,434,o),
(420,347,o),
(420,213,cs),
(420,79,o),
(467,-10,o),
(580,-10,cs)
);
},
{
closed = 1;
nodes = (
(543,42,o),
(529,104,o),
(529,213,cs),
(529,320,o),
(543,381,o),
(581,381,cs),
(618,381,o),
(631,320,o),
(631,213,cs),
(631,104,o),
(618,42,o),
(580,42,cs)
);
}
);
width = 761;
},
{
layerId = "C91144B6-58F5-45F2-9CE4-7ED6CE127FD4";
shapes = (
{
closed = 1;
nodes = (
(204,0,l),
(494,714,l),
(464,714,l),
(174,0,l)
);
},
{
closed = 1;
nodes = (
(233,280,o),
(269,359,o),
(269,503,cs),
(269,649,o),
(234,724,o),
(156,724,cs),
(78,724,o),
(43,647,o),
(43,503,cs),
(43,354,o),
(79,280,o),
(155,280,cs)
);
},
{
closed = 1;
nodes = (
(91,305,o),
(71,376,o),
(71,503,cs),
(71,629,o),
(91,699,o),
(155,699,cs),
(222,699,o),
(241,629,o),
(241,503,cs),
(241,376,o),
(222,305,o),
(155,305,cs)
);
},
{
closed = 1;
nodes = (
(594,-10,o),
(630,69,o),
(630,213,cs),
(630,359,o),
(595,434,o),
(517,434,cs),
(439,434,o),
(404,357,o),
(404,213,cs),
(404,64,o),
(440,-10,o),
(516,-10,cs)
);
},
{
closed = 1;
nodes = (
(452,15,o),
(432,86,o),
(432,213,cs),
(432,339,o),
(452,409,o),
(516,409,cs),
(583,409,o),
(602,339,o),
(602,213,cs),
(602,86,o),
(583,15,o),
(516,15,cs)
);
}
);
width = 672;
},
{
layerId = "1D4F67F9-897D-45AD-B7F0-CA61A6862C03";
shapes = (
{
closed = 1;
nodes = (
(261,0,l),
(651,714,l),
(619,714,l),
(229,0,l)
);
},
{
closed = 1;
nodes = (
(308,280,o),
(347,371,o),
(347,503,cs),
(347,639,o),
(301,724,o),
(204,724,cs),
(102,724,o),
(59,637,o),
(59,503,cs),
(59,365,o),
(101,280,o),
(203,280,cs)
);
},
{
closed = 1;
nodes = (
(122,305,o),
(87,376,o),
(87,503,cs),
(87,612,o),
(117,699,o),
(202,699,cs),
(282,699,o),
(319,632,o),
(319,503,cs),
(319,389,o),
(289,305,o),
(201,305,cs)
);
},
{
closed = 1;
nodes = (
(786,-10,o),
(825,81,o),
(825,213,cs),
(825,349,o),
(779,434,o),
(682,434,cs),
(580,434,o),
(537,347,o),
(537,213,cs),
(537,75,o),
(579,-10,o),
(681,-10,cs)
);
},
{
closed = 1;
nodes = (
(600,15,o),
(565,86,o),
(565,213,cs),
(565,322,o),
(595,409,o),
(680,409,cs),
(760,409,o),
(797,342,o),
(797,213,cs),
(797,99,o),
(767,15,o),
(679,15,cs)
);
}
);
width = 884;
},
{
layerId = "A0CCC833-A561-4F2A-AF73-A35187C9FE5B";
shapes = (
{
closed = 1;
nodes = (
(242,0,l),
(521,714,l),
(467,714,l),
(187,0,l)
);
},
{
closed = 1;
nodes = (
(256,280,o),
(300,369,o),
(300,503,cs),
(300,637,o),
(256,724,o),
(167,724,cs),
(72,724,o),
(33,637,o),
(33,503,cs),
(33,369,o),
(72,280,o),
(166,280,cs)
);
},
{
closed = 1;
nodes = (
(118,316,o),
(102,383,o),
(102,503,cs),
(102,621,o),
(118,687,o),
(167,687,cs),
(215,687,o),
(230,621,o),
(230,503,cs),
(230,383,o),
(215,316,o),
(166,316,cs)
);
},
{
closed = 1;
nodes = (
(634,-10,o),
(678,79,o),
(678,213,cs),
(678,347,o),
(634,434,o),
(545,434,cs),
(451,434,o),
(411,347,o),
(411,213,cs),
(411,79,o),
(451,-10,o),
(544,-10,cs)
);
},
{
closed = 1;
nodes = (
(496,26,o),
(480,93,o),
(480,213,cs),
(480,331,o),
(496,397,o),
(544,397,cs),
(593,397,o),
(608,331,o),
(608,213,cs),
(608,93,o),
(593,26,o),
(544,26,cs)
);
}
);
width = 711;
}
);
script = "";
subCategory = Math;
unicode = 37;
}
{
category = Symbol;
glyphname = ampersand;
layers = (
{
layerId = "E17BEC9D-CAAD-449F-91D9-03766E30097E";
shapes = (
{
closed = 1;
nodes = (
(413,-10,o),
(490,27,o),
(533,70,c),
(602,0,l),
(828,0,l),
(828,61,l),
(819,61,ls),
(797,61,o),
(764,66,o),
(739,92,cs),
(635,201,l),
(653,239,o),
(667,275,o),
(676,308,cs),
(693,369,o),
(737,369,o),
(782,369,cs),
(803,369,l),
(803,430,l),
(566,430,l),
(566,382,ls),
(566,342,o),
(562,299,o),
(557,277,c),
(431,411,l),
(521,456,o),
(570,505,o),
(570,582,cs),
(570,659,o),
(508,724,o),
(369,724,cs),
(231,724,o),
(159,666,o),
(159,561,cs),
(159,503,o),
(178,459,o),
(234,396,c),
(146,364,o),
(47,320,o),
(47,200,cs),
(47,60,o),
(148,-10,o),
(315,-10,cs)
);
},
{
closed = 1;
nodes = (
(285,69,o),
(238,120,o),
(238,205,cs),
(238,260,o),
(244,309,o),
(282,342,c),
(483,127,l),
(457,97,o),
(412,69,o),
(359,69,cs)
);
},
{
closed = 1;
nodes = (
(347,502,o),
(321,538,o),
(321,580,cs),
(321,631,o),
(341,656,o),
(380,656,cs),
(414,656,o),
(437,629,o),
(437,581,cs),
(437,527,o),
(422,492,o),
(383,462,c)
);
}
);
width = 844;
},
{
layerId = UUID0;
shapes = (
{
closed = 1;
nodes = (
(376,-10,o),
(442,33,o),
(490,88,c),
(573,0,l),
(733,0,l),
(733,42,l),
(724,42,ls),
(670,42,o),
(650,47,o),
(631,67,cs),
(538,166,l),
(561,216,o),
(575,268,o),
(587,311,cs),
(604,372,o),
(647,379,o),
(692,379,cs),
(701,379,l),
(701,421,l),
(521,421,l),
(521,382,ls),
(521,333,o),
(516,268,o),
(498,208,c),
(316,401,l),
(438,453,o),
(485,496,o),
(485,582,cs),
(485,659,o),
(436,724,o),
(308,724,cs),
(175,724,o),
(119,665,o),
(119,577,cs),
(119,512,o),
(145,465,o),
(196,405,c),
(99,364,o),
(36,313,o),
(36,200,cs),
(36,74,o),
(114,-10,o),
(274,-10,cs)
);
},
{
closed = 1;
nodes = (
(194,46,o),
(134,99,o),
(134,197,cs),
(134,283,o),
(172,330,o),
(233,364,c),
(454,127,l),
(416,80,o),
(362,46,o),
(283,46,c)
);
},
{
closed = 1;
nodes = (
(232,495,o),
(212,529,o),
(212,580,cs),
(212,637,o),
(245,675,o),
(304,675,cs),
(372,675,o),
(397,634,o),
(397,581,cs),
(397,511,o),
(361,473,o),
(282,439,c)
);
}
);
width = 742;
},
{
layerId = "58AAA307-6DE9-4107-B80A-C255AE991657";
shapes = (
{
closed = 1;
nodes = (
(401,-10,o),
(471,24,o),
(521,73,c),
(590,0,l),
(788,0,l),
(788,53,l),
(779,53,ls),
(743,53,o),
(716,58,o),
(697,78,cs),
(597,182,l),
(617,225,o),
(631,268,o),
(641,305,cs),
(658,366,o),
(699,373,o),
(744,373,cs),
(760,373,l),
(760,426,l),
(541,426,l),
(541,382,ls),
(541,344,o),
(539,297,o),
(531,251,c),
(382,407,l),
(486,455,o),
(534,501,o),
(534,582,cs),
(534,659,o),
(471,724,o),
(343,724,cs),
(210,724,o),
(142,665,o),
(142,577,cs),
(142,510,o),
(165,463,o),
(218,400,c),
(126,364,o),
(47,320,o),
(47,203,cs),
(47,69,o),
(137,-10,o),
(301,-10,cs)
);
},
{
closed = 1;
nodes = (
(246,57,o),
(194,119,o),
(194,198,cs),
(194,259,o),
(207,309,o),
(263,349,c),
(477,121,l),
(445,82,o),
(397,57,o),
(326,57,cs)
);
},
{
closed = 1;
nodes = (
(298,499,o),
(278,534,o),
(278,580,cs),
(278,628,o),
(298,664,o),
(343,664,cs),
(399,664,o),
(413,628,o),
(413,581,cs),
(413,520,o),
(396,484,o),
(340,452,c)
);
}
);
width = 801;
},
{
layerId = "75A83886-EED5-4C31-9670-660514D8A4F6";
shapes = (
{
closed = 1;
nodes = (
(344,-10,o),
(409,29,o),
(445,75,c),
(502,0,l),
(691,0,l),
(691,56,l),
(683,56,ls),
(665,56,o),
(637,61,o),
(617,86,cs),
(530,192,l),
(545,233,o),
(556,273,o),
(564,310,cs),
(577,371,o),
(615,372,o),
(652,372,cs),
(670,372,l),
(670,428,l),
(472,428,l),
(472,382,ls),
(472,339,o),
(469,290,o),
(465,259,c),
(360,408,l),
(435,453,o),
(476,503,o),
(476,582,cs),
(476,658,o),
(424,724,o),
(308,724,cs),
(193,724,o),
(133,664,o),
(133,564,cs),
(133,503,o),
(149,459,o),
(196,398,c),
(122,364,o),
(39,318,o),
(39,199,cs),
(39,63,o),
(124,-10,o),
(263,-10,cs)
);
},
{
closed = 1;
nodes = (
(238,63,o),
(199,114,o),
(199,204,cs),
(199,268,o),
(204,317,o),
(235,349,c),
(403,127,l),
(381,93,o),
(344,63,o),
(300,63,cs)
);
},
{
closed = 1;
nodes = (
(290,499,o),
(268,536,o),
(268,580,cs),
(268,633,o),
(285,662,o),
(317,662,cs),
(346,662,o),
(365,631,o),
(365,581,cs),
(365,523,o),
(352,486,o),
(320,455,c)
);
}
);
width = 704;
},
{
layerId = "C91144B6-58F5-45F2-9CE4-7ED6CE127FD4";
shapes = (
{
closed = 1;
nodes = (
(269,-10,o),
(317,44,o),
(352,107,c),
(431,0,l),
(515,0,l),
(515,20,l),
(507,20,ls),
(462,20,o),
(448,25,o),
(435,43,cs),
(364,137,l),
(390,206,o),
(401,270,o),
(404,336,cs),
(407,393,o),
(421,395,o),
(478,395,cs),
(488,395,l),
(488,415,l),
(379,415,l),
(379,354,ls),
(379,291,o),
(370,220,o),
(349,161,c),
(189,389,l),
(290,435,o),
(331,489,o),
(331,582,cs),
(331,657,o),
(287,724,o),
(207,724,cs),
(120,724,o),
(76,657,o),
(76,578,cs),
(76,499,o),
(105,454,o),
(147,399,c),
(65,359,o),
(21,301,o),
(21,196,cs),
(21,80,o),
(78,-10,o),
(182,-10,cs)
);
},
{
closed = 1;
nodes = (
(106,15,o),
(49,70,o),
(49,198,cs),
(49,309,o),
(105,354,o),
(162,380,c),
(337,131,l),
(303,61,o),
(254,15,o),
(182,15,cs)
);
},
{
closed = 1;
nodes = (
(121,477,o),
(104,520,o),
(104,579,cs),
(104,650,o),
(139,699,o),
(206,699,cs),
(273,699,o),
(303,644,o),
(303,581,cs),
(303,497,o),
(265,447,o),
(175,409,c)
);
}
);
width = 519;
},
{
layerId = "1D4F67F9-897D-45AD-B7F0-CA61A6862C03";
shapes = (
{
closed = 1;
nodes = (
(344,-10,o),
(406,48,o),
(450,112,c),
(554,0,l),
(663,0,l),
(663,20,l),
(648,20,ls),
(592,20,o),
(570,24,o),
(551,45,cs),
(465,138,l),
(496,195,o),
(512,273,o),
(519,335,cs),
(525,392,o),
(531,395,o),
(596,395,cs),
(627,395,l),
(627,415,l),
(495,415,l),
(495,382,ls),
(495,317,o),
(482,227,o),
(447,156,c),
(230,391,l),
(366,429,o),
(423,490,o),
(423,582,cs),
(423,655,o),
(376,724,o),
(264,724,cs),
(139,724,o),
(95,649,o),
(95,580,cs),
(95,495,o),
(134,454,o),
(175,405,c),
(79,366,o),
(22,303,o),
(22,194,cs),
(22,78,o),
(102,-10,o),
(229,-10,cs)
);
},
{
closed = 1;
nodes = (
(124,15,o),
(50,86,o),
(50,201,cs),
(50,319,o),
(129,364,o),
(197,386,c),
(434,130,l),
(394,66,o),
(329,15,o),
(229,15,cs)
);
},
{
closed = 1;
nodes = (
(153,469,o),
(123,507,o),
(123,580,cs),
(123,651,o),
(172,699,o),
(266,699,cs),
(351,699,o),
(395,644,o),
(395,581,cs),
(395,499,o),
(340,443,o),
(208,411,c)
);
}
);
width = 668;
},
{
layerId = "A0CCC833-A561-4F2A-AF73-A35187C9FE5B";
shapes = (
{
closed = 1;
nodes = (
(301,-10,o),
(356,36,o),
(391,91,c),
(456,0,l),
(592,0,l),
(592,41,l),
(584,41,ls),
(550,41,o),
(530,46,o),
(514,67,cs),
(437,164,l),
(456,214,o),
(468,269,o),
(477,317,cs),
(489,378,o),
(523,380,o),
(558,380,cs),
(567,380,l),
(567,421,l),
(419,421,l),
(419,382,ls),
(419,330,o),
(414,264,o),
(399,206,c),
(265,399,l),
(354,444,o),
(394,496,o),
(394,582,cs),
(394,654,o),
(354,724,o),
(251,724,cs),
(147,724,o),
(101,659,o),
(101,572,cs),
(101,502,o),
(121,459,o),
(162,403,c),
(88,365,o),
(29,311,o),
(29,198,cs),
(29,73,o),
(98,-10,o),
(217,-10,cs)
);
},
{
closed = 1;
nodes = (
(165,45,o),
(117,96,o),
(117,200,cs),
(117,292,o),
(148,339,o),
(190,368,c),
(363,127,l),
(335,80,o),
(291,45,o),
(234,45,cs)
);
},
{
closed = 1;
nodes = (
(196,490,o),
(179,529,o),
(179,580,cs),
(179,640,o),
(205,679,o),
(254,679,cs),
(302,679,o),
(326,636,o),
(326,581,cs),
(326,510,o),
(299,467,o),
(236,433,c)
);
}
);
width = 600;
},
{
layerId = "BD18C76C-096B-4C52-83B4-518A374966BE";
shapes = (
{
closed = 1;
nodes = (
(325,-10,o),
(386,32,o),
(422,82,c),
(482.01,0,l),
(648,0,l),
(648,49,l),
(640,49,ls),
(615,49,o),
(591,54,o),
(572,78,cs),
(490,180,l),
(506,225,o),
(518,271,o),
(526,313,cs),
(539,374,o),
(575,375,o),
(611,375,cs),
(625,375,l),
(625,425,l),
(449,425,l),
(449,382,ls),
(449,335,o),
(445,279,o),
(436,236,c),
(319,404,l),
(400,449,o),
(440,500,o),
(440,582,cs),
(440,656,o),
(394,724,o),
(283,724,cs),
(173.01,724,o),
(119,662,o),
(119,567,cs),
(119,503,o),
(137,459,o),
(181,400,c),
(107,364,o),
(35,315,o),
(35,198,cs),
(35,67,o),
(113,-10,o),
(243.01,-10,cs)
);
},
{
closed = 1;
nodes = (
(206,55,o),
(163,106,o),
(163,202,cs),
(163,278,o),
(180,327,o),
(215,357,c),
(386,127,l),
(361,87,o),
(321,55,o),
(271,55,cs)
);
},
{
closed = 1;
nodes = (
(249,495,o),
(229,533,o),
(229,580,cs),
(229,636,o),
(250,669,o),
(290,669,cs),
(327,669,o),
(348,633,o),
(348,581,cs),
(348,517,o),
(329,478,o),
(284,445,c)
);
}
);
width = 659;
}
);
script = "";
subCategory = Other;
unicode = 38;
}
{
category = Punctuation;
glyphname = quotesingle;
kernLeft = quotesingle;
kernRight = quotesingle;
layers = (
{
layerId = "E17BEC9D-CAAD-449F-91D9-03766E30097E";
shapes = (
{
closed = 1;
nodes = (
(211,410,l),
(267,714,l),
(74,714,l),
(130,410,l)
);
}
);
width = 341;
},
{
layerId = UUID0;
shapes = (
{
closed = 1;
nodes = (
(133,479,l),
(163,714,l),
(57,714,l),
(87,479,l)
);
}
);
width = 220;
},
{
layerId = "75A83886-EED5-4C31-9670-660514D8A4F6";
shapes = (
{
closed = 1;
nodes = (
(176,429,l),
(223,714,l),
(62,714,l),
(109,429,l)
);
}
);
width = 285;
},
{
layerId = "C91144B6-58F5-45F2-9CE4-7ED6CE127FD4";
shapes = (
{
closed = 1;
nodes = (
(67,525,l),
(79,714,l),
(36,714,l),
(48,525,l)
);
}
);
width = 115;
},
{
layerId = "1D4F67F9-897D-45AD-B7F0-CA61A6862C03";
shapes = (
{
closed = 1;
nodes = (
(79,499,l),
(87,714,l),
(47,714,l),
(57,499,l)
);
}
);
width = 134;
},
{
layerId = "A0CCC833-A561-4F2A-AF73-A35187C9FE5B";
shapes = (
{
closed = 1;
nodes = (
(115,483,l),
(142,714,l),
(48,714,l),
(75,483,l)
);
}
);
width = 190;
}
);
script = "";
subCategory = Other;
unicode = 39;
}
{
category = Punctuation;
glyphname = parenleft;
kernRight = parenleft;
layers = (
{
layerId = "E17BEC9D-CAAD-449F-91D9-03766E30097E";
shapes = (
{
closed = 1;
nodes = (
(408,-70,l),
(293,11,o),
(260,160,o),
(260,319,cs),
(260,476,o),
(293,623,o),
(408,705,c),
(408,781,l),
(156,680,o),
(57,515,o),
(57,319,cs),
(57,121,o),
(156,-46,o),
(408,-147,c)
);
}
);
width = 440;
},
{
layerId = UUID0;
shapes = (
{
closed = 1;
nodes = (
(314,-82,l),
(177,1,o),
(161,158,o),
(161,317,cs),
(161,476,o),
(177,632,o),
(314,715,c),
(314,760,l),
(130,687,o),
(57,557,o),
(57,317,cs),
(57,76,o),
(130,-55,o),
(314,-128,c)
);
}
);
width = 346;
},
{
layerId = "75A83886-EED5-4C31-9670-660514D8A4F6";
shapes = (
{
closed = 1;
nodes = (
(341,-73,l),
(245,8,o),
(217,159,o),
(217,318,cs),
(217,476,o),
(245,625,o),
(341,708,c),
(341,775,l),
(130,682,o),
(47,526,o),
(47,318,cs),
(47,109,o),
(130,-48,o),
(341,-142,c)
);
}
);
width = 367;
},
{
layerId = "C91144B6-58F5-45F2-9CE4-7ED6CE127FD4";
shapes = (
{
closed = 1;
nodes = (
(197,-87,l),
(128,-53,o),
(71,96,o),
(71,315,cs),
(71,534,o),
(128,683,o),
(197,717,c),
(197,745,l),
(107,702,o),
(43,565,o),
(43,315,cs),
(43,62,o),
(107,-72,o),
(197,-115,c)
);
}
);
width = 221;
},
{
layerId = "1D4F67F9-897D-45AD-B7F0-CA61A6862C03";
shapes = (
{
closed = 1;
nodes = (
(246,-90,l),
(96,-21,o),
(85,156,o),
(85,315,cs),
(85,474,o),
(93,659,o),
(246,719,c),
(246,744,l),
(112,693,o),
(57,587,o),
(57,315,cs),
(57,44,o),
(112,-61,o),
(246,-114,c)
);
}
);
width = 278;
},
{
layerId = "A0CCC833-A561-4F2A-AF73-A35187C9FE5B";
shapes = (
{
closed = 1;
nodes = (
(260,-83,l),
(154,0,o),
(140,158,o),
(140,317,cs),
(140,476,o),
(154,632,o),
(260,716,c),
(260,758,l),
(106,688,o),
(45,560,o),
(45,317,cs),
(45,73,o),
(106,-55,o),
(260,-127,c)
);
}
);
width = 284;
}
);
script = "";
subCategory = Parenthesis;
unicode = 40;
}
{
category = Punctuation;
glyphname = parenright;
kernLeft = parenright;
layers = (
{
layerId = "E17BEC9D-CAAD-449F-91D9-03766E30097E";
shapes = (
{
closed = 1;
nodes = (
(32,-147,l),
(284,-46,o),
(383,121,o),
(383,319,cs),
(383,515,o),
(284,680,o),
(32,781,c),
(32,705,l),
(146,623,o),
(180,476,o),
(180,319,cs),
(180,160,o),
(146,11,o),
(32,-70,c)
);
}
);
width = 440;
},
{
layerId = UUID0;
shapes = (
{
closed = 1;
nodes = (
(32,-128,l),
(216,-55,o),
(289,76,o),
(289,317,cs),
(289,557,o),
(216,687,o),
(32,760,c),
(32,715,l),
(169,632,o),
(185,476,o),
(185,317,cs),
(185,158,o),
(169,1,o),
(32,-82,c)
);
}
);
width = 346;
},
{
layerId = "58AAA307-6DE9-4107-B80A-C255AE991657";
shapes = (
{
closed = 1;
nodes = (
(32,-139,l),
(255,-50,o),
(343,102,o),
(343,318,cs),
(343,533,o),
(255,683,o),
(32,772,c),
(32,709,l),
(156,627,o),
(182,476,o),
(182,318,c),
(182,159,o),
(156,7,o),
(32,-75,c)
);
}
);
width = 400;
},
{
layerId = "75A83886-EED5-4C31-9670-660514D8A4F6";
shapes = (
{
closed = 1;
nodes = (
(26,-142,l),
(237,-48,o),
(320,109,o),
(320,318,cs),
(320,526,o),
(237,682,o),
(26,775,c),
(26,708,l),
(121,625,o),
(150,476,o),
(150,318,cs),
(150,159,o),
(121,8,o),
(26,-73,c)
);
}
);
width = 367;
},
{
layerId = "C91144B6-58F5-45F2-9CE4-7ED6CE127FD4";
shapes = (
{
closed = 1;
nodes = (
(23,-115,l),
(113,-72,o),
(177,62,o),
(177,315,cs),
(177,565,o),
(113,702,o),
(23,745,c),
(23,717,l),
(92,683,o),
(149,534,o),
(149,315,cs),
(149,96,o),
(92,-53,o),
(23,-87,c)
);
}
);
width = 221;
},
{
layerId = "1D4F67F9-897D-45AD-B7F0-CA61A6862C03";
shapes = (
{
closed = 1;
nodes = (
(57,-114,l),
(191,-61,o),
(246,44,o),
(246,315,cs),
(246,587,o),
(191,693,o),
(57,744,c),
(57,719,l),
(210,659,o),
(218,474,o),
(218,315,cs),
(218,156,o),
(207,-21,o),
(57,-90,c)
);
}
);
width = 278;
},
{
layerId = "A0CCC833-A561-4F2A-AF73-A35187C9FE5B";
shapes = (
{
closed = 1;
nodes = (
(25,-127,l),
(179,-55,o),
(240,73,o),
(240,317,cs),
(240,560,o),
(179,688,o),
(25,758,c),
(25,716,l),
(131,632,o),
(146,476,o),
(146,317,cs),
(146,158,o),
(131,0,o),
(25,-83,c)
);
}
);
width = 284;
},
{
layerId = "BD18C76C-096B-4C52-83B4-518A374966BE";
shapes = (
{
closed = 1;
nodes = (
(25,-135,l),
(212,-51,o),
(285,93,o),
(285,317,cs),
(285,541,o),
(212,685,o),
(25,768,c),
(25,711,l),
(125,628,o),
(148,476,o),
(148,317,cs),
(148,158,o),
(125,5,o),
(25,-77,c)
);
}
);
width = 331;
}
);
script = "";
subCategory = Parenthesis;
unicode = 41;
}
{
category = Punctuation;
glyphname = asterisk;
kernLeft = quoteright;
kernRight = P;
layers = (
{
layerId = "E17BEC9D-CAAD-449F-91D9-03766E30097E";
shapes = (
{
closed = 1;
nodes = (
(319,350,l),
(279,515,l),
(425,403,l),
(478,518,l),
(321,559,l),
(478,593,l),
(425,709,l),
(279,598,l),
(321,761,l),
(191,761,l),
(229,595,l),
(83,711,l),
(31,594,l),
(190,559,l),
(31,517,l),
(83,402,l),
(228,517,l),
(191,350,l)
);
}
);
width = 503;
},
{
layerId = UUID0;
shapes = (
{
closed = 1;
nodes = (
(291,378,l),
(263,536,l),
(418,443,l),
(453,520,l),
(284,569,l),
(453,618,l),
(418,696,l),
(263,602,l),
(291,760,l),
(204,760,l),
(230,601,l),
(76,698,l),
(41,619,l),
(209,569,l),
(41,519,l),
(76,441,l),
(229,536,l),
(204,378,l)
);
}
);
width = 500;
},
{
layerId = "75A83886-EED5-4C31-9670-660514D8A4F6";
shapes = (
{
closed = 1;
nodes = (
(266,363,l),
(232,526,l),
(354,420,l),
(398,524,l),
(276,561,l),
(398,599,l),
(354,703,l),
(232,596,l),
(267,760,l),
(159,760,l),
(191,594,l),
(69,705,l),
(26,600,l),
(148,561,l),
(26,523,l),
(69,418,l),
(190,528,l),
(159,363,l)
);
}
);
width = 419;
},
{
layerId = "C91144B6-58F5-45F2-9CE4-7ED6CE127FD4";
shapes = (
{
closed = 1;
nodes = (
(191,382,l),
(178,550,l),
(287,464,l),
(303,509,l),
(180,571,l),
(303,633,l),
(287,678,l),
(178,592,l),
(191,760,l),
(149,760,l),
(161,593,l),
(52,680,l),
(35,634,l),
(158,571,l),
(35,508,l),
(52,462,l),
(161,549,l),
(149,382,l)
);
}
);
width = 343;
},
{
layerId = "1D4F67F9-897D-45AD-B7F0-CA61A6862C03";
shapes = (
{
closed = 1;
nodes = (
(231,378,l),
(217,554,l),
(352,469,l),
(369,506,l),
(219,569,l),
(369,632,l),
(352,672,l),
(217,584,l),
(229,760,l),
(186,760,l),
(200,585,l),
(66,674,l),
(47,633,l),
(197,569,l),
(47,505,l),
(66,467,l),
(199,554,l),
(186,378,l)
);
}
);
width = 420;
},
{
layerId = "A0CCC833-A561-4F2A-AF73-A35187C9FE5B";
shapes = (
{
closed = 1;
nodes = (
(224,374,l),
(201,541,l),
(316,445,l),
(345,516,l),
(222,567,l),
(345,618,l),
(316,689,l),
(201,594,l),
(224,760,l),
(153,760,l),
(174,593,l),
(60,691,l),
(31,619,l),
(154,567,l),
(31,515,l),
(60,443,l),
(174,541,l),
(153,374,l)
);
}
);
width = 376;
}
);
script = "";
subCategory = Other;
unicode = 42;
}
{
category = Symbol;
glyphname = plus;
layers = (
{
layerId = "E17BEC9D-CAAD-449F-91D9-03766E30097E";
shapes = (
{
closed = 1;
nodes = (
(324,135,l),
(324,318,l),
(509,318,l),
(509,397,l),
(324,397,l),
(324,580,l),
(244,580,l),
(244,397,l),
(60,397,l),
(60,318,l),
(244,318,l),
(244,135,l)
);
}
);
width = 569;
},
{
layerId = UUID0;
shapes = (
{
closed = 1;
nodes = (
(309,143,l),
(309,328,l),
(494,328,l),
(494,387,l),
(309,387,l),
(309,572,l),
(249,572,l),
(249,387,l),
(65,387,l),
(65,328,l),
(249,328,l),
(249,143,l)
);
}
);
width = 559;
},
{
layerId = "58AAA307-6DE9-4107-B80A-C255AE991657";
shapes = (
{
closed = 1;
nodes = (
(315,143,l),
(315,322,l),
(494,322,l),
(494,393,l),
(315,393,l),
(315,572,l),
(243,572,l),
(243,393,l),
(65,393,l),
(65,322,l),
(243,322,l),
(243,143,l)
);
}
);
width = 559;
},
{
layerId = "75A83886-EED5-4C31-9670-660514D8A4F6";
shapes = (
{
closed = 1;
nodes = (
(251,143,l),
(251,321,l),
(391,321,l),
(391,394,l),
(251,394,l),
(251,572,l),
(174,572,l),
(174,394,l),
(34,394,l),
(34,321,l),
(174,321,l),
(174,143,l)
);
}
);
width = 425;
},
{
layerId = "C91144B6-58F5-45F2-9CE4-7ED6CE127FD4";
shapes = (
{
closed = 1;
nodes = (
(228,143,l),
(228,344,l),
(375,344,l),
(375,372,l),
(228,372,l),
(228,572,l),
(198,572,l),
(198,372,l),
(50,372,l),
(50,344,l),
(198,344,l),
(198,143,l)
);
}
);
width = 425;
},
{
layerId = "1D4F67F9-897D-45AD-B7F0-CA61A6862C03";
shapes = (
{
closed = 1;
nodes = (
(293,143,l),
(293,343,l),
(494,343,l),
(494,371,l),
(293,371,l),
(293,572,l),
(265,572,l),
(265,371,l),
(65,371,l),
(65,343,l),
(265,343,l),
(265,143,l)
);
}
);
width = 559;
},
{
layerId = "A0CCC833-A561-4F2A-AF73-A35187C9FE5B";
shapes = (
{
closed = 1;
nodes = (
(241,143,l),
(241,329,l),
(382,329,l),
(382,386,l),
(241,386,l),
(241,572,l),
(182,572,l),
(182,386,l),
(43,386,l),
(43,329,l),
(182,329,l),
(182,143,l)
);
}
);
width = 425;
},
{
layerId = "BD18C76C-096B-4C52-83B4-518A374966BE";
shapes = (
{
closed = 1;
nodes = (
(247,143,l),
(247,324,l),
(387,324,l),
(387,391,l),
(247,391,l),
(247,572,l),
(177,572,l),
(177,391,l),
(38,391,l),
(38,324,l),
(177,324,l),
(177,143,l)
);
}
);
width = 425;
}
);
script = "";
subCategory = Math;
unicode = 43;
}
{
category = Punctuation;
glyphname = comma;
kernLeft = period;
kernRight = comma;
layers = (
{
layerId = "E17BEC9D-CAAD-449F-91D9-03766E30097E";
shapes = (
{
closed = 1;
nodes = (
(56,-154,l),
(194,-119,o),
(246,-43,o),
(246,42,cs),
(246,119,o),
(216,169,o),
(149,169,cs),
(105,169,o),
(66,143,o),
(66,93,cs),
(66,-1,o),
(139,11,o),
(139,-25,cs),
(139,-61,o),
(109,-74,o),
(56,-95,c)
);
}
);
width = 326;
},
{
layerId = UUID0;
shapes = (
{
closed = 1;
nodes = (
(30,-154,l),
(149,-119,o),
(194,-43,o),
(194,42,cs),
(194,98,o),
(158,129,o),
(117,129,cs),
(80,129,o),
(52,108,o),
(52,70,cs),
(52,9,o),
(125,18,o),
(125,-22,c),
(125,-61,o),
(95,-91,o),
(30,-112,c)
);
}
);
width = 250;
},
{
layerId = "58AAA307-6DE9-4107-B80A-C255AE991657";
shapes = (
{
closed = 1;
nodes = (
(45,-154,l),
(175,-119,o),
(224,-43,o),
(224,42,cs),
(224,110,o),
(188,152,o),
(132,152,cs),
(91,152,o),
(60,128,o),
(60,83,cs),
(60,3,o),
(133,14,o),
(133,-24,cs),
(133,-63,o),
(103,-81,o),
(45,-102,c)
);
}
);
width = 294;
},
{
layerId = "75A83886-EED5-4C31-9670-660514D8A4F6";
shapes = (
{
closed = 1;
nodes = (
(47,-154,l),
(162,-120,o),
(205,-45,o),
(205,38,cs),
(205,110,o),
(180,156,o),
(125,156,cs),
(87,156,o),
(55,131,o),
(55,86,cs),
(55,2,o),
(116,11,o),
(116,-25,cs),
(116,-61,o),
(91,-80,o),
(47,-100,c)
);
}
);
width = 273;
},
{
layerId = "C91144B6-58F5-45F2-9CE4-7ED6CE127FD4";
shapes = (
{
closed = 1;
nodes = (
(20,-154,l),
(91,-124,o),
(118,-58,o),
(118,0,cs),
(118,56,o),
(94,73,o),
(72,73,cs),
(55,73,o),
(42,62,o),
(42,47,cs),
(42,16,o),
(86,11,o),
(86,-26,cs),
(86,-61,o),
(67,-110,o),
(20,-128,c)
);
}
);
width = 157;
},
{
layerId = "1D4F67F9-897D-45AD-B7F0-CA61A6862C03";
shapes = (
{
closed = 1;
nodes = (
(30,-154,l),
(111,-127,o),
(142,-67,o),
(142,0,cs),
(142,52,o),
(118,73,o),
(91,73,cs),
(72,73,o),
(64,60,o),
(64,42,cs),
(64,17,o),
(111,4,o),
(111,-30,cs),
(111,-61,o),
(89,-115,o),
(30,-132,c)
);
}
);
width = 194;
},
{
layerId = "A0CCC833-A561-4F2A-AF73-A35187C9FE5B";
shapes = (
{
closed = 1;
nodes = (
(32,-154,l),
(122,-122,o),
(156,-52,o),
(156,26,cs),
(156,84,o),
(132,117,o),
(96,117,cs),
(69,117,o),
(48,97,o),
(48,64,cs),
(48,10,o),
(99,11,o),
(99,-26,cs),
(99,-61,o),
(77,-97,o),
(32,-116,c)
);
}
);
width = 207;
},
{
layerId = "BD18C76C-096B-4C52-83B4-518A374966BE";
shapes = (
{
closed = 1;
nodes = (
(40,-154,l),
(145,-121,o),
(184,-48,o),
(184,33,cs),
(184,99,o),
(159,139,o),
(112,139,cs),
(79,139,o),
(52,116,o),
(52,76,cs),
(52,5,o),
(109,11,o),
(109,-25,cs),
(109,-61,o),
(85,-87,o),
(40,-107,c)
);
}
);
width = 244;
}
);
script = "";
subCategory = Other;
unicode = 44;
}
{
category = Punctuation;
glyphname = slash;
layers = (
{
layerId = "E17BEC9D-CAAD-449F-91D9-03766E30097E";
shapes = (
{
closed = 1;
nodes = (
(82,-121,l),
(288,760,l),
(209,760,l),
(0,-121,l)
);
}
);
width = 288;
},
{
layerId = UUID0;
shapes = (
{
closed = 1;
nodes = (
(59,-121,l),
(288,760,l),
(230,760,l),
(0,-121,l)
);
}
);
width = 288;
},
{
layerId = "58AAA307-6DE9-4107-B80A-C255AE991657";
shapes = (
{
closed = 1;
nodes = (
(72,-122,l),
(288,760,l),
(218,760,l),
(0,-121,l)
);
}
);
width = 288;
},
{
layerId = "75A83886-EED5-4C31-9670-660514D8A4F6";
shapes = (
{
closed = 1;
nodes = (
(69,-121,l),
(240,760,l),
(174,760,l),
(0,-121,l)
);
}
);
width = 240;
},
{
layerId = "C91144B6-58F5-45F2-9CE4-7ED6CE127FD4";
shapes = (
{
closed = 1;
nodes = (
(29,-121,l),
(219,760,l),
(190,760,l),
(0,-121,l)
);
}
);
width = 219;
},
{
layerId = "1D4F67F9-897D-45AD-B7F0-CA61A6862C03";
shapes = (
{
closed = 1;
nodes = (
(29,-121,l),
(288,760,l),
(259,760,l),
(0,-121,l)
);
}
);
width = 288;
},
{
layerId = "A0CCC833-A561-4F2A-AF73-A35187C9FE5B";
shapes = (
{
closed = 1;
nodes = (
(50,-120,l),
(228,760,l),
(180,760,l),
(0,-121,l)
);
}
);
width = 228;
},
{
layerId = "BD18C76C-096B-4C52-83B4-518A374966BE";
shapes = (
{
closed = 1;
nodes = (
(61,-121,l),
(235,760,l),
(177,760,l),
(0,-121,l)
);
}
);
width = 235;
}
);
script = "";
subCategory = Other;
unicode = 47;
}
{
category = Number;
glyphname = one;
layers = (
{
layerId = "E17BEC9D-CAAD-449F-91D9-03766E30097E";
shapes = (
{
closed = 1;
nodes = (
(529,0,l),
(529,61,l),
(454,61,ls),
(415,61,o),
(406,94,o),
(406,121,cs),
(406,718,l),
(259,718,l),
(189,666,ls),
(123,617,o),
(69,599,o),
(29,589,c),
(29,534,o),
(59,500,o),
(93,500,cs),
(133,500,o),
(171,542,o),
(222,604,c),
(222,121,ls),
(222,81,o),
(207,61,o),
(175,61,cs),
(82,61,l),
(82,0,l)
);
}
);
width = 569;
},
{
layerId = UUID0;
shapes = (
{
closed = 1;
nodes = (
(477,0,l),
(477,42,l),
(428,42,ls),
(383,42,o),
(346,51,o),
(346,114,cs),
(346,718,l),
(282,718,l),
(212,666,ls),
(146,617,o),
(106,599,o),
(66,589,c),
(66,557,o),
(87,535,o),
(116,535,cs),
(156,535,o),
(194,577,o),
(245,639,c),
(245,114,ls),
(245,51,o),
(208,42,o),
(163,42,cs),
(96,42,l),
(96,0,l)
);
}
);
width = 559;
},
{
layerId = "75A83886-EED5-4C31-9670-660514D8A4F6";
shapes = (
{
closed = 1;
nodes = (
(437,0,l),
(437,56,l),
(384,56,ls),
(352,56,o),
(335,80,o),
(335,119,cs),
(335,718,l),
(211,718,l),
(153,670,ls),
(96,623,o),
(53,606,o),
(20,596,c),
(20,547,o),
(44,517,o),
(73,517,cs),
(107,517,o),
(141,548,o),
(181,606,c),
(181,119,ls),
(181,70,o),
(158,56,o),
(132,56,cs),
(64,56,l),
(64,0,l)
);
}
);
width = 466;
},
{
layerId = "C91144B6-58F5-45F2-9CE4-7ED6CE127FD4";
shapes = (
{
closed = 1;
nodes = (
(363,0,l),
(363,20,l),
(298,20,ls),
(250,20,o),
(242,30,o),
(242,105,cs),
(242,718,l),
(224,718,l),
(180,666,ls),
(134,611,o),
(97,597,o),
(63,587,c),
(63,577,o),
(76,571,o),
(88,571,cs),
(132,571,o),
(168,612,o),
(214,668,c),
(214,105,ls),
(214,30,o),
(206,20,o),
(158,20,cs),
(86,20,l),
(86,0,l)
);
}
);
width = 425;
},
{
layerId = "1D4F67F9-897D-45AD-B7F0-CA61A6862C03";
shapes = (
{
closed = 1;
nodes = (
(467,0,l),
(467,22,l),
(368,22,ls),
(318,22,o),
(312,31,o),
(312,108,cs),
(312,718,l),
(292,718,l),
(261,682,ls),
(207,619,o),
(157,583,o),
(88,578,c),
(88,567,o),
(96,558,o),
(120,558,cs),
(167,558,o),
(217,588,o),
(284,675,c),
(284,108,ls),
(284,31,o),
(278,22,o),
(228,22,cs),
(126,22,l),
(126,0,l)
);
}
);
width = 559;
},
{
layerId = "A0CCC833-A561-4F2A-AF73-A35187C9FE5B";
shapes = (
{
closed = 1;
nodes = (
(376,0,l),
(376,41,l),
(342,41,ls),
(302,41,o),
(275,51,o),
(275,113,cs),
(275,718,l),
(220,718,l),
(165,667,ls),
(112,619,o),
(79,601,o),
(47,591,c),
(47,560,o),
(64,541,o),
(88,541,cs),
(119,541,o),
(151,583,o),
(190,640,c),
(190,113,ls),
(190,48,o),
(163,41,o),
(123,41,cs),
(79,41,l),
(79,0,l)
);
}
);
width = 442;
}
);
script = "";
subCategory = "Decimal Digit";
unicode = 49;
}
{
category = Number;
glyphname = two;
layers = (
{
layerId = "E17BEC9D-CAAD-449F-91D9-03766E30097E";
shapes = (
{
closed = 1;
nodes = (
(533,0,l),
(538,237,l),
(466,237,l),
(455,197,ls),
(442,149,o),
(400,132,o),
(373,132,cs),
(159,132,l),
(193,159,ls),
(478,386,o),
(513,456,o),
(513,549,cs),
(513,653,o),
(431,724,o),
(265,724,cs),
(106,724,o),
(32,646,o),
(32,577,cs),
(32,494,o),
(104,473,o),
(183,473,c),
(183,613,o),
(214,655,o),
(265,655,cs),
(296,655,o),
(325,633,o),
(325,550,cs),
(325,446,o),
(294,377,o),
(162,245,cs),
(32,115,l),
(32,0,l)
);
}
);
width = 569;
},
{
layerId = UUID0;
shapes = (
{
closed = 1;
nodes = (
(491,0,l),
(496,173,l),
(454,173,l),
(450,155,ls),
(441,116,o),
(426,80,o),
(366,80,cs),
(135,80,l),
(304,267,ls),
(409,383,o),
(471,464,o),
(471,557,cs),
(471,658,o),
(394,724,o),
(268,724,cs),
(139,724,o),
(72,667,o),
(72,590,cs),
(72,539,o),
(110,525,o),
(158,525,c),
(158,604,o),
(177,674,o),
(268,674,cs),
(338,674,o),
(370,623,o),
(370,547,cs),
(370,455,o),
(334,389,o),
(228,266,cs),
(61,73,l),
(61,0,l)
);
}
);
width = 559;
},
{
layerId = "75A83886-EED5-4C31-9670-660514D8A4F6";
shapes = (
{
closed = 1;
nodes = (
(440,0,l),
(444,220,l),
(384,220,l),
(375,185,ls),
(364,138,o),
(329,118,o),
(307,118,cs),
(128,118,l),
(240,229,ls),
(348,337,o),
(424,433,o),
(424,550,cs),
(424,654,o),
(355,724,o),
(216,724,cs),
(84,724,o),
(22,651,o),
(22,582,cs),
(22,507,o),
(83,488,o),
(149,488,c),
(149,611,o),
(174,660,o),
(216,660,cs),
(243,660,o),
(267,631,o),
(267,549,cs),
(267,448,o),
(236,368,o),
(130,237,cs),
(22,103,l),
(22,0,l)
);
}
);
width = 466;
},
{
layerId = "C91144B6-58F5-45F2-9CE4-7ED6CE127FD4";
shapes = (
{
closed = 1;
nodes = (
(357,0,l),
(359,131,l),
(339,131,l),
(338,96,ls),
(337,45,o),
(331,28,o),
(278,28,cs),
(78,28,l),
(232,283,ls),
(293,384,o),
(336,459,o),
(336,558,cs),
(336,653,o),
(289,724,o),
(199,724,cs),
(104,724,o),
(65,650,o),
(65,602,cs),
(65,574,o),
(74,563,o),
(88,563,c),
(88,639,o),
(120,699,o),
(199,699,cs),
(277,699,o),
(308,639,o),
(308,553,cs),
(308,469,o),
(274,399,o),
(202,280,cs),
(46,22,l),
(46,0,l)
);
}
);
width = 425;
},
{
layerId = "1D4F67F9-897D-45AD-B7F0-CA61A6862C03";
shapes = (
{
closed = 1;
nodes = (
(469,0,l),
(474,127,l),
(454,127,l),
(452,95,ls),
(449,39,o),
(443,25,o),
(391,25,cs),
(92,25,l),
(289,249,ls),
(396,371,o),
(445,428,o),
(445,541,cs),
(445,634,o),
(390,724,o),
(254,724,cs),
(132,724,o),
(76,650,o),
(76,602,cs),
(76,578,o),
(85,564,o),
(99,564,c),
(99,649,o),
(156,699,o),
(254,699,cs),
(378,699,o),
(417,612,o),
(417,539,cs),
(417,439,o),
(372,382,o),
(259,253,cs),
(57,22,l),
(57,0,l)
);
}
);
width = 559;
},
{
layerId = "A0CCC833-A561-4F2A-AF73-A35187C9FE5B";
shapes = (
{
closed = 1;
nodes = (
(395,0,l),
(398,170,l),
(359,170,l),
(355,151,ls),
(346,104,o),
(332,77,o),
(288,77,cs),
(105,77,l),
(241,259,ls),
(324,364,o),
(380,448,o),
(380,554,cs),
(380,655,o),
(316,724,o),
(209,724,cs),
(100,724,o),
(45,666,o),
(45,595,cs),
(45,545,o),
(82,530,o),
(120,530,c),
(120,606,o),
(137,675,o),
(209,675,cs),
(263,675,o),
(289,624,o),
(289,545,cs),
(289,455,o),
(262,380,o),
(175,260,cs),
(37,67,l),
(37,0,l)
);
}
);
width = 442;
}
);
script = "";
subCategory = "Decimal Digit";
unicode = 50;
}
{
category = Number;
glyphname = three;
layers = (
{
layerId = "E17BEC9D-CAAD-449F-91D9-03766E30097E";
shapes = (
{
closed = 1;
nodes = (
(403,-10,o),
(537,43,o),
(537,207,cs),
(537,310,o),
(449,361,o),
(364,381,c),
(447,415,o),
(512,468,o),
(512,558,cs),
(512,664,o),
(419,724,o),
(265,724,cs),
(107,724,o),
(34,655,o),
(34,588,cs),
(34,520,o),
(91,495,o),
(177,495,c),
(177,573,o),
(199,655,o),
(257,655,cs),
(294,655,o),
(322,612,o),
(322,545,cs),
(322,462,o),
(302,404,o),
(217,404,c),
(136,404,l),
(136,334,l),
(210,334,ls),
(301,334,o),
(346,279,o),
(346,208,cs),
(346,97,o),
(297,72,o),
(242,72,cs),
(175,72,o),
(122,119,o),
(122,215,c),
(70,215,o),
(21,186,o),
(21,127,cs),
(21,48,o),
(83,-10,o),
(248,-10,cs)
);
}
);
width = 569;
},
{
layerId = UUID0;
shapes = (
{
closed = 1;
nodes = (
(362,-10,o),
(501,43,o),
(501,204,cs),
(501,336,o),
(390,373,o),
(316,381,c),
(408,403,o),
(476,475,o),
(476,565,cs),
(476,666,o),
(392,724,o),
(266,724,cs),
(137,724,o),
(70,667,o),
(70,590,cs),
(70,539,o),
(108,525,o),
(156,525,c),
(156,604,o),
(175,674,o),
(266,674,cs),
(343,674,o),
(373,628,o),
(373,550,cs),
(373,455,o),
(304,395,o),
(216,395,c),
(184,395,l),
(184,344,l),
(216,344,ls),
(328,344,o),
(397,289,o),
(397,205,cs),
(397,85,o),
(327,44,o),
(248,44,cs),
(167,44,o),
(121,95,o),
(121,165,c),
(83,165,o),
(58,141,o),
(58,101,cs),
(58,42,o),
(115,-10,o),
(247,-10,c)
);
}
);
width = 559;
},
{
layerId = "58AAA307-6DE9-4107-B80A-C255AE991657";
shapes = (
{
closed = 1;
nodes = (
(381,-10,o),
(513,43,o),
(513,206,cs),
(513,321,o),
(415,366,o),
(335,381,c),
(422,410,o),
(488,471,o),
(488,561,cs),
(488,665,o),
(399,724,o),
(257,724,cs),
(111,724,o),
(36,668,o),
(36,597,cs),
(36,536,o),
(83,508,o),
(166,508,c),
(166,586,o),
(180,663,o),
(252,663,cs),
(306,663,o),
(335,619,o),
(335,547,cs),
(335,459,o),
(294,400,o),
(208,400,cs),
(142,400,l),
(142,338,l),
(204,338,ls),
(304,338,o),
(359,283,o),
(359,207,cs),
(359,92,o),
(301,60,o),
(236,60,cs),
(163,60,o),
(113,103,o),
(113,188,c),
(67,188,o),
(28,161,o),
(28,110,cs),
(28,47,o),
(92,-10,o),
(243,-10,cs)
);
}
);
width = 559;
},
{
layerId = "75A83886-EED5-4C31-9670-660514D8A4F6";
shapes = (
{
closed = 1;
nodes = (
(332,-10,o),
(443,43,o),
(443,204,cs),
(443,313,o),
(370,363,o),
(299,380,c),
(368,411,o),
(422,468,o),
(422,558,cs),
(422,664,o),
(345,724,o),
(216,724,cs),
(85,724,o),
(24,657,o),
(24,589,cs),
(24,527,o),
(71,504,o),
(143,504,c),
(143,583,o),
(161,660,o),
(209,660,cs),
(241,660,o),
(264,616,o),
(264,546,cs),
(264,460,o),
(247,402,o),
(176,402,c),
(109,402,l),
(109,338,l),
(171,338,ls),
(246,338,o),
(284,282,o),
(284,205,cs),
(284,94,o),
(243,64,o),
(197,64,cs),
(142,64,o),
(98,113,o),
(98,202,c),
(54,202,o),
(13,175,o),
(13,121,cs),
(13,46,o),
(64,-10,o),
(202,-10,c)
);
}
);
width = 466;
},
{
layerId = "C91144B6-58F5-45F2-9CE4-7ED6CE127FD4";
shapes = (
{
closed = 1;
nodes = (
(288,-9,o),
(362,63,o),
(362,190,cs),
(362,323,o),
(292,371,o),
(212,376,c),
(292,390,o),
(343,471,o),
(343,561,cs),
(343,662,o),
(290,724,o),
(209,724,cs),
(128,724,o),
(76,668,o),
(76,593,cs),
(76,563,o),
(87,553,o),
(97,553,c),
(97,639,o),
(125,699,o),
(209,699,cs),
(280,699,o),
(315,649,o),
(315,560,cs),
(315,451,o),
(248,387,o),
(169,387,cs),
(149,387,l),
(149,362,l),
(169,362,ls),
(281,362,o),
(334,302,o),
(334,191,cs),
(334,86,o),
(281,16,o),
(196,16,cs),
(118,16,o),
(76,57,o),
(76,136,c),
(61,136,o),
(55,119,o),
(55,98,cs),
(55,42,o),
(106,-9,o),
(196,-9,cs)
);
}
);
width = 425;
},
{
layerId = "1D4F67F9-897D-45AD-B7F0-CA61A6862C03";
shapes = (
{
closed = 1;
nodes = (
(373,-9,o),
(467,58,o),
(467,188,cs),
(467,322,o),
(372,368,o),
(291,376,c),
(361,394,o),
(442,438,o),
(442,556,cs),
(442,659,o),
(374,724,o),
(263,724,cs),
(144,724,o),
(88,656,o),
(88,604,cs),
(88,583,o),
(95,569,o),
(109,569,c),
(110,651,o),
(168,699,o),
(262,699,cs),
(355,699,o),
(414,647,o),
(414,557,cs),
(414,448,o),
(334,387,o),
(219,387,cs),
(198,387,l),
(198,362,l),
(221,362,ls),
(370,362,o),
(439,300,o),
(439,189,cs),
(439,76,o),
(362,16,o),
(252,16,cs),
(136,16,o),
(89,65,o),
(89,136,c),
(78,136,o),
(66,128,o),
(66,102,cs),
(66,48,o),
(124,-9,o),
(254,-9,cs)
);
}
);
width = 559;
},
{
layerId = "A0CCC833-A561-4F2A-AF73-A35187C9FE5B";
shapes = (
{
closed = 1;
nodes = (
(301,-10,o),
(401,43,o),
(401,196,cs),
(401,323,o),
(328,368,o),
(261,378,c),
(330,399,o),
(381,469,o),
(381,559,cs),
(381,665,o),
(314,724,o),
(217,724,cs),
(108,724,o),
(52,664,o),
(52,591,cs),
(52,547,o),
(85,532,o),
(123,532,c),
(123,611,o),
(146,675,o),
(210,675,cs),
(264,675,o),
(291,629,o),
(291,550,cs),
(291,454,o),
(252,395,o),
(182,395,c),
(143,395,l),
(143,348,l),
(181,348,ls),
(269,348,o),
(311,291,o),
(311,197,cs),
(311,85,o),
(262,42,o),
(205,42,cs),
(139,42,o),
(103,96,o),
(103,165,c),
(65,165,o),
(37,141,o),
(37,102,cs),
(37,41,o),
(86,-10,o),
(206,-10,c)
);
}
);
width = 442;
},
{
layerId = "BD18C76C-096B-4C52-83B4-518A374966BE";
shapes = (
{
closed = 1;
nodes = (
(322,-10,o),
(425,43,o),
(425,201,cs),
(425,317,o),
(352,365,o),
(283,379,c),
(351,406,o),
(404,469,o),
(404,559,cs),
(404,665,o),
(332,724,o),
(217,724,cs),
(95,724,o),
(36,660,o),
(36,590,cs),
(36,536,o),
(77,516,o),
(134,516,c),
(134,595,o),
(155,667,o),
(209,667,cs),
(251,667,o),
(276,622,o),
(276,548,cs),
(276,457,o),
(249,399,o),
(175,399,cs),
(124,399,l),
(124,342,l),
(175,342,ls),
(256,342,o),
(296,286,o),
(296,202,cs),
(296,90,o),
(249,54,o),
(197,54,cs),
(129,54,o),
(98,110,o),
(98,186,c),
(59,186,o),
(26,160,o),
(26,113,cs),
(26,32,o),
(101,-10,o),
(208,-10,cs)
);
}
);
width = 456;
}
);
script = "";
subCategory = "Decimal Digit";
unicode = 51;
}
{
category = Number;
glyphname = four;
layers = (
{
layerId = "E17BEC9D-CAAD-449F-91D9-03766E30097E";
shapes = (
{
closed = 1;
nodes = (
(547,0,l),
(547,61,l),
(534,61,ls),
(489,61,o),
(452,70,o),
(452,133,cs),
(452,179,l),
(541,179,l),
(541,252,l),
(452,252,l),
(452,714,l),
(281,714,l),
(15,254,l),
(15,179,l),
(269,179,l),
(269,133,ls),
(269,70,o),
(232,61,o),
(187,61,cs),
(159,61,l),
(159,0,l)
);
},
{
closed = 1;
nodes = (
(210,460,ls),
(219,477,o),
(264,567,o),
(277,601,c),
(272,539,o),
(270,478,o),
(270,420,cs),
(270,252,l),
(98,252,l)
);
}
);
width = 569;
},
{
layerId = UUID0;
shapes = (
{
closed = 1;
nodes = (
(516,0,l),
(516,42,l),
(503,42,ls),
(458,42,o),
(421,51,o),
(421,114,cs),
(421,196,l),
(545,196,l),
(545,252,l),
(421,252,l),
(421,714,l),
(326,714,l),
(17,237,l),
(17,196,l),
(325,196,l),
(325,114,ls),
(325,51,o),
(288,42,o),
(243,42,cs),
(215,42,l),
(215,0,l)
);
},
{
closed = 1;
nodes = (
(242,490,ls),
(265,526,o),
(319,617,o),
(332,644,c),
(327,582,o),
(325,495,o),
(325,437,cs),
(325,252,l),
(89,252,l)
);
}
);
width = 559;
},
{
layerId = "58AAA307-6DE9-4107-B80A-C255AE991657";
shapes = (
{
closed = 1;
nodes = (
(531,0,l),
(531,53,l),
(518,53,ls),
(473,53,o),
(436,62,o),
(436,125,cs),
(436,186,l),
(540,186,l),
(540,252,l),
(436,252,l),
(436,714,l),
(297,714,l),
(13,247,l),
(13,186,l),
(290,186,l),
(290,125,ls),
(290,62,o),
(253,53,o),
(208,53,cs),
(180,53,l),
(180,0,l)
);
},
{
closed = 1;
nodes = (
(218,475,ls),
(233,500,o),
(284,588,o),
(297,619,c),
(292,557,o),
(290,485,o),
(290,427,cs),
(290,252,l),
(83,252,l)
);
}
);
width = 559;
},
{
layerId = "75A83886-EED5-4C31-9670-660514D8A4F6";
shapes = (
{
closed = 1;
nodes = (
(452,0,l),
(452,56,l),
(441,56,ls),
(404,56,o),
(373,65,o),
(373,128,cs),
(373,184,l),
(447,184,l),
(447,252,l),
(373,252,l),
(373,714,l),
(224,714,l),
(9,249,l),
(9,184,l),
(220,184,l),
(220,128,ls),
(220,65,o),
(189,56,o),
(152,56,cs),
(128,56,l),
(128,0,l)
);
},
{
closed = 1;
nodes = (
(167,450,ls),
(188,498,o),
(209,553,o),
(226,603,c),
(221,541,o),
(220,493,o),
(220,435,cs),
(220,252,l),
(78,252,l)
);
}
);
width = 466;
},
{
layerId = "C91144B6-58F5-45F2-9CE4-7ED6CE127FD4";
shapes = (
{
closed = 1;
nodes = (
(381,0,l),
(381,20,l),
(368,20,ls),
(314,20,o),
(306,29,o),
(306,101,cs),
(306,208,l),
(415,208,l),
(415,233,l),
(306,233,l),
(306,714,l),
(278,714,l),
(17,226,l),
(17,208,l),
(279,208,l),
(279,101,ls),
(279,29,o),
(271,20,o),
(218,20,cs),
(193,20,l),
(193,0,l)
);
},
{
closed = 1;
nodes = (
(197,511,ls),
(220,553,o),
(273,656,o),
(281,677,c),
(279,613,o),
(279,503,o),
(279,445,cs),
(279,233,l),
(48,233,l)
);
}
);
width = 425;
},
{
layerId = "1D4F67F9-897D-45AD-B7F0-CA61A6862C03";
shapes = (
{
closed = 1;
nodes = (
(496,0,l),
(496,20,l),
(457,20,ls),
(407,20,o),
(401,31,o),
(401,108,cs),
(401,208,l),
(543,208,l),
(543,233,l),
(401,233,l),
(401,714,l),
(373,714,l),
(21,225,l),
(21,208,l),
(374,208,l),
(374,108,ls),
(374,31,o),
(368,20,o),
(318,20,cs),
(265,20,l),
(265,0,l)
);
},
{
closed = 1;
nodes = (
(257,512,ls),
(293,562,o),
(363,662,o),
(376,685,c),
(375,623,o),
(374,507,o),
(374,449,cs),
(374,233,l),
(56,233,l)
);
}
);
width = 559;
},
{
layerId = "A0CCC833-A561-4F2A-AF73-A35187C9FE5B";
shapes = (
{
closed = 1;
nodes = (
(412,0,l),
(412,41,l),
(402,41,ls),
(365,41,o),
(336,50,o),
(336,113,cs),
(336,197,l),
(429,197,l),
(429,252,l),
(336,252,l),
(336,714,l),
(250,714,l),
(13,236,l),
(13,197,l),
(252,197,l),
(252,113,ls),
(252,50,o),
(224,41,o),
(186,41,cs),
(165,41,l),
(165,0,l)
);
},
{
closed = 1;
nodes = (
(185,486,ls),
(206,529,o),
(245,614,o),
(257,646,c),
(253,584,o),
(252,499,o),
(252,441,cs),
(252,252,l),
(71,252,l)
);
}
);
width = 442;
},
{
layerId = "BD18C76C-096B-4C52-83B4-518A374966BE";
shapes = (
{
closed = 1;
nodes = (
(435,0,l),
(435,49,l),
(424,49,ls),
(387,49,o),
(357,58,o),
(357,121,cs),
(357,190,l),
(439,190,l),
(439,252,l),
(357,252,l),
(357,714,l),
(235,714,l),
(11,243,l),
(11,190,l),
(234,190,l),
(234,121,ls),
(234,58,o),
(204,49,o),
(167,49,cs),
(144,49,l),
(144,0,l)
);
},
{
closed = 1;
nodes = (
(175,466,ls),
(196,512,o),
(225,579,o),
(239,622,c),
(235,560,o),
(234,496,o),
(234,438,cs),
(234,252,l),
(75,252,l)
);
}
);
width = 456;
}
);
script = "";
subCategory = "Decimal Digit";
unicode = 52;
}
{
category = Number;
glyphname = five;
layers = (
{
layerId = "E17BEC9D-CAAD-449F-91D9-03766E30097E";
shapes = (
{
closed = 1;
nodes = (
(348,-10,o),
(526,21,o),
(526,221,cs),
(526,366,o),
(423,438,o),
(249,438,cs),
(221,438,o),
(166,432,o),
(144,423,c),
(158,582,l),
(376,582,ls),
(401,582,o),
(411,568,o),
(417,546,cs),
(427,509,l),
(496,509,l),
(491,714,l),
(96,714,l),
(64,375,l),
(110,349,l),
(144,356,o),
(175,364,o),
(212,364,cs),
(294,364,o),
(337,318,o),
(337,221,cs),
(337,101,o),
(283,68,o),
(228,68,cs),
(146,68,o),
(127,145,o),
(127,202,c),
(75,202,o),
(34,178,o),
(34,126,cs),
(34,51,o),
(99,-10,o),
(251,-10,cs)
);
}
);
width = 569;
},
{
layerId = UUID0;
shapes = (
{
closed = 1;
nodes = (
(397,-10,o),
(486,82,o),
(486,218,cs),
(486,359,o),
(387,429,o),
(258,429,cs),
(199,429,o),
(161,420,o),
(141,413,c),
(160,634,l),
(354,634,ls),
(396,634,o),
(404,621,o),
(408,593,cs),
(412,563,l),
(454,563,l),
(449,714,l),
(115,714,l),
(83,359,l),
(107,352,l),
(132,363,o),
(161,374,o),
(230,374,cs),
(322,374,o),
(382,323,o),
(382,218,cs),
(382,91,o),
(321,49,o),
(239,49,cs),
(158,49,o),
(118,93,o),
(118,150,c),
(75,150,o),
(55,128,o),
(55,91,cs),
(55,46,o),
(96,-10,o),
(244,-10,cs)
);
}
);
width = 559;
},
{
layerId = "75A83886-EED5-4C31-9670-660514D8A4F6";
shapes = (
{
closed = 1;
nodes = (
(286,-10,o),
(434,37,o),
(434,220,cs),
(434,364,o),
(348,436,o),
(203,436,cs),
(180,436,o),
(134,429,o),
(116,420,c),
(131,597,l),
(309,597,ls),
(330,597,o),
(336,583,o),
(342,557,cs),
(352,524,l),
(409,524,l),
(405,714,l),
(79,714,l),
(48,371,l),
(87,350,l),
(116,358,o),
(141,368,o),
(172,368,cs),
(240,368,o),
(276,319,o),
(276,220,cs),
(276,97,o),
(231,61,o),
(186,61,cs),
(118,61,o),
(101,132,o),
(101,190,c),
(58,190,o),
(24,166,o),
(24,118,cs),
(24,51,o),
(78,-10,o),
(205,-10,cs)
);
}
);
width = 466;
},
{
layerId = "C91144B6-58F5-45F2-9CE4-7ED6CE127FD4";
shapes = (
{
closed = 1;
nodes = (
(292,-10,o),
(362,62,o),
(362,216,cs),
(362,352,o),
(292,423,o),
(195,423,cs),
(156,423,o),
(127,412,o),
(104,400,c),
(124,686,l),
(263,686,ls),
(307,686,o),
(314,680,o),
(316,628,cs),
(317,603,l),
(337,603,l),
(334,714,l),
(101,714,l),
(77,366,l),
(90,362,l),
(112,381,o),
(147,398,o),
(196,398,cs),
(283,398,o),
(334,335,o),
(334,216,cs),
(334,76,o),
(277,15,o),
(195,15,cs),
(107,15,o),
(73,67,o),
(73,126,c),
(58,126,o),
(50,115,o),
(50,88,cs),
(50,57,o),
(89,-10,o),
(195,-10,cs)
);
}
);
width = 425;
},
{
layerId = "1D4F67F9-897D-45AD-B7F0-CA61A6862C03";
shapes = (
{
closed = 1;
nodes = (
(393,-10,o),
(470,84,o),
(470,217,cs),
(470,354,o),
(373,423,o),
(262,423,cs),
(205,423,o),
(169,413,o),
(136,401,c),
(161,686,l),
(357,686,ls),
(412,686,o),
(420,684,o),
(422,631,cs),
(423,603,l),
(443,603,l),
(440,714,l),
(138,714,l),
(108,373,l),
(123,369,l),
(159,387,o),
(205,398,o),
(260,398,cs),
(365,398,o),
(442,337,o),
(442,216,cs),
(442,93,o),
(373,15,o),
(247,15,cs),
(173,15,o),
(97,45,o),
(97,126,c),
(86,126,o),
(74,119,o),
(74,93,cs),
(74,39,o),
(141,-10,o),
(248,-10,cs)
);
}
);
width = 559;
},
{
layerId = "A0CCC833-A561-4F2A-AF73-A35187C9FE5B";
shapes = (
{
closed = 1;
nodes = (
(307,-10,o),
(388,85,o),
(388,218,cs),
(388,358,o),
(310,429,o),
(199,429,cs),
(165,429,o),
(130,420,o),
(110,411,c),
(127,637,l),
(281,637,ls),
(313,637,o),
(313,625,o),
(322,587,cs),
(327,566,l),
(366,566,l),
(363,714,l),
(91,714,l),
(64,361,l),
(83,351,l),
(104,363,o),
(138,378,o),
(183,378,cs),
(252,378,o),
(297,323,o),
(297,218,cs),
(297,85,o),
(250,41,o),
(187,41,cs),
(123,41,o),
(93,95,o),
(93,155,c),
(61,155,o),
(40,130,o),
(40,94,cs),
(40,51,o),
(75,-10,o),
(193,-10,cs)
);
}
);
width = 442;
}
);
script = "";
subCategory = "Decimal Digit";
unicode = 53;
}
{
category = Number;
glyphname = six;
layers = (
{
layerId = "E17BEC9D-CAAD-449F-91D9-03766E30097E";
shapes = (
{
closed = 1;
nodes = (
(461,-10,o),
(540,88,o),
(540,232,cs),
(540,364,o),
(460,441,o),
(338,441,cs),
(287,441,o),
(247,429,o),
(209,408,c),
(218,559,o),
(249,657,o),
(316,657,cs),
(364,657,o),
(387,592,o),
(387,519,c),
(486,519,o),
(520,561,o),
(520,610,cs),
(520,670,o),
(464,724,o),
(322,724,cs),
(133,724,o),
(37,572,o),
(37,329,cs),
(37,97,o),
(138,-10,o),
(297,-10,cs)
);
},
{
closed = 1;
nodes = (
(246,64,o),
(210,143,o),
(210,336,c),
(234,353,o),
(269,368,o),
(293,368,cs),
(337,368,o),
(370,331,o),
(370,222,cs),
(370,100,o),
(340,64,o),
(302,64,cs)
);
}
);
width = 569;
},
{
layerId = UUID0;
shapes = (
{
closed = 1;
nodes = (
(429,-10,o),
(508,88,o),
(508,229,cs),
(508,357,o),
(429,434,o),
(307,434,cs),
(242,434,o),
(197,409,o),
(164,382,c),
(171,575,o),
(222,676,o),
(322,676,cs),
(386,676,o),
(410,624,o),
(410,559,c),
(460,559,o),
(487,581,o),
(487,619,cs),
(487,673,o),
(433,724,o),
(322,724,cs),
(145,724,o),
(61,550,o),
(61,360,cs),
(61,97,o),
(160,-10,o),
(293,-10,cs)
);
},
{
closed = 1;
nodes = (
(216,45,o),
(165,125,o),
(163,325,c),
(190,353,o),
(235,383,o),
(287,383,cs),
(364,383,o),
(406,333,o),
(406,219,cs),
(406,98,o),
(367,45,o),
(296,45,cs)
);
}
);
width = 559;
},
{
layerId = "58AAA307-6DE9-4107-B80A-C255AE991657";
shapes = (
{
closed = 1;
nodes = (
(445,-10,o),
(524,88,o),
(524,231,cs),
(524,361,o),
(445,438,o),
(324,438,cs),
(256,438,o),
(213,419,o),
(186,401,c),
(194,570,o),
(242,665,o),
(321,665,cs),
(374,665,o),
(387,596,o),
(387,536,c),
(475,536,o),
(507,573,o),
(507,614,cs),
(507,671,o),
(459,724,o),
(330,724,cs),
(137,724,o),
(45,550,o),
(45,330,cs),
(45,97,o),
(145,-10,o),
(293,-10,cs)
);
},
{
closed = 1;
nodes = (
(235,56,o),
(187,137,o),
(186,329,c),
(203,352,o),
(251,377,o),
(287,377,c),
(344,377,o),
(379,329,o),
(379,221,cs),
(379,106,o),
(347,56,o),
(296,56,cs)
);
}
);
width = 559;
},
{
layerId = "75A83886-EED5-4C31-9670-660514D8A4F6";
shapes = (
{
closed = 1;
nodes = (
(381,-10,o),
(447,88,o),
(447,231,cs),
(447,362,o),
(381,439,o),
(280,439,cs),
(222,439,o),
(195,420,o),
(174,404,c),
(182,567,o),
(208,662,o),
(260,662,cs),
(297,662,o),
(317,602,o),
(317,530,c),
(401,530,o),
(430,566,o),
(430,612,cs),
(430,671,o),
(384,724,o),
(265,724,cs),
(107,724,o),
(27,584,o),
(27,332,cs),
(27,97,o),
(112,-10,o),
(244,-10,cs)
);
},
{
closed = 1;
nodes = (
(191,58,o),
(176,150,o),
(175,340,c),
(189,353,o),
(209,372,o),
(239,372,cs),
(274,372,o),
(299,328,o),
(299,221,cs),
(299,108,o),
(277,58,o),
(243,58,cs)
);
}
);
width = 466;
},
{
layerId = "C91144B6-58F5-45F2-9CE4-7ED6CE127FD4";
shapes = (
{
closed = 1;
nodes = (
(296,-10,o),
(373,43,o),
(373,216,cs),
(373,354,o),
(322,429,o),
(226,429,cs),
(154,429,o),
(107,383,o),
(86,354,c),
(85,608,o),
(137,699,o),
(239,699,cs),
(309,699,o),
(335,661,o),
(335,587,c),
(345,587,o),
(355,592,o),
(355,625,cs),
(355,682,o),
(317,724,o),
(240,724,cs),
(127,724,o),
(58,637,o),
(58,339,cs),
(58,93,o),
(121,-10,o),
(227,-10,cs)
);
},
{
closed = 1;
nodes = (
(137,15,o),
(88,110,o),
(86,317,c),
(112,354,o),
(156,404,o),
(226,404,cs),
(307,404,o),
(345,344,o),
(345,217,cs),
(345,77,o),
(298,15,o),
(228,15,cs)
);
}
);
width = 425;
},
{
layerId = "1D4F67F9-897D-45AD-B7F0-CA61A6862C03";
shapes = (
{
closed = 1;
nodes = (
(425,-10,o),
(488,83,o),
(488,220,cs),
(488,355,o),
(409,427,o),
(296,427,cs),
(217,427,o),
(154,392,o),
(109,357,c),
(109,596,o),
(198,699,o),
(321,699,cs),
(400,699,o),
(440,666,o),
(440,589,c),
(454,589,o),
(462,603,o),
(462,624,cs),
(462,672,o),
(423,724,o),
(322,724,cs),
(186,724,o),
(81,624,o),
(81,338,cs),
(81,102,o),
(161,-10,o),
(293,-10,cs)
);
},
{
closed = 1;
nodes = (
(171,15,o),
(113,125,o),
(109,325,c),
(142,353,o),
(205,402,o),
(296,402,cs),
(407,402,o),
(460,324,o),
(460,221,cs),
(460,99,o),
(408,15,o),
(296,15,cs)
);
}
);
width = 559;
},
{
layerId = "A0CCC833-A561-4F2A-AF73-A35187C9FE5B";
shapes = (
{
closed = 1;
nodes = (
(342,-10,o),
(405,88,o),
(405,229,cs),
(405,356,o),
(342,433,o),
(249,433,cs),
(194,433,o),
(158,405,o),
(134,379,c),
(137,575,o),
(175,677,o),
(248,677,cs),
(300,677,o),
(322,631,o),
(322,562,c),
(365,562,o),
(388,581,o),
(388,619,cs),
(388,673,o),
(342,724,o),
(251,724,cs),
(109,724,o),
(45,582,o),
(45,340,cs),
(45,97,o),
(124,-10,o),
(232,-10,cs)
);
},
{
closed = 1;
nodes = (
(173,40,o),
(135,133,o),
(133,327,c),
(152,352,o),
(183,385,o),
(231,385,cs),
(288,385,o),
(318,334,o),
(318,219,cs),
(318,95,o),
(288,40,o),
(234,40,cs)
);
}
);
width = 442;
},
{
layerId = "BD18C76C-096B-4C52-83B4-518A374966BE";
shapes = (
{
closed = 1;
nodes = (
(364,-10,o),
(429,88,o),
(429,230,cs),
(429,359,o),
(364,436,o),
(267,436,cs),
(210,436,o),
(179,414,o),
(157,393,c),
(162,570,o),
(194,669,o),
(255,669,cs),
(298,669,o),
(319,615,o),
(319,544,c),
(385,544,o),
(412,572,o),
(412,615,cs),
(412,672,o),
(366,724,o),
(259,724,cs),
(108,724,o),
(35,583,o),
(35,335,cs),
(35,97,o),
(117,-10,o),
(239,-10,cs)
);
},
{
closed = 1;
nodes = (
(193,50,o),
(158,144,o),
(157,334,c),
(173,352,o),
(198,378,o),
(236,378,cs),
(280,378,o),
(307,331,o),
(307,220,cs),
(307,102,o),
(282,50,o),
(241,50,cs)
);
}
);
width = 456;
}
);
script = "";
subCategory = "Decimal Digit";
unicode = 54;
}
{
category = Number;
glyphname = seven;
layers = (
{
guides = (
{
angle = 340.3847;
pos = (327,271);
},
{
angle = 270;
pos = (264,679);
}
);
layerId = "E17BEC9D-CAAD-449F-91D9-03766E30097E";
shapes = (
{
closed = 1;
nodes = (
(258,0,l),
(526,650,l),
(526,714,l),
(51,714,l),
(46,482,l),
(119,482,l),
(127,532,ls),
(132,565,o),
(149,583,o),
(185,583,c),
(375,583,l),
(97,0,l)
);
}
);
width = 569;
},
{
guides = (
{
angle = 340.3847;
pos = (327,271);
},
{
angle = 270;
pos = (264,679);
}
);
layerId = UUID0;
shapes = (
{
closed = 1;
nodes = (
(265,0,l),
(511,685,l),
(511,714,l),
(64,714,l),
(59,533,l),
(101,533,l),
(105,583,l),
(108,616,o),
(127,634,o),
(163,634,c),
(412,634,l),
(176,0,l)
);
}
);
width = 559;
},
{
layerId = "75A83886-EED5-4C31-9670-660514D8A4F6";
shapes = (
{
closed = 1;
nodes = (
(211,0,l),
(435,660,l),
(435,714,l),
(39,714,l),
(34,496,l),
(95,496,l),
(102,545,ls),
(107,580,o),
(120,597,o),
(150,597,c),
(307,597,l),
(76,0,l)
);
}
);
width = 466;
},
{
layerId = "C91144B6-58F5-45F2-9CE4-7ED6CE127FD4";
shapes = (
{
closed = 1;
nodes = (
(174,0,l),
(378,692,l),
(378,714,l),
(51,714,l),
(47,570,l),
(67,570,l),
(70,630,ls),
(73,680,o),
(82,686,o),
(117,686,cs),
(348,686,l),
(144,0,l)
);
}
);
width = 425;
},
{
guides = (
{
angle = 340.3847;
pos = (327,271);
},
{
angle = 270;
pos = (264,679);
}
);
layerId = "1D4F67F9-897D-45AD-B7F0-CA61A6862C03";
shapes = (
{
closed = 1;
nodes = (
(213,0,l),
(493,692,l),
(493,714,l),
(65,714,l),
(59,570,l),
(79,570,l),
(83,633,ls),
(86,682,o),
(97,686,o),
(133,686,cs),
(462,686,l),
(182,0,l)
);
}
);
width = 559;
},
{
layerId = "A0CCC833-A561-4F2A-AF73-A35187C9FE5B";
shapes = (
{
closed = 1;
nodes = (
(197,0,l),
(403,687,l),
(403,714,l),
(46,714,l),
(41,536,l),
(83,536,l),
(87,583,ls),
(90,621,o),
(102,637,o),
(131,637,c),
(315,637,l),
(110,0,l)
);
}
);
width = 442;
}
);
script = "";
subCategory = "Decimal Digit";
unicode = 55;
}
{
category = Number;
glyphname = eight;
layers = (
{
layerId = "E17BEC9D-CAAD-449F-91D9-03766E30097E";
shapes = (
{
closed = 1;
nodes = (
(450,-10,o),
(546,72,o),
(546,188,cs),
(546,284,o),
(504,335,o),
(388,394,c),
(472,430,o),
(521,474,o),
(521,561,cs),
(521,649,o),
(445,724,o),
(292,724,cs),
(115,724,o),
(46,641,o),
(46,540,cs),
(46,450,o),
(97,401,o),
(176,359,c),
(89,329,o),
(23,279,o),
(23,174,cs),
(23,77,o),
(98,-10,o),
(278,-10,cs)
);
},
{
closed = 1;
nodes = (
(230,57,o),
(186,96,o),
(186,185,cs),
(186,247,o),
(206,288,o),
(240,318,c),
(318,278,o),
(365,229,o),
(365,166,cs),
(365,96,o),
(331,57,o),
(283,57,cs)
);
},
{
closed = 1;
nodes = (
(259,455,o),
(222,495,o),
(222,562,cs),
(222,622,o),
(244,658,o),
(289,658,cs),
(334,658,o),
(362,615,o),
(362,556,cs),
(362,486,o),
(340,450,o),
(315,430,c)
);
}
);
width = 569;
},
{
layerId = UUID0;
shapes = (
{
closed = 1;
nodes = (
(419,-10,o),
(513,64,o),
(513,191,cs),
(513,278,o),
(446,336,o),
(347,383,c),
(428,423,o),
(482,464,o),
(482,552,cs),
(482,652,o),
(410,724,o),
(285,724,cs),
(131,724,o),
(69,637,o),
(69,545,cs),
(69,461,o),
(122,405,o),
(198,362,c),
(111,320,o),
(46,275,o),
(46,179,cs),
(46,74,o),
(123,-10,o),
(273,-10,cs)
);
},
{
closed = 1;
nodes = (
(189,36,o),
(143,92,o),
(143,175,cs),
(143,250,o),
(183,304,o),
(246,338,c),
(375,282,o),
(422,237,o),
(422,169,cs),
(422,92,o),
(365,36,o),
(278,36,cs)
);
},
{
closed = 1;
nodes = (
(209,447,o),
(163,485,o),
(163,557,cs),
(163,626,o),
(204,677,o),
(279,677,cs),
(363,677,o),
(393,615,o),
(393,554,cs),
(393,484,o),
(373,443,o),
(298,406,c)
);
}
);
width = 559;
},
{
layerId = "75A83886-EED5-4C31-9670-660514D8A4F6";
shapes = (
{
closed = 1;
nodes = (
(371,-10,o),
(451,69,o),
(451,185,cs),
(451,284,o),
(416,335,o),
(320,390,c),
(389,426,o),
(430,472,o),
(430,560,cs),
(430,651,o),
(367,724,o),
(239,724,cs),
(91,724,o),
(34,642,o),
(34,542,cs),
(34,452,o),
(76,403,o),
(142,361,c),
(70,330,o),
(15,278,o),
(15,174,cs),
(15,75,o),
(77,-10,o),
(228,-10,cs)
);
},
{
closed = 1;
nodes = (
(188,52,o),
(151,94,o),
(151,183,cs),
(151,248,o),
(168,293,o),
(196,324,c),
(260,280,o),
(299,231,o),
(299,166,cs),
(299,93,o),
(272,52,o),
(232,52,cs)
);
},
{
closed = 1;
nodes = (
(212,452,o),
(181,491,o),
(181,561,cs),
(181,624,o),
(200,662,o),
(236,662,cs),
(274,662,o),
(297,616,o),
(297,556,cs),
(297,486,o),
(279,447,o),
(258,423,c)
);
}
);
width = 466;
},
{
layerId = "C91144B6-58F5-45F2-9CE4-7ED6CE127FD4";
shapes = (
{
closed = 1;
nodes = (
(306,-10,o),
(376,55,o),
(376,172,cs),
(376,280,o),
(328,326,o),
(244,374,c),
(315,408,o),
(358,461,o),
(358,556,cs),
(358,650,o),
(305,724,o),
(215,724,cs),
(121,724,o),
(68,649,o),
(68,552,cs),
(68,469,o),
(119,411,o),
(192,376,c),
(102,338,o),
(50,273,o),
(50,171,cs),
(50,61,o),
(113,-10,o),
(216,-10,cs)
);
},
{
closed = 1;
nodes = (
(125,15,o),
(78,77,o),
(78,170,cs),
(78,253,o),
(113,321,o),
(217,362,c),
(315,312,o),
(348,259,o),
(348,170,cs),
(348,70,o),
(293,15,o),
(216,15,cs)
);
},
{
closed = 1;
nodes = (
(137,428,o),
(96,471,o),
(96,558,cs),
(96,641,o),
(141,699,o),
(215,699,cs),
(297,699,o),
(330,627,o),
(330,556,cs),
(330,469,o),
(307,430,o),
(219,388,c)
);
}
);
width = 425;
},
{
layerId = "1D4F67F9-897D-45AD-B7F0-CA61A6862C03";
shapes = (
{
closed = 1;
nodes = (
(405,-10,o),
(489,50,o),
(489,164,cs),
(489,267,o),
(441,317,o),
(319,374,c),
(419,417,o),
(468,470,o),
(468,562,cs),
(468,653,o),
(406,724,o),
(281,724,cs),
(173,724,o),
(95,661,o),
(95,560,cs),
(95,463,o),
(155,419,o),
(249,376,c),
(137,334,o),
(70,271,o),
(70,169,cs),
(70,57,o),
(138,-10,o),
(276,-10,cs)
);
},
{
closed = 1;
nodes = (
(158,15,o),
(98,71,o),
(98,169,cs),
(98,254,o),
(159,325,o),
(284,362,c),
(430,301,o),
(461,245,o),
(461,164,cs),
(461,62,o),
(387,15,o),
(277,15,cs)
);
},
{
closed = 1;
nodes = (
(179,433,o),
(123,469,o),
(123,560,cs),
(123,646,o),
(185,699,o),
(282,699,cs),
(397,699,o),
(440,631,o),
(440,562,cs),
(440,478,o),
(395,427,o),
(285,387,c)
);
}
);
width = 559;
},
{
layerId = "A0CCC833-A561-4F2A-AF73-A35187C9FE5B";
shapes = (
{
closed = 1;
nodes = (
(336,-10,o),
(409,60,o),
(409,178,cs),
(409,283,o),
(358,335,o),
(281,379,c),
(345,415,o),
(386,466,o),
(386,558,cs),
(386,655,o),
(328,724,o),
(224,724,cs),
(106,724,o),
(52,646,o),
(52,548,cs),
(52,459,o),
(95,408,o),
(155,367,c),
(89,331,o),
(35,275,o),
(35,173,cs),
(35,70,o),
(95,-10,o),
(218,-10,cs)
);
},
{
closed = 1;
nodes = (
(154,39,o),
(117,89,o),
(117,176,cs),
(117,251,o),
(144,307,o),
(192,342,c),
(286,285,o),
(324,237,o),
(324,167,cs),
(324,85,o),
(282,39,o),
(220,39,cs)
);
},
{
closed = 1;
nodes = (
(175,442,o),
(136,481,o),
(136,560,cs),
(136,629,o),
(166,675,o),
(222,675,cs),
(283,675,o),
(309,618,o),
(309,556,cs),
(309,485,o),
(291,438,o),
(242,401,c)
);
}
);
width = 442;
}
);
script = "";
subCategory = "Decimal Digit";
unicode = 56;
}
{
category = Number;
glyphname = nine;
layers = (
{
layerId = "E17BEC9D-CAAD-449F-91D9-03766E30097E";
shapes = (
{
closed = 1;
nodes = (
(446,-9,o),
(532,152,o),
(532,382,cs),
(532,623,o),
(421,724,o),
(269,724,cs),
(119,724,o),
(29,629,o),
(29,485,cs),
(29,350,o),
(111,275,o),
(226,275,cs),
(293,275,o),
(330,298,o),
(360,331,c),
(353,141,o),
(318,60,o),
(243,60,cs),
(172,60,o),
(149,112,o),
(126,193,c),
(74,185,o),
(55,147,o),
(55,115,cs),
(55,47,o),
(106,-9,o),
(233,-9,c)
);
},
{
closed = 1;
nodes = (
(228,357,o),
(200,409,o),
(200,488,cs),
(200,603,o),
(228,648,o),
(279,648,cs),
(334,648,o),
(358,586,o),
(359,407,c),
(336,369,o),
(313,357,o),
(282,357,cs)
);
}
);
width = 569;
},
{
layerId = UUID0;
shapes = (
{
closed = 1;
nodes = (
(421,-11,o),
(498,178,o),
(498,388,c),
(498,623,o),
(400,724,o),
(265,724,cs),
(131,724,o),
(51,622,o),
(51,478,cs),
(51,343,o),
(132,275,o),
(248,275,cs),
(318,275,o),
(366,308,o),
(395,343,c),
(388,142,o),
(339,44,o),
(228,44,cs),
(165,44,o),
(130,81,o),
(112,123,c),
(97,118,o),
(82,100,o),
(82,75,cs),
(82,33,o),
(114,-11,o),
(227,-11,c)
);
},
{
closed = 1;
nodes = (
(193,334,o),
(154,378,o),
(154,488,cs),
(154,605,o),
(195,669,o),
(265,669,cs),
(342,669,o),
(393,593,o),
(396,415,c),
(378,372,o),
(335,334,o),
(270,334,cs)
);
}
);
width = 559;
},
{
layerId = "75A83886-EED5-4C31-9670-660514D8A4F6";
shapes = (
{
closed = 1;
nodes = (
(367,-10,o),
(439,159,o),
(439,388,c),
(439,633,o),
(346,724,o),
(219,724,cs),
(94,724,o),
(19,628,o),
(19,485,cs),
(19,351,o),
(87,277,o),
(181,277,cs),
(237,277,o),
(266,299,o),
(293,335,c),
(287,153,o),
(255,56,o),
(196,56,cs),
(137,56,o),
(117,110,o),
(100,175,c),
(56,167,o),
(41,134,o),
(41,104,cs),
(41,43,o),
(83,-10,o),
(189,-10,c)
);
},
{
closed = 1;
nodes = (
(187,351,o),
(166,403,o),
(166,488,cs),
(166,599,o),
(189,655,o),
(228,655,cs),
(269,655,o),
(292,590,o),
(293,400,c),
(274,369,o),
(253,351,o),
(227,350,c)
);
}
);
width = 466;
},
{
layerId = "C91144B6-58F5-45F2-9CE4-7ED6CE127FD4";
shapes = (
{
closed = 1;
nodes = (
(302,-13,o),
(366,89,o),
(366,388,cs),
(366,635,o),
(292,724,o),
(198,724,cs),
(103,724,o),
(51,639,o),
(51,484,cs),
(51,351,o),
(113,285,o),
(205,285,cs),
(281,285,o),
(328,339,o),
(338,357,c),
(332,116,o),
(287,12,o),
(179,12,cs),
(125,12,o),
(97,48,o),
(85,80,c),
(79,77,o),
(76,70,o),
(76,55,cs),
(76,22,o),
(114,-13,o),
(178,-13,cs)
);
},
{
closed = 1;
nodes = (
(122,310,o),
(79,368,o),
(79,488,cs),
(79,619,o),
(113,699,o),
(198,699,cs),
(285,699,o),
(338,603,o),
(338,397,c),
(312,352,o),
(273,310,o),
(205,310,cs)
);
}
);
width = 425;
},
{
layerId = "1D4F67F9-897D-45AD-B7F0-CA61A6862C03";
shapes = (
{
closed = 1;
nodes = (
(407,-11,o),
(478,124,o),
(478,388,cs),
(478,611,o),
(400,724,o),
(261,724,cs),
(134,724,o),
(71,627,o),
(71,494,cs),
(71,374,o),
(133,287,o),
(270,287,cs),
(359,287,o),
(411,324,o),
(450,358,c),
(450,136,o),
(376,14,o),
(235,14,cs),
(173,14,o),
(135,33,o),
(112,80,c),
(106,77,o),
(103,70,o),
(103,60,cs),
(103,29,o),
(141,-11,o),
(227,-11,cs)
);
},
{
closed = 1;
nodes = (
(157,312,o),
(99,384,o),
(99,494,cs),
(99,605,o),
(144,699,o),
(261,699,cs),
(385,699,o),
(450,589,o),
(450,389,c),
(402,346,o),
(353,312,o),
(266,312,cs)
);
}
);
width = 559;
},
{
layerId = "A0CCC833-A561-4F2A-AF73-A35187C9FE5B";
shapes = (
{
closed = 1;
nodes = (
(335,-11,o),
(398,153,o),
(398,388,c),
(398,626,o),
(315,724,o),
(207,724,cs),
(98,724,o),
(37,624,o),
(37,484,cs),
(37,352,o),
(102,281,o),
(193,281,cs),
(248,281,o),
(291,317,o),
(310,347,c),
(305,141,o),
(268,43,o),
(187,43,cs),
(130,43,o),
(105,80,o),
(91,121,c),
(71,114,o),
(61,95,o),
(61,70,cs),
(61,30,o),
(93,-11,o),
(180,-11,c)
);
},
{
closed = 1;
nodes = (
(153,333,o),
(125,384,o),
(125,488,cs),
(125,607,o),
(154,674,o),
(211,674,cs),
(273,674,o),
(309,593,o),
(312,399,c),
(296,372,o),
(269,333,o),
(215,330,c)
);
}
);
width = 442;
}
);
script = "";
subCategory = "Decimal Digit";
unicode = 57;
}
{
category = Punctuation;
glyphname = colon;
kernLeft = colon;
kernRight = colon;
layers = (
{
layerId = "E17BEC9D-CAAD-449F-91D9-03766E30097E";
shapes = (
{
closed = 1;
nodes = (
(209,370,o),
(254,392,o),
(254,459,cs),
(254,527,o),
(209,548,o),
(158,548,cs),
(104,548,o),
(62,527,o),
(62,459,cs),
(62,392,o),
(104,370,o),
(158,370,cs)
);
},
{
closed = 1;
nodes = (
(209,-9,o),
(254,13,o),
(254,80,cs),
(254,148,o),
(209,169,o),
(158,169,cs),
(104,169,o),
(62,148,o),
(62,80,cs),
(62,13,o),
(104,-9,o),
(158,-9,cs)
);
}
);
width = 317;
},
{
layerId = UUID0;
shapes = (
{
closed = 1;
nodes = (
(178,405,o),
(207,422,o),
(207,473,cs),
(207,525,o),
(178,541,o),
(144,541,cs),
(109,541,o),
(81,525,o),
(81,473,cs),
(81,422,o),
(109,405,o),
(144,405,cs)
);
},
{
closed = 1;
nodes = (
(178,-7,o),
(207,10,o),
(207,61,cs),
(207,113,o),
(178,129,o),
(144,129,cs),
(109,129,o),
(81,113,o),
(81,61,cs),
(81,10,o),
(109,-7,o),
(144,-7,cs)
);
}
);
width = 286;
},
{
layerId = "58AAA307-6DE9-4107-B80A-C255AE991657";
shapes = (
{
closed = 1;
nodes = (
(196,385,o),
(234,405,o),
(234,465,cs),
(234,526,o),
(196,545,o),
(152,545,cs),
(106,545,o),
(70,526,o),
(70,465,cs),
(70,405,o),
(106,385,o),
(152,385,cs)
);
},
{
closed = 1;
nodes = (
(196,-8,o),
(234,12,o),
(234,72,cs),
(234,133,o),
(196,152,o),
(152,152,cs),
(106,152,o),
(70,133,o),
(70,72,cs),
(70,12,o),
(106,-8,o),
(152,-8,cs)
);
}
);
width = 304;
},
{
layerId = "75A83886-EED5-4C31-9670-660514D8A4F6";
shapes = (
{
closed = 1;
nodes = (
(174,380,o),
(212,400,o),
(212,462,cs),
(212,524,o),
(174,544,o),
(132,544,cs),
(87,544,o),
(52,524,o),
(52,462,cs),
(52,400,o),
(87,380,o),
(132,380,cs)
);
},
{
closed = 1;
nodes = (
(174,-8,o),
(212,12,o),
(212,74,cs),
(212,136,o),
(174,156,o),
(132,156,cs),
(87,156,o),
(52,136,o),
(52,74,cs),
(52,12,o),
(87,-8,o),
(132,-8,cs)
);
}
);
width = 265;
},
{
layerId = "C91144B6-58F5-45F2-9CE4-7ED6CE127FD4";
shapes = (
{
closed = 1;
nodes = (
(108,430,o),
(122,439,o),
(122,469,cs),
(122,499,o),
(108,508,o),
(94,508,cs),
(77,508,o),
(64,499,o),
(64,469,cs),
(64,439,o),
(77,430,o),
(94,430,cs)
);
},
{
closed = 1;
nodes = (
(108,-5,o),
(122,4,o),
(122,34,cs),
(122,64,o),
(108,73,o),
(94,73,cs),
(77,73,o),
(64,64,o),
(64,34,cs),
(64,4,o),
(77,-5,o),
(94,-5,cs)
);
}
);
width = 186;
},
{
layerId = "1D4F67F9-897D-45AD-B7F0-CA61A6862C03";
shapes = (
{
closed = 1;
nodes = (
(126,433,o),
(139,442,o),
(139,473,cs),
(139,503,o),
(126,511,o),
(110,511,cs),
(95,511,o),
(81,503,o),
(81,473,cs),
(81,442,o),
(95,433,o),
(110,433,cs)
);
},
{
closed = 1;
nodes = (
(126,-5,o),
(139,4,o),
(139,35,cs),
(139,65,o),
(126,73,o),
(110,73,cs),
(95,73,o),
(81,65,o),
(81,35,cs),
(81,4,o),
(95,-5,o),
(110,-5,cs)
);
}
);
width = 224;
},
{
layerId = "A0CCC833-A561-4F2A-AF73-A35187C9FE5B";
shapes = (
{
closed = 1;
nodes = (
(137,409,o),
(161,423,o),
(161,470,cs),
(161,517,o),
(137,531,o),
(110,531,cs),
(81,531,o),
(59,517,o),
(59,470,cs),
(59,423,o),
(81,409,o),
(110,409,cs)
);
},
{
closed = 1;
nodes = (
(137,-7,o),
(161,8,o),
(161,55,cs),
(161,102,o),
(137,117,o),
(110,117,cs),
(81,117,o),
(59,102,o),
(59,55,cs),
(59,8,o),
(81,-7,o),
(110,-7,cs)
);
}
);
width = 220;
},
{
layerId = "BD18C76C-096B-4C52-83B4-518A374966BE";
shapes = (
{
closed = 1;
nodes = (
(158,392,o),
(190,410,o),
(190,465,cs),
(190,521,o),
(158,538,o),
(122,538,cs),
(84,538,o),
(55,521,o),
(55,465,cs),
(55,410,o),
(84,392,o),
(122,392,cs)
);
},
{
closed = 1;
nodes = (
(158,-7,o),
(190,10,o),
(190,66,cs),
(190,121,o),
(158,139,o),
(122,139,cs),
(84,139,o),
(55,121,o),
(55,66,cs),
(55,10,o),
(84,-7,o),
(122,-7,cs)
);
}
);
width = 246;
}
);
script = "";
subCategory = Other;
unicode = 58;
}
{
category = Punctuation;
glyphname = semicolon;
kernLeft = colon;
kernRight = colon;
layers = (
{
layerId = "E17BEC9D-CAAD-449F-91D9-03766E30097E";
shapes = (
{
closed = 1;
nodes = (
(58,-154,l),
(196,-119,o),
(248,-43,o),
(248,42,cs),
(248,119,o),
(218,169,o),
(151,169,cs),
(107,169,o),
(68,143,o),
(68,93,cs),
(68,-1,o),
(141,11,o),
(141,-25,c),
(141,-63,o),
(111,-74,o),
(58,-95,c)
);
},
{
closed = 1;
nodes = (
(209,370,o),
(254,392,o),
(254,459,cs),
(254,527,o),
(209,548,o),
(158,548,cs),
(104,548,o),
(62,527,o),
(62,459,cs),
(62,392,o),
(104,370,o),
(158,370,cs)
);
}
);
width = 317;
},
{
layerId = UUID0;
shapes = (
{
closed = 1;
nodes = (
(48,-154,l),
(167,-119,o),
(212,-43,o),
(212,42,cs),
(212,98,o),
(176,129,o),
(135,129,cs),
(98,129,o),
(70,108,o),
(70,70,cs),
(70,9,o),
(143,18,o),
(143,-22,c),
(143,-61,o),
(113,-91,o),
(48,-112,c)
);
},
{
closed = 1;
nodes = (
(178,405,o),
(207,422,o),
(207,473,cs),
(207,525,o),
(178,541,o),
(144,541,cs),
(109,541,o),
(81,525,o),
(81,473,cs),
(81,422,o),
(109,405,o),
(144,405,cs)
);
}
);
width = 286;
},
{
layerId = "58AAA307-6DE9-4107-B80A-C255AE991657";
shapes = (
{
closed = 1;
nodes = (
(55,-154,l),
(185,-119,o),
(234,-43,o),
(234,42,cs),
(234,110,o),
(198,152,o),
(142,152,cs),
(101,152,o),
(70,128,o),
(70,83,cs),
(70,3,o),
(143,14,o),
(143,-24,c),
(143,-63,o),
(113,-81,o),
(55,-102,c)
);
},
{
closed = 1;
nodes = (
(196,385,o),
(234,405,o),
(234,465,cs),
(234,526,o),
(196,545,o),
(152,545,cs),
(106,545,o),
(70,526,o),
(70,465,cs),
(70,405,o),
(106,385,o),
(152,385,cs)
);
}
);
width = 304;
},
{
layerId = "75A83886-EED5-4C31-9670-660514D8A4F6";
shapes = (
{
closed = 1;
nodes = (
(48,-154,l),
(164,-120,o),
(207,-45,o),
(207,38,cs),
(207,110,o),
(182,156,o),
(126,156,cs),
(89,156,o),
(57,131,o),
(57,86,cs),
(57,2,o),
(118,11,o),
(118,-25,cs),
(118,-63,o),
(93,-80,o),
(48,-100,c)
);
},
{
closed = 1;
nodes = (
(175,380,o),
(212,400,o),
(212,462,cs),
(212,524,o),
(175,544,o),
(132,544,cs),
(87,544,o),
(52,524,o),
(52,462,cs),
(52,400,o),
(87,380,o),
(132,380,cs)
);
}
);
width = 265;
},
{
layerId = "C91144B6-58F5-45F2-9CE4-7ED6CE127FD4";
shapes = (
{
closed = 1;
nodes = (
(34,-154,l),
(105,-124,o),
(132,-58,o),
(132,0,cs),
(132,56,o),
(108,73,o),
(86,73,cs),
(69,73,o),
(56,62,o),
(56,47,cs),
(56,16,o),
(100,11,o),
(100,-26,cs),
(100,-61,o),
(81,-110,o),
(34,-128,c)
);
},
{
closed = 1;
nodes = (
(109,430,o),
(122,439,o),
(122,469,cs),
(122,499,o),
(109,508,o),
(94,508,cs),
(77,508,o),
(64,499,o),
(64,469,cs),
(64,439,o),
(77,430,o),
(94,430,cs)
);
}
);
width = 186;
},
{
layerId = "1D4F67F9-897D-45AD-B7F0-CA61A6862C03";
shapes = (
{
closed = 1;
nodes = (
(42,-154,l),
(123,-127,o),
(154,-67,o),
(154,0,cs),
(154,52,o),
(130,73,o),
(103,73,cs),
(84,73,o),
(76,60,o),
(76,42,cs),
(76,17,o),
(123,4,o),
(123,-30,cs),
(123,-61,o),
(101,-115,o),
(42,-132,c)
);
},
{
closed = 1;
nodes = (
(126,433,o),
(139,442,o),
(139,473,cs),
(139,503,o),
(126,511,o),
(110,511,cs),
(95,511,o),
(81,503,o),
(81,473,cs),
(81,442,o),
(95,433,o),
(110,433,cs)
);
}
);
width = 224;
},
{
layerId = "A0CCC833-A561-4F2A-AF73-A35187C9FE5B";
shapes = (
{
closed = 1;
nodes = (
(39,-154,l),
(130,-122,o),
(164,-52,o),
(164,26,cs),
(164,84,o),
(140,117,o),
(103,117,cs),
(77,117,o),
(56,97,o),
(56,64,cs),
(56,10,o),
(108,11,o),
(108,-26,cs),
(108,-62,o),
(86,-97,o),
(39,-116,c)
);
},
{
closed = 1;
nodes = (
(138,409,o),
(161,423,o),
(161,470,cs),
(161,517,o),
(138,531,o),
(110,531,cs),
(81,531,o),
(59,517,o),
(59,470,cs),
(59,423,o),
(81,409,o),
(110,409,cs)
);
}
);
width = 220;
},
{
layerId = "BD18C76C-096B-4C52-83B4-518A374966BE";
shapes = (
{
closed = 1;
nodes = (
(44,-154,l),
(149,-121,o),
(188,-48,o),
(188,33,cs),
(188,99,o),
(164,139,o),
(116,139,cs),
(84,139,o),
(57,116,o),
(57,76,cs),
(57,5,o),
(114,11,o),
(114,-25,cs),
(114,-62,o),
(90,-87,o),
(44,-107,c)
);
},
{
closed = 1;
nodes = (
(159,392,o),
(190,410,o),
(190,465,cs),
(190,521,o),
(159,538,o),
(122,538,cs),
(84,538,o),
(55,521,o),
(55,465,cs),
(55,410,o),
(84,392,o),
(122,392,cs)
);
}
);
width = 246;
}
);
script = "";
subCategory = Other;
unicode = 59;
}
{
category = Symbol;
glyphname = less;
layers = (
{
layerId = "E17BEC9D-CAAD-449F-91D9-03766E30097E";
shapes = (
{
closed = 1;
nodes = (
(509,177,l),
(177,357,l),
(509,539,l),
(509,626,l),
(60,380,l),
(60,335,l),
(509,90,l)
);
}
);
width = 569;
},
{
layerId = UUID0;
shapes = (
{
closed = 1;
nodes = (
(494,177,l),
(158,357,l),
(494,539,l),
(494,606,l),
(65,375,l),
(65,340,l),
(494,110,l)
);
}
);
width = 559;
},
{
layerId = "58AAA307-6DE9-4107-B80A-C255AE991657";
shapes = (
{
closed = 1;
nodes = (
(494,183,l),
(172,357,l),
(494,533,l),
(494,612,l),
(65,378,l),
(65,337,l),
(494,104,l)
);
}
);
width = 559;
},
{
layerId = "75A83886-EED5-4C31-9670-660514D8A4F6";
shapes = (
{
closed = 1;
nodes = (
(391,186,l),
(131,357,l),
(391,530,l),
(391,613,l),
(34,379,l),
(34,336,l),
(391,103,l)
);
}
);
width = 425;
},
{
layerId = "C91144B6-58F5-45F2-9CE4-7ED6CE127FD4";
shapes = (
{
closed = 1;
nodes = (
(375,153,l),
(81,357,l),
(375,563,l),
(375,599,l),
(50,371,l),
(50,344,l),
(375,117,l)
);
}
);
width = 425;
},
{
layerId = "1D4F67F9-897D-45AD-B7F0-CA61A6862C03";
shapes = (
{
closed = 1;
nodes = (
(494,149,l),
(95,357,l),
(494,567,l),
(494,598,l),
(65,371,l),
(65,344,l),
(494,118,l)
);
}
);
width = 559;
},
{
layerId = "A0CCC833-A561-4F2A-AF73-A35187C9FE5B";
shapes = (
{
closed = 1;
nodes = (
(382,177,l),
(119,357,l),
(382,540,l),
(382,605,l),
(43,375,l),
(43,340,l),
(382,111,l)
);
}
);
width = 425;
},
{
layerId = "BD18C76C-096B-4C52-83B4-518A374966BE";
shapes = (
{
closed = 1;
nodes = (
(387,182,l),
(126,357,l),
(387,534,l),
(387,610,l),
(38,377,l),
(38,338,l),
(387,106,l)
);
}
);
width = 425;
}
);
script = "";
subCategory = Math;
unicode = 60;
}
{
category = Symbol;
glyphname = equal;
layers = (
{
layerId = "E17BEC9D-CAAD-449F-91D9-03766E30097E";
shapes = (
{
closed = 1;
nodes = (
(513,424,l),
(513,502,l),
(57,502,l),
(57,424,l)
);
},
{
closed = 1;
nodes = (
(513,212,l),
(513,290,l),
(57,290,l),
(57,212,l)
);
}
);
width = 569;
},
{
layerId = UUID0;
shapes = (
{
closed = 1;
nodes = (
(494,426,l),
(494,485,l),
(65,485,l),
(65,426,l)
);
},
{
closed = 1;
nodes = (
(494,229,l),
(494,288,l),
(65,288,l),
(65,229,l)
);
}
);
width = 559;
},
{
layerId = "75A83886-EED5-4C31-9670-660514D8A4F6";
shapes = (
{
closed = 1;
nodes = (
(394,408,l),
(394,481,l),
(31,481,l),
(31,408,l)
);
},
{
closed = 1;
nodes = (
(394,233,l),
(394,306,l),
(31,306,l),
(31,233,l)
);
}
);
width = 425;
},
{
layerId = "C91144B6-58F5-45F2-9CE4-7ED6CE127FD4";
shapes = (
{
closed = 1;
nodes = (
(373,443,l),
(373,471,l),
(51,471,l),
(51,443,l)
);
},
{
closed = 1;
nodes = (
(373,244,l),
(373,272,l),
(51,272,l),
(51,244,l)
);
}
);
width = 425;
},
{
layerId = "1D4F67F9-897D-45AD-B7F0-CA61A6862C03";
shapes = (
{
closed = 1;
nodes = (
(490,451,l),
(490,479,l),
(67,479,l),
(67,451,l)
);
},
{
closed = 1;
nodes = (
(490,235,l),
(490,263,l),
(67,263,l),
(67,235,l)
);
}
);
width = 559;
},
{
layerId = "A0CCC833-A561-4F2A-AF73-A35187C9FE5B";
shapes = (
{
closed = 1;
nodes = (
(382,423,l),
(382,481,l),
(43,481,l),
(43,423,l)
);
},
{
closed = 1;
nodes = (
(382,233,l),
(382,291,l),
(43,291,l),
(43,233,l)
);
}
);
width = 425;
}
);
script = "";
subCategory = Math;
unicode = 61;
}
{
category = Symbol;
glyphname = greater;
layers = (
{
layerId = "E17BEC9D-CAAD-449F-91D9-03766E30097E";
shapes = (
{
closed = 1;
nodes = (
(509,335,l),
(509,380,l),
(60,626,l),
(60,539,l),
(392,357,l),
(60,177,l),
(60,90,l)
);
}
);
width = 569;
},
{
layerId = UUID0;
shapes = (
{
closed = 1;
nodes = (
(494,340,l),
(494,375,l),
(65,606,l),
(65,539,l),
(401,357,l),
(65,177,l),
(65,110,l)
);
}
);
width = 559;
},
{
layerId = "75A83886-EED5-4C31-9670-660514D8A4F6";
shapes = (
{
closed = 1;
nodes = (
(391,336,l),
(391,379,l),
(34,613,l),
(34,530,l),
(293,357,l),
(34,186,l),
(34,103,l)
);
}
);
width = 425;
},
{
layerId = "C91144B6-58F5-45F2-9CE4-7ED6CE127FD4";
shapes = (
{
closed = 1;
nodes = (
(375,344,l),
(375,371,l),
(50,599,l),
(50,563,l),
(344,357,l),
(50,153,l),
(50,117,l)
);
}
);
width = 425;
},
{
layerId = "1D4F67F9-897D-45AD-B7F0-CA61A6862C03";
shapes = (
{
closed = 1;
nodes = (
(494,344,l),
(494,371,l),
(65,598,l),
(65,567,l),
(460,357,l),
(65,149,l),
(65,118,l)
);
}
);
width = 559;
},
{
layerId = "A0CCC833-A561-4F2A-AF73-A35187C9FE5B";
shapes = (
{
closed = 1;
nodes = (
(382,340,l),
(382,375,l),
(43,605,l),
(43,540,l),
(305,357,l),
(43,177,l),
(43,111,l)
);
}
);
width = 425;
}
);
script = "";
subCategory = Math;
unicode = 62;
}
{
category = Punctuation;
color = 10;
glyphname = question;
kernLeft = T;
layers = (
{
layerId = "E17BEC9D-CAAD-449F-91D9-03766E30097E";
shapes = (
{
closed = 1;
nodes = (
(215,238,l),
(300,238,l),
(323,323,l),
(462,381,o),
(522,433,o),
(522,538,cs),
(522,655,o),
(421,724,o),
(261,724,cs),
(101,724,o),
(29,657,o),
(29,590,cs),
(29,524,o),
(87,506,o),
(194,506,c),
(194,612,o),
(218,656,o),
(262,656,cs),
(302,656,o),
(326,619,o),
(326,553,cs),
(326,468,o),
(303,404,o),
(192,350,c)
);
},
{
closed = 1;
nodes = (
(305,-9,o),
(349,14,o),
(349,83,cs),
(349,153,o),
(305,175,o),
(255,175,cs),
(203,175,o),
(162,153,o),
(162,83,cs),
(162,14,o),
(203,-9,o),
(255,-9,cs)
);
}
);
width = 557;
},
{
layerId = UUID0;
shapes = (
{
closed = 1;
nodes = (
(188,201,l),
(242,201,l),
(245,314,l),
(364,365,o),
(436,433,o),
(436,543,cs),
(436,657,o),
(346,724,o),
(220,724,cs),
(93,724,o),
(33,674,o),
(33,609,cs),
(33,568,o),
(68,546,o),
(116,546,c),
(116,615,o),
(145,675,o),
(228,675,cs),
(306,675,o),
(339,629,o),
(339,560,cs),
(339,480,o),
(303,401,o),
(184,353,c)
);
},
{
closed = 1;
nodes = (
(247,-7,o),
(276,10,o),
(276,61,cs),
(276,113,o),
(247,129,o),
(213,129,cs),
(178,129,o),
(150,113,o),
(150,61,cs),
(150,10,o),
(178,-7,o),
(213,-7,cs)
);
}
);
width = 474;
},
{
associatedMasterId = UUID0;
attr = {
coordinates = (
152,
100
);
};
background = {
shapes = (
{
closed = 1;
nodes = (
(203.66,222.46,l),
(275.64,222.46,l),
(290.24,319.22,l),
(420.84,374.28,o),
(485.88,433,o),
(485.88,540.1,cs),
(485.88,655.84,o),
(389.5,724,o),
(243.78,724,cs),
(97.64,724,o),
(30.68,664.14,o),
(30.68,597.98,cs),
(30.68,542.48,o),
(79.02,522.8,o),
(161.24,522.8,c),
(161.24,613.26,o),
(187.34,663.98,o),
(247.72,663.98,cs),
(303.68,663.98,o),
(331.46,623.2,o),
(331.46,555.94,cs),
(331.46,473.04,o),
(303,402.74,o),
(188.64,351.26,c)
);
},
{
closed = 1;
nodes = (
(280.64,-8.16,o),
(318.34,12.32,o),
(318.34,73.76,cs),
(318.34,136.2,o),
(280.64,155.68,o),
(237.36,155.68,cs),
(192.5,155.68,o),
(156.96,136.2,o),
(156.96,73.76,cs),
(156.96,12.32,o),
(192.5,-8.16,o),
(237.36,-8.16,cs)
);
}
);
};
layerId = "d413079d-3e0e-494b-a938-5bf16e360a0a";
name = "SemiBold (intermediate)";
shapes = (
{
closed = 1;
nodes = (
(208,228,l),
(283,228,l),
(296,319,l),
(429,374,o),
(495,433,o),
(495,540,cs),
(495,656,o),
(391,724,o),
(250,724,cs),
(103,724,o),
(37,673,o),
(37,608,cs),
(37,561,o),
(96,538,o),
(178,538,c),
(178,606,o),
(198,664,o),
(258,664,cs),
(313,664,o),
(336,620,o),
(336,556,cs),
(336,477,o),
(309,397,o),
(195,351,c)
);
},
{
closed = 1;
nodes = (
(288,-8,o),
(326,12,o),
(326,72,cs),
(326,133,o),
(288,152,o),
(244,152,cs),
(198,152,o),
(162,133,o),
(162,72,cs),
(162,12,o),
(198,-8,o),
(244,-8,cs)
);
}
);
width = 550;
},
{
layerId = "75A83886-EED5-4C31-9670-660514D8A4F6";
shapes = (
{
closed = 1;
nodes = (
(187,231,l),
(250,231,l),
(273,323,l),
(389,379,o),
(442,434,o),
(442,540,cs),
(442,656,o),
(356,724,o),
(221,724,cs),
(87,724,o),
(28,664,o),
(28,603,cs),
(28,543,o),
(78,525,o),
(167,525,c),
(167,612,o),
(187,661,o),
(222,661,cs),
(254,661,o),
(273,615,o),
(273,552,cs),
(273,471,o),
(258,395,o),
(164,349,c)
);
},
{
closed = 1;
nodes = (
(259,-8,o),
(296,12,o),
(296,74,cs),
(296,136,o),
(259,156,o),
(216,156,cs),
(171,156,o),
(136,136,o),
(136,74,cs),
(136,12,o),
(171,-8,o),
(216,-8,cs)
);
}
);
width = 480;
},
{
layerId = "C91144B6-58F5-45F2-9CE4-7ED6CE127FD4";
shapes = (
{
closed = 1;
nodes = (
(149,167,l),
(171,167,l),
(173,323,l),
(261,369,o),
(306,438,o),
(306,552,cs),
(306,664,o),
(250,724,o),
(167,724,cs),
(76,724,o),
(38,662,o),
(38,612,cs),
(38,581,o),
(49,569,o),
(59,569,c),
(59,642,o),
(86,699,o),
(167,699,cs),
(240,699,o),
(278,642,o),
(278,550,cs),
(278,453,o),
(238,385,o),
(146,337,c)
);
},
{
closed = 1;
nodes = (
(178,-5,o),
(192,4,o),
(192,34,cs),
(192,64,o),
(178,73,o),
(161,73,cs),
(146,73,o),
(133,64,o),
(133,34,cs),
(133,4,o),
(146,-5,o),
(161,-5,cs)
);
}
);
width = 352;
},
{
layerId = "1D4F67F9-897D-45AD-B7F0-CA61A6862C03";
shapes = (
{
closed = 1;
nodes = (
(183,167,l),
(205,167,l),
(208,323,l),
(317,375,o),
(373,441,o),
(373,551,cs),
(373,650,o),
(307,724,o),
(199,724,cs),
(72,724,o),
(35,646,o),
(35,611,cs),
(35,584,o),
(43,569,o),
(57,569,c),
(57,629,o),
(90,699,o),
(201,699,cs),
(290,699,o),
(345,638,o),
(345,551,cs),
(345,448,o),
(292,389,o),
(180,337,c)
);
},
{
closed = 1;
nodes = (
(209,-5,o),
(222,4,o),
(222,35,cs),
(222,65,o),
(209,73,o),
(193,73,cs),
(178,73,o),
(164,65,o),
(164,35,cs),
(164,4,o),
(178,-5,o),
(193,-5,cs)
);
}
);
width = 415;
},
{
layerId = "A0CCC833-A561-4F2A-AF73-A35187C9FE5B";
shapes = (
{
closed = 1;
nodes = (
(164,209,l),
(207,209,l),
(217,323,l),
(317,373,o),
(365,436,o),
(365,547,cs),
(365,660,o),
(298,724,o),
(192,724,cs),
(90,724,o),
(34,674,o),
(34,612,cs),
(34,569,o),
(64,553,o),
(109,553,c),
(109,627,o),
(130,676,o),
(191,676,cs),
(247,676,o),
(275,620,o),
(275,548,cs),
(275,461,o),
(246,394,o),
(155,346,c)
);
},
{
closed = 1;
nodes = (
(214,-7,o),
(238,8,o),
(238,55,cs),
(238,102,o),
(214,117,o),
(185,117,cs),
(157,117,o),
(135,102,o),
(135,55,cs),
(135,8,o),
(157,-7,o),
(185,-7,cs)
);
}
);
width = 412;
}
);
script = "";
subCategory = Other;
unicode = 63;
}
{
category = Symbol;
glyphname = at;
layers = (
{
layerId = "E17BEC9D-CAAD-449F-91D9-03766E30097E";
shapes = (
{
closed = 1;
nodes = (
(621,-142,o),
(711,-100,o),
(790,-48,c),
(765,-2,l),
(700,-44,o),
(605,-82,o),
(485,-82,cs),
(288,-82,o),
(153,21,o),
(153,245,cs),
(153,506,o),
(336,658,o),
(523,658,cs),
(683,658,o),
(801,565,o),
(801,376,cs),
(801,212,o),
(740,135,o),
(691,135,cs),
(677,135,o),
(654,144,o),
(654,205,cs),
(654,213,o),
(656,246,o),
(661,274,cs),
(701,520,l),
(663,520,l),
(621,499,l),
(605,513,o),
(557,529,o),
(513,529,cs),
(332,529,o),
(245,377,o),
(245,248,cs),
(245,136,o),
(313,77,o),
(402,77,cs),
(475,77,o),
(518,117,o),
(546,169,c),
(553,169,l),
(577,95,o),
(620,77,o),
(679,77,cs),
(785,77,o),
(882,189,o),
(882,382,cs),
(882,599,o),
(738,714,o),
(530,714,cs),
(289,714,o),
(51,552,o),
(51,249,cs),
(51,-22,o),
(253,-142,o),
(474,-142,cs)
);
},
{
closed = 1;
nodes = (
(412,139,o),
(390,167,o),
(390,237,cs),
(390,327,o),
(427,483,o),
(514,483,cs),
(533,483,o),
(557,474,o),
(565,456,c),
(525,246,ls),
(514,190,o),
(494,139,o),
(445,139,cs)
);
}
);
width = 921;
},
{
layerId = UUID0;
shapes = (
{
closed = 1;
nodes = (
(555,-142,o),
(653,-93,o),
(719,-43,c),
(696,-7,l),
(638,-49,o),
(551,-90,o),
(442,-90,cs),
(281,-90,o),
(144,-2,o),
(144,220,cs),
(144,494,o),
(329,663,o),
(524,663,cs),
(690,663,o),
(807,570,o),
(807,395,cs),
(807,226,o),
(737,130,o),
(678,130,cs),
(646,130,o),
(617,151,o),
(617,198,cs),
(617,225,o),
(624,265,o),
(624,265,c),
(675,520,l),
(651,520,l),
(611,499,l),
(591,515,o),
(560,529,o),
(517,529,cs),
(333,529,o),
(262,355,o),
(262,248,cs),
(262,131,o),
(333,77,o),
(414,77,cs),
(482,77,o),
(521,116,o),
(549,168,c),
(554,168,l),
(573,111,o),
(613,77,o),
(672,77,cs),
(764,77,o),
(868,199,o),
(868,392,cs),
(868,573,o),
(754,714,o),
(530,714,cs),
(257,714,o),
(65,501,o),
(65,218,cs),
(65,-24,o),
(218,-142,o),
(432,-142,cs)
);
},
{
closed = 1;
nodes = (
(386,130,o),
(355,164,o),
(355,234,cs),
(355,319,o),
(401,488,o),
(521,488,cs),
(545,488,o),
(569,477,o),
(577,458,c),
(539,255,ls),
(528,194,o),
(499,130,o),
(431,130,cs)
);
}
);
width = 921;
},
{
layerId = "58AAA307-6DE9-4107-B80A-C255AE991657";
shapes = (
{
closed = 1;
nodes = (
(593,-142,o),
(704,-98,o),
(774,-45,c),
(750,-7,l),
(688,-49,o),
(588,-91,o),
(480,-91,cs),
(300,-91,o),
(149,2,o),
(149,238,cs),
(149,501,o),
(333,663,o),
(523,663,cs),
(684,663,o),
(801,571,o),
(801,388,cs),
(801,224,o),
(739,135,o),
(686,135,c),
(664,135,o),
(638,147,o),
(638,202,c),
(638,218,o),
(642,254,o),
(645,270,c),
(687,520,l),
(663,520,l),
(621,499,l),
(600,515,o),
(567,529,o),
(521,529,c),
(327,529,o),
(252,355,o),
(252,248,cs),
(252,131,o),
(325,77,o),
(409,77,cs),
(479,77,o),
(519,119,o),
(547,171,c),
(553,171,l),
(575,104,o),
(617,77,o),
(676,77,c),
(776,77,o),
(882,193,o),
(882,392,c),
(882,573,o),
(761,714,o),
(530,714,cs),
(253,714,o),
(51,512,o),
(51,244,cs),
(51,-15,o),
(238,-142,o),
(466,-142,cs)
);
},
{
closed = 1;
nodes = (
(401,135,o),
(375,172,o),
(375,238,cs),
(375,318,o),
(416,485,o),
(517,485,c),
(538,485,o),
(562,475,o),
(570,457,c),
(530,253,ls),
(519,195,o),
(496,135,o),
(439,135,cs)
);
}
);
width = 921;
},
{
layerId = "75A83886-EED5-4C31-9670-660514D8A4F6";
shapes = (
{
closed = 1;
nodes = (
(518,-142,o),
(593,-98,o),
(659,-47,c),
(638,-4,l),
(584,-46,o),
(505,-86,o),
(405,-86,cs),
(241,-86,o),
(128,15,o),
(128,237,cs),
(128,501,o),
(280,662,o),
(436,662,cs),
(570,662,o),
(668,566,o),
(668,379,cs),
(668,214,o),
(617,132,o),
(576,132,cs),
(565,132,o),
(546,144,o),
(546,203,cs),
(546,214,o),
(547,246,o),
(551,275,cs),
(584,520,l),
(553,520,l),
(518,499,l),
(505,513,o),
(464,529,o),
(428,529,cs),
(277,529,o),
(204,376,o),
(204,248,cs),
(204,135,o),
(261,77,o),
(335,77,cs),
(396,77,o),
(432,118,o),
(455,170,c),
(461,170,l),
(481,99,o),
(517,77,o),
(566,77,cs),
(654,77,o),
(735,192,o),
(735,384,cs),
(735,594,o),
(615,714,o),
(442,714,cs),
(241,714,o),
(43,543,o),
(43,240,cs),
(43,-24,o),
(211,-142,o),
(396,-142,cs)
);
},
{
closed = 1;
nodes = (
(344,135,o),
(325,164,o),
(325,236,cs),
(325,329,o),
(356,486,o),
(428,486,cs),
(444,486,o),
(464,475,o),
(471,458,c),
(438,246,ls),
(429,191,o),
(412,135,o),
(371,135,cs)
);
}
);
width = 767;
},
{
layerId = "C91144B6-58F5-45F2-9CE4-7ED6CE127FD4";
shapes = (
{
closed = 1;
nodes = (
(393,-142,o),
(461,-90,o),
(509,-43,c),
(494,-22,l),
(451,-65,o),
(392,-117,o),
(310,-117,cs),
(173,-117,o),
(87,-25,o),
(87,197,cs),
(87,479,o),
(221,689,o),
(398,689,cs),
(555,689,o),
(621,558,o),
(621,392,cs),
(621,216,o),
(556,102,o),
(499,102,cs),
(456,102,o),
(446,137,o),
(446,194,cs),
(446,219,o),
(448,245,o),
(454,279,cs),
(496,520,l),
(486,520,l),
(466,495,l),
(453,508,o),
(429,529,o),
(391,529,cs),
(265,529,o),
(207,373,o),
(207,248,cs),
(207,129,o),
(248,77,o),
(310,77,cs),
(369,77,o),
(397,120,o),
(418,168,c),
(421,168,l),
(427,115,o),
(448,77,o),
(499,77,cs),
(573,77,o),
(649,208,o),
(649,394,cs),
(649,582,o),
(566,714,o),
(402,714,cs),
(204,714,o),
(59,495,o),
(59,191,cs),
(59,-32,o),
(151,-142,o),
(305,-142,cs)
);
},
{
closed = 1;
nodes = (
(265,102,o),
(235,140,o),
(235,246,cs),
(235,341,o),
(279,504,o),
(387,504,cs),
(424,504,o),
(447,486,o),
(458,467,c),
(420,245,ls),
(411,190,o),
(372,102,o),
(316,102,cs)
);
}
);
width = 697;
},
{
layerId = "1D4F67F9-897D-45AD-B7F0-CA61A6862C03";
shapes = (
{
closed = 1;
nodes = (
(507,-142,o),
(593,-91,o),
(653,-45,c),
(637,-26,l),
(582,-69,o),
(505,-117,o),
(394,-117,cs),
(211,-117,o),
(111,-24,o),
(111,192,cs),
(111,465,o),
(276,689,o),
(534,689,cs),
(701,689,o),
(822,567,o),
(822,394,cs),
(822,230,o),
(727,102,o),
(650,102,cs),
(595,102,o),
(575,135,o),
(575,184,cs),
(575,211,o),
(576,236,o),
(590,291,cs),
(647,520,l),
(638,520,l),
(614,497,l),
(591,514,o),
(549,529,o),
(513,529,cs),
(379,529,o),
(274,403,o),
(274,237,cs),
(274,124,o),
(329,77,o),
(400,77,cs),
(480,77,o),
(525,143,o),
(546,182,c),
(548,182,l),
(547,122,o),
(584,77,o),
(650,77,cs),
(744,77,o),
(850,209,o),
(850,392,cs),
(850,579,o),
(726,714,o),
(530,714,cs),
(285,714,o),
(83,511,o),
(83,186,cs),
(83,-36,o),
(194,-142,o),
(390,-142,cs)
);
},
{
closed = 1;
nodes = (
(344,102,o),
(302,144,o),
(302,235,cs),
(302,369,o),
(381,504,o),
(513,504,cs),
(555,504,o),
(590,486,o),
(606,473,c),
(548,235,ls),
(537,191,o),
(474,102,o),
(405,102,cs)
);
}
);
width = 921;
},
{
layerId = "A0CCC833-A561-4F2A-AF73-A35187C9FE5B";
shapes = (
{
closed = 1;
nodes = (
(447,-142,o),
(518,-94,o),
(574,-45,c),
(555,-11,l),
(509,-53,o),
(441,-96,o),
(351,-96,cs),
(204,-96,o),
(108,-3,o),
(108,214,cs),
(108,486,o),
(249,673,o),
(414,673,cs),
(546,673,o),
(640,568,o),
(640,386,cs),
(640,219,o),
(580,122,o),
(534,122,cs),
(512,122,o),
(489,144,o),
(489,198,cs),
(489,217,o),
(491,245,o),
(496,277,cs),
(534,520,l),
(515,520,l),
(484,499,l),
(468,514,o),
(438,529,o),
(407,529,cs),
(272,529,o),
(205,373,o),
(205,248,cs),
(205,134,o),
(257,77,o),
(320,77,cs),
(376,77,o),
(410,122,o),
(432,174,c),
(436,174,l),
(448,110,o),
(482,77,o),
(528,77,cs),
(606,77,o),
(686,201,o),
(686,390,cs),
(686,579,o),
(589,714,o),
(419,714,cs),
(220,714,o),
(52,516,o),
(52,212,cs),
(52,-28,o),
(177,-142,o),
(344,-142,cs)
);
},
{
closed = 1;
nodes = (
(302,122,o),
(277,155,o),
(277,232,cs),
(277,335,o),
(314,493,o),
(405,493,cs),
(430,493,o),
(451,479,o),
(459,463,c),
(423,245,ls),
(414,192,o),
(387,122,o),
(340,122,cs)
);
}
);
width = 728;
},
{
layerId = "BD18C76C-096B-4C52-83B4-518A374966BE";
shapes = (
{
closed = 1;
nodes = (
(487,-142,o),
(561,-96,o),
(622,-46,c),
(602,-7,l),
(551,-49,o),
(477,-90,o),
(382,-90,cs),
(225,-90,o),
(119,7,o),
(119,227,cs),
(119,494,o),
(266,667,o),
(426,667,cs),
(560,667,o),
(656,567,o),
(656,382,cs),
(656,216,o),
(601,128,o),
(558,128,cs),
(542,128,o),
(521,144,o),
(521,201,cs),
(521,215,o),
(523,246,o),
(527,276,cs),
(562,520,l),
(536,520,l),
(503,499,l),
(489,514,o),
(453,529,o),
(419,529,cs),
(275,529,o),
(205,375,o),
(205,248,cs),
(205,134,o),
(259,77,o),
(329,77,cs),
(387,77,o),
(422,120,o),
(445,172,c),
(450,172,l),
(467,104,o),
(502,77,o),
(549,77,cs),
(633,77,o),
(714,196,o),
(714,387,cs),
(714,587,o),
(604,714,o),
(432,714,cs),
(232,714,o),
(47,531,o),
(47,228,cs),
(47,-26,o),
(196,-142,o),
(373,-142,cs)
);
},
{
closed = 1;
nodes = (
(326,129,o),
(304,160,o),
(304,234,cs),
(304,332,o),
(338,489,o),
(418,489,cs),
(438,489,o),
(458,477,o),
(466,460,c),
(432,246,ls),
(423,192,o),
(401,129,o),
(357,129,cs)
);
}
);
width = 750;
}
);
script = "";
subCategory = Other;
unicode = 64;
}
{
category = Letter;
glyphname = A;
kernLeft = A;
kernRight = A;
layers = (
{
anchors = (
{
name = bottom;
pos = (398,-1);
},
{
name = center;
pos = (397,357);
},
{
name = ogonek;
pos = (610,0);
},
{
name = top;
pos = (394,714);
},
{
name = topright;
pos = (668,714);
}
);
layerId = "E17BEC9D-CAAD-449F-91D9-03766E30097E";
shapes = (
{
closed = 1;
nodes = (
(279,0,l),
(279,61,l),
(230,61,ls),
(202,61,o),
(193,73,o),
(193,93,cs),
(193,112,o),
(203,144,o),
(207,160,cs),
(230,232,l),
(458,232,l),
(489,141,l),
(492,133,o),
(500,111,o),
(500,92,cs),
(500,67,o),
(479,61,o),
(458,61,cs),
(418,61,l),
(418,0,l),
(788,0,l),
(788,61,l),
(777,61,ls),
(740,61,o),
(712,81,o),
(695,128,cs),
(491,714,l),
(310,714,l),
(97,130,ls),
(76,73,o),
(48,61,o),
(14,61,cs),
(7,61,l),
(7,0,l)
);
},
{
closed = 1;
nodes = (
(315,493,ls),
(326,527,o),
(338,567,o),
(349,610,c),
(357,566,o),
(369,527,o),
(379,492,cs),
(436,301,l),
(252,301,l)
);
}
);
width = 788;
},
{
anchors = (
{
name = bottom;
pos = (345,-1);
},
{
name = center;
pos = (352,357);
},
{
name = ogonek;
pos = (582,0);
},
{
name = top;
pos = (353,714);
},
{
name = topright;
pos = (555,714);
}
);
layerId = UUID0;
shapes = (
{
closed = 1;
nodes = (
(244,0,l),
(244,42,l),
(221,42,ls),
(177,42,o),
(155,57,o),
(155,91,cs),
(155,102,o),
(158,118,o),
(164,134,cs),
(202,239,l),
(465,239,l),
(505,127,ls),
(510,112,o),
(513,101,o),
(513,90,cs),
(513,57,o),
(493,42,o),
(453,42,cs),
(430,42,l),
(430,0,l),
(705,0,l),
(705,42,l),
(692,42,ls),
(653,42,o),
(636,53,o),
(621,95,cs),
(395,714,l),
(317,714,l),
(95,120,ls),
(71,56,o),
(58,42,o),
(19,42,cs),
(0,42,l),
(0,0,l)
);
},
{
closed = 1;
nodes = (
(289,473,ls),
(312,535,o),
(325,574,o),
(335,622,c),
(346,574,o),
(364,523,o),
(385,464,cs),
(447,289,l),
(221,289,l)
);
}
);
width = 705;
},
{
anchors = (
{
name = bottom;
pos = (311,-1);
},
{
name = center;
pos = (331,357);
},
{
name = ogonek;
pos = (515,0);
},
{
name = top;
pos = (329,714);
},
{
name = topright;
pos = (547,714);
}
);
layerId = "75A83886-EED5-4C31-9670-660514D8A4F6";
shapes = (
{
closed = 1;
nodes = (
(232,0,l),
(232,56,l),
(192,56,ls),
(168,56,o),
(161,69,o),
(161,91,cs),
(161,110,o),
(169,140,o),
(172,156,cs),
(191,234,l),
(381,234,l),
(407,140,ls),
(410,129,o),
(416,106,o),
(416,89,cs),
(416,64,o),
(399,56,o),
(382,56,cs),
(348,56,l),
(348,0,l),
(657,0,l),
(657,56,l),
(648,56,ls),
(617,56,o),
(593,73,o),
(580,118,cs),
(409,714,l),
(258,714,l),
(80,127,ls),
(63,68,o),
(40,56,o),
(11,56,cs),
(6,56,l),
(6,0,l)
);
},
{
closed = 1;
nodes = (
(262,492,ls),
(272,530,o),
(281,572,o),
(290,614,c),
(297,571,o),
(307,530,o),
(317,489,cs),
(363,298,l),
(210,298,l)
);
}
);
width = 657;
},
{
anchors = (
{
name = bottom;
pos = (249,-1);
},
{
name = center;
pos = (248,357);
},
{
name = ogonek;
pos = (428,0);
},
{
name = top;
pos = (250,714);
},
{
name = topright;
pos = (399,714);
}
);
layerId = "C91144B6-58F5-45F2-9CE4-7ED6CE127FD4";
shapes = (
{
closed = 1;
nodes = (
(165,0,l),
(165,20,l),
(143,20,ls),
(100,20,o),
(89,28,o),
(89,46,cs),
(89,61,o),
(101,101,o),
(109,128,cs),
(144,251,l),
(358,251,l),
(398,111,ls),
(405,86,o),
(414,58,o),
(414,48,cs),
(414,27,o),
(406,20,o),
(362,20,cs),
(342,20,l),
(342,0,l),
(499,0,l),
(499,20,l),
(492,20,ls),
(458,20,o),
(450,25,o),
(442,55,cs),
(259,714,l),
(244,714,l),
(74,104,ls),
(54,32,o),
(47,20,o),
(13,20,cs),
(-2,20,l),
(-2,0,l)
);
},
{
closed = 1;
nodes = (
(214,509,ls),
(229,567,o),
(245,619,o),
(251,653,c),
(259,620,o),
(272,570,o),
(293,493,cs),
(352,276,l),
(152,276,l)
);
}
);
width = 499;
},
{
anchors = (
{
name = bottom;
pos = (321,-1);
},
{
name = center;
pos = (320,357);
},
{
name = ogonek;
pos = (553,0);
},
{
name = top;
pos = (323,714);
},
{
name = topright;
pos = (525,714);
}
);
layerId = "1D4F67F9-897D-45AD-B7F0-CA61A6862C03";
shapes = (
{
closed = 1;
nodes = (
(220,0,l),
(220,20,l),
(167,20,ls),
(117,20,o),
(112,29,o),
(112,48,cs),
(112,71,o),
(134,129,o),
(140,147,cs),
(176,251,l),
(465,251,l),
(501,147,ls),
(507,129,o),
(529,71,o),
(529,48,cs),
(529,29,o),
(524,20,o),
(474,20,cs),
(440,20,l),
(440,0,l),
(645,0,l),
(645,20,l),
(623,20,ls),
(577,20,o),
(573,24,o),
(558,68,cs),
(335,714,l),
(306,714,l),
(83,68,ls),
(68,24,o),
(64,20,o),
(18,20,cs),
(-4,20,l),
(-4,0,l)
);
},
{
closed = 1;
nodes = (
(266,515,ls),
(281,560,o),
(313,649,o),
(321,680,c),
(335,638,o),
(360,559,o),
(379,505,cs),
(456,276,l),
(184,276,l)
);
}
);
width = 645;
},
{
anchors = (
{
name = bottom;
pos = (277,-1);
},
{
name = center;
pos = (285,357);
},
{
name = ogonek;
pos = (464,0);
},
{
name = top;
pos = (284,714);
},
{
name = topright;
pos = (458,714);
}
);
layerId = "A0CCC833-A561-4F2A-AF73-A35187C9FE5B";
shapes = (
{
closed = 1;
nodes = (
(198,0,l),
(198,41,l),
(177,41,ls),
(141,41,o),
(127,59,o),
(127,86,cs),
(127,104,o),
(134,129,o),
(138,145,cs),
(163,240,l),
(366,240,l),
(393,138,ls),
(398,118,o),
(404,93,o),
(404,80,cs),
(404,56,o),
(389,41,o),
(357,41,cs),
(339,41,l),
(339,0,l),
(568,0,l),
(568,41,l),
(560,41,ls),
(527,41,o),
(512,51,o),
(502,87,cs),
(324,714,l),
(250,714,l),
(76,119,ls),
(57,55,o),
(44,41,o),
(15,41,cs),
(2,41,l),
(2,0,l)
);
},
{
closed = 1;
nodes = (
(234,490,ls),
(247,539,o),
(259,587,o),
(267,624,c),
(274,587,o),
(287,540,o),
(302,480,cs),
(352,289,l),
(179,289,l)
);
}
);
width = 568;
}
);
script = latin;
subCategory = Uppercase;
unicode = 65;
}
{
category = Letter;
glyphname = B;
kernLeft = B;
kernRight = B;
layers = (
{
anchors = (
{
name = bottom;
pos = (360,0);
},
{
name = center;
pos = (355,357);
},
{
name = top;
pos = (360,714);
},
{
name = topright;
pos = (700,714);
}
);
layerId = "E17BEC9D-CAAD-449F-91D9-03766E30097E";
shapes = (
{
closed = 1;
nodes = (
(379,0,ls),
(589,0,o),
(690,66,o),
(690,198,cs),
(690,303,o),
(616,358,o),
(511,376,c),
(511,381,l),
(591,401,o),
(661,447,o),
(661,540,cs),
(661,666,o),
(551,714,o),
(349,714,cs),
(21,714,l),
(21,653,l),
(70,653,ls),
(89,653,o),
(113,641,o),
(113,598,cs),
(113,116,ls),
(113,83,o),
(101,61,o),
(73,61,cs),
(21,61,l),
(21,0,l)
);
},
{
closed = 1;
nodes = (
(312,69,l),
(312,339,l),
(366,339,ls),
(440,339,o),
(477,295,o),
(477,201,cs),
(477,103,o),
(435,69,o),
(364,69,cs)
);
},
{
closed = 1;
nodes = (
(312,408,l),
(312,645,l),
(338,645,ls),
(411,645,o),
(453,616,o),
(453,530,cs),
(453,442,o),
(415,408,o),
(340,408,cs)
);
}
);
width = 720;
},
{
anchors = (
{
name = bottom;
pos = (327,0);
},
{
name = center;
pos = (315,357);
},
{
name = top;
pos = (327,714);
},
{
name = topright;
pos = (634,714);
}
);
background = {
shapes = (
{
closed = 1;
nodes = (
(329,0,l),
(329,42,l),
(316,42,ls),
(271,42,o),
(234,51,o),
(234,114,cs),
(234,348,l),
(559,348,l),
(559,114,ls),
(559,51,o),
(522,42,o),
(477,42,cs),
(464,42,l),
(464,0,l),
(755,0,l),
(755,42,l),
(742,42,ls),
(698,42,o),
(660,50,o),
(660,109,cs),
(660,600,ls),
(660,663,o),
(697,672,o),
(742,672,cs),
(755,672,l),
(755,714,l),
(464,714,l),
(464,672,l),
(477,672,ls),
(522,672,o),
(559,663,o),
(559,600,cs),
(559,398,l),
(234,398,l),
(234,600,l),
(234,663,o),
(271,672,o),
(316,672,cs),
(329,672,l),
(329,714,l),
(38,714,l),
(38,672,l),
(51,672,ls),
(95,672,o),
(133,663,o),
(133,604,cs),
(133,114,ls),
(133,51,o),
(96,42,o),
(51,42,cs),
(38,42,l),
(38,0,l)
);
}
);
};
layerId = UUID0;
shapes = (
{
closed = 1;
nodes = (
(336,0,ls),
(509,0,o),
(593,64,o),
(593,193,cs),
(593,299,o),
(530,358,o),
(439,374,c),
(439,378,l),
(510,401,o),
(563,446,o),
(563,535,cs),
(563,658,o),
(479,714,o),
(306,714,cs),
(38,714,l),
(38,672,l),
(51,672,ls),
(95,672,o),
(133,663,o),
(133,604,cs),
(133,114,ls),
(133,51,o),
(96,42,o),
(51,42,cs),
(38,42,l),
(38,0,l)
);
},
{
closed = 1;
nodes = (
(234,50,l),
(234,349,l),
(333,349,ls),
(450,349,o),
(486,300,o),
(486,196,cs),
(486,89,o),
(444,50,o),
(331,50,cs)
);
},
{
closed = 1;
nodes = (
(234,399,l),
(234,664,l),
(301,664,ls),
(414,664,o),
(456,633,o),
(456,535,cs),
(456,439,o),
(420,399,o),
(303,399,cs)
);
}
);
width = 654;
},
{
anchors = (
{
name = bottom;
pos = (300,0);
},
{
name = center;
pos = (296,357);
},
{
name = top;
pos = (300,714);
},
{
name = topright;
pos = (580,714);
}
);
layerId = "75A83886-EED5-4C31-9670-660514D8A4F6";
shapes = (
{
closed = 1;
nodes = (
(316,0,ls),
(491,0,o),
(575,65,o),
(575,197,cs),
(575,303,o),
(513,360,o),
(426,376,c),
(426,381,l),
(493,402,o),
(551,449,o),
(551,540,cs),
(551,665,o),
(459,714,o),
(291,714,cs),
(17,714,l),
(17,658,l),
(58,658,ls),
(74,658,o),
(94,647,o),
(94,600,cs),
(94,115,ls),
(94,75,o),
(84,56,o),
(60,56,cs),
(17,56,l),
(17,0,l)
);
},
{
closed = 1;
nodes = (
(260,64,l),
(260,342,l),
(305,342,ls),
(366,342,o),
(397,296,o),
(397,200,cs),
(397,99,o),
(362,64,o),
(303,64,cs)
);
},
{
closed = 1;
nodes = (
(260,406,l),
(260,650,l),
(282,650,ls),
(342,650,o),
(377,621,o),
(377,531,cs),
(377,442,o),
(345,406,o),
(283,406,cs)
);
}
);
width = 600;
},
{
anchors = (
{
name = bottom;
pos = (237,0);
},
{
name = center;
pos = (225,357);
},
{
name = top;
pos = (237,714);
},
{
name = topright;
pos = (454,714);
}
);
layerId = "C91144B6-58F5-45F2-9CE4-7ED6CE127FD4";
shapes = (
{
closed = 1;
nodes = (
(242,0,ls),
(359,0,o),
(414,62,o),
(414,189,cs),
(414,319,o),
(362,366,o),
(300,379,c),
(300,382,l),
(344,395,o),
(392,438,o),
(392,543,cs),
(392,657,o),
(337,714,o),
(220,714,cs),
(36,714,l),
(36,694,l),
(53,694,ls),
(103,694,o),
(109,684,o),
(109,607,cs),
(109,110,ls),
(109,31,o),
(103,20,o),
(53,20,cs),
(36,20,l),
(36,0,l)
);
},
{
closed = 1;
nodes = (
(137,25,l),
(137,362,l),
(241,362,ls),
(354,362,o),
(387,304,o),
(387,192,cs),
(387,80,o),
(350,25,o),
(240,25,cs)
);
},
{
closed = 1;
nodes = (
(137,387,l),
(137,689,l),
(224,689,ls),
(328,689,o),
(365,634,o),
(365,542,cs),
(365,452,o),
(331,387,o),
(219,387,cs)
);
}
);
width = 474;
},
{
anchors = (
{
name = bottom;
pos = (311,0);
},
{
name = center;
pos = (295,357);
},
{
name = top;
pos = (311,714);
},
{
name = topright;
pos = (602,714);
}
);
layerId = "1D4F67F9-897D-45AD-B7F0-CA61A6862C03";
shapes = (
{
closed = 1;
nodes = (
(320,0,ls),
(465,0,o),
(539,60,o),
(539,200,cs),
(539,311,o),
(485,373,o),
(387,377,c),
(387,379,l),
(452,394,o),
(509,432,o),
(509,541,cs),
(509,665,o),
(441,714,o),
(290,714,cs),
(52,714,l),
(52,694,l),
(93,694,ls),
(143,694,o),
(149,683,o),
(149,606,cs),
(149,108,ls),
(149,31,o),
(143,20,o),
(93,20,cs),
(52,20,l),
(52,0,l)
);
},
{
closed = 1;
nodes = (
(177,25,l),
(177,363,l),
(317,363,ls),
(465,363,o),
(511,308,o),
(511,197,cs),
(511,86,o),
(457,25,o),
(315,25,cs)
);
},
{
closed = 1;
nodes = (
(177,388,l),
(177,689,l),
(285,689,ls),
(427,689,o),
(481,645,o),
(481,543,cs),
(481,446,o),
(435,388,o),
(287,388,cs)
);
}
);
width = 622;
},
{
anchors = (
{
name = bottom;
pos = (265,0);
},
{
name = center;
pos = (256,357);
},
{
name = top;
pos = (265,714);
},
{
name = topright;
pos = (509,714);
}
);
layerId = "A0CCC833-A561-4F2A-AF73-A35187C9FE5B";
shapes = (
{
closed = 1;
nodes = (
(274,0,ls),
(416,0,o),
(484,64,o),
(484,193,cs),
(484,303,o),
(432,365,o),
(355,377,c),
(355,382,l),
(413,403,o),
(461,453,o),
(461,541,cs),
(461,661,o),
(390,714,o),
(251,714,cs),
(28,714,l),
(28,673,l),
(45,673,ls),
(77,673,o),
(103,665,o),
(103,606,cs),
(103,112,ls),
(103,53,o),
(82,41,o),
(45,41,cs),
(28,41,l),
(28,0,l)
);
},
{
closed = 1;
nodes = (
(194,49,l),
(194,350,l),
(268,350,ls),
(356,350,o),
(387,300,o),
(387,196,cs),
(387,88,o),
(351,49,o),
(267,49,cs)
);
},
{
closed = 1;
nodes = (
(194,399,l),
(194,665,l),
(245,665,ls),
(329,665,o),
(365,634,o),
(365,535,cs),
(365,443,o),
(333,399,o),
(246,399,cs)
);
}
);
width = 529;
}
);
script = latin;
subCategory = Uppercase;
unicode = 66;
}
{
category = Letter;
glyphname = E;
kernLeft = B;
kernRight = E;
layers = (
{
anchors = (
{
name = bottom;
pos = (338,0);
},
{
name = center;
pos = (336,357);
},
{
name = ogonek;
pos = (599,0);
},
{
name = top;
pos = (338,714);
},
{
name = topright;
pos = (655,714);
}
);
layerId = "E17BEC9D-CAAD-449F-91D9-03766E30097E";
shapes = (
{
closed = 1;
nodes = (
(644,0,l),
(651,191,l),
(569,191,l),
(561,141,ls),
(554,97,o),
(534,69,o),
(491,69,cs),
(312,69,l),
(312,339,l),
(548,339,l),
(548,407,l),
(312,407,l),
(312,645,l),
(462,645,ls),
(509,645,o),
(524,626,o),
(529,573,cs),
(534,523,l),
(617,523,l),
(614,714,l),
(21,714,l),
(21,653,l),
(70,653,ls),
(92,653,o),
(113,646,o),
(113,599,cs),
(113,110,ls),
(113,82,o),
(99,61,o),
(72,61,cs),
(21,61,l),
(21,0,l)
);
}
);
width = 675;
},
{
anchors = (
{
name = bottom;
pos = (312,0);
},
{
name = center;
pos = (309,357);
},
{
name = ogonek;
pos = (529,0);
},
{
name = top;
pos = (312,714);
},
{
name = topright;
pos = (603,714);
}
);
layerId = UUID0;
shapes = (
{
closed = 1;
nodes = (
(574,0,l),
(581,175,l),
(529,175,l),
(522,132,ls),
(515,88,o),
(490,50,o),
(427,50,cs),
(234,50,l),
(234,349,l),
(475,349,l),
(475,398,l),
(234,398,l),
(234,664,l),
(402,664,ls),
(462,664,o),
(485,626,o),
(490,582,cs),
(495,539,l),
(547,539,l),
(542,714,l),
(38,714,l),
(38,672,l),
(51,672,ls),
(96,672,o),
(133,663,o),
(133,600,cs),
(133,109,ls),
(133,50,o),
(95,42,o),
(51,42,cs),
(38,42,l),
(38,0,l)
);
}
);
width = 623;
},
{
anchors = (
{
name = bottom;
pos = (282,0);
},
{
name = center;
pos = (280,357);
},
{
name = ogonek;
pos = (529,0);
},
{
name = top;
pos = (282,714);
},
{
name = topright;
pos = (543,714);
}
);
layerId = "75A83886-EED5-4C31-9670-660514D8A4F6";
shapes = (
{
closed = 1;
nodes = (
(538,0,l),
(543,187,l),
(474,187,l),
(468,139,ls),
(462,95,o),
(446,64,o),
(410,64,cs),
(261,64,l),
(261,342,l),
(457,342,l),
(457,405,l),
(261,405,l),
(261,650,l),
(385,650,ls),
(424,650,o),
(438,626,o),
(441,575,cs),
(445,527,l),
(515,527,l),
(513,714,l),
(18,714,l),
(18,658,l),
(58,658,ls),
(76,658,o),
(94,651,o),
(94,600,cs),
(94,109,ls),
(94,74,o),
(83,56,o),
(60,56,cs),
(18,56,l),
(18,0,l)
);
}
);
width = 563;
},
{
anchors = (
{
name = bottom;
pos = (225,0);
},
{
name = center;
pos = (223,357);
},
{
name = ogonek;
pos = (390,0);
},
{
name = top;
pos = (225,714);
},
{
name = topright;
pos = (429,714);
}
);
layerId = "C91144B6-58F5-45F2-9CE4-7ED6CE127FD4";
shapes = (
{
closed = 1;
nodes = (
(406,0,l),
(410,164,l),
(390,164,l),
(386,94,ls),
(382,33,o),
(379,25,o),
(314,25,cs),
(135,25,l),
(137,362,l),
(327,362,l),
(327,387,l),
(137,387,l),
(137,689,l),
(287,689,ls),
(355,689,o),
(359,682,o),
(363,600,cs),
(365,550,l),
(385,550,l),
(380,714,l),
(36,714,l),
(36,694,l),
(53,694,ls),
(103,694,o),
(109,683,o),
(109,606,cs),
(109,108,ls),
(109,31,o),
(103,20,o),
(53,20,cs),
(36,20,l),
(36,0,l)
);
}
);
width = 449;
},
{
anchors = (
{
name = bottom;
pos = (313,0);
},
{
name = center;
pos = (290,357);
},
{
name = ogonek;
pos = (511,0);
},
{
name = top;
pos = (293,714);
},
{
name = topright;
pos = (565,714);
}
);
layerId = "1D4F67F9-897D-45AD-B7F0-CA61A6862C03";
shapes = (
{
closed = 1;
nodes = (
(524,0,l),
(531,163,l),
(511,163,l),
(507,94,ls),
(504,39,o),
(498,25,o),
(446,25,cs),
(177,25,l),
(177,362,l),
(421,362,l),
(421,387,l),
(177,387,l),
(177,689,l),
(412,689,ls),
(464,689,o),
(470,675,o),
(473,620,cs),
(477,551,l),
(497,551,l),
(490,714,l),
(50,714,l),
(50,694,l),
(93,694,ls),
(143,694,o),
(149,683,o),
(149,606,cs),
(149,108,ls),
(149,31,o),
(143,20,o),
(93,20,cs),
(50,20,l),
(50,0,l)
);
}
);
width = 585;
},
{
anchors = (
{
name = bottom;
pos = (250,0);
},
{
name = center;
pos = (248,357);
},
{
name = ogonek;
pos = (432,0);
},
{
name = top;
pos = (250,714);
},
{
name = topright;
pos = (479,714);
}
);
layerId = "A0CCC833-A561-4F2A-AF73-A35187C9FE5B";
shapes = (
{
closed = 1;
nodes = (
(463,0,l),
(468,174,l),
(422,174,l),
(418,132,ls),
(414,88,o),
(392,49,o),
(341,49,cs),
(195,49,l),
(195,350,l),
(384,350,l),
(384,398,l),
(195,398,l),
(195,665,l),
(322,665,ls),
(371,665,o),
(389,626,o),
(392,582,cs),
(396,540,l),
(442,540,l),
(438,714,l),
(28,714,l),
(28,673,l),
(45,673,ls),
(78,673,o),
(103,664,o),
(103,602,cs),
(103,107,ls),
(103,52,o),
(81,41,o),
(45,41,cs),
(28,41,l),
(28,0,l)
);
}
);
width = 499;
}
);
script = latin;
subCategory = Uppercase;
unicode = 69;
}
{
category = Letter;
glyphname = F;
kernLeft = B;
kernRight = F;
layers = (
{
anchors = (
{
name = bottom;
pos = (213,0);
},
{
name = center;
pos = (319,357);
},
{
name = top;
pos = (322,714);
},
{
name = topright;
pos = (624,714);
}
);
layerId = "E17BEC9D-CAAD-449F-91D9-03766E30097E";
shapes = (
{
closed = 1;
nodes = (
(426,0,l),
(426,61,l),
(366,61,ls),
(326,61,o),
(312,80,o),
(312,110,cs),
(312,317,l),
(547,317,l),
(547,384,l),
(312,384,l),
(312,645,l),
(468,645,ls),
(493,645,o),
(522,634,o),
(529,575,cs),
(534,523,l),
(617,523,l),
(612,714,l),
(21,714,l),
(21,653,l),
(71,653,ls),
(94,653,o),
(113,638,o),
(113,603,cs),
(113,109,ls),
(113,75,o),
(98,61,o),
(56,61,cs),
(21,61,l),
(21,0,l)
);
}
);
width = 644;
},
{
anchors = (
{
name = bottom;
pos = (184,0);
},
{
name = center;
pos = (292,357);
},
{
name = top;
pos = (295,714);
},
{
name = topright;
pos = (570,714);
}
);
layerId = UUID0;
shapes = (
{
closed = 1;
nodes = (
(349,0,l),
(349,42,l),
(316,42,ls),
(271,42,o),
(234,51,o),
(234,114,cs),
(234,326,l),
(475,326,l),
(475,375,l),
(234,375,l),
(234,664,l),
(398,664,l),
(461,664,o),
(485,627,o),
(490,582,cs),
(495,539,l),
(547,539,l),
(542,714,l),
(38,714,l),
(38,672,l),
(51,672,ls),
(95,672,o),
(133,663,o),
(133,604,cs),
(133,109,ls),
(133,50,o),
(95,42,o),
(51,42,cs),
(38,42,l),
(38,0,l)
);
}
);
width = 590;
},
{
anchors = (
{
name = bottom;
pos = (178,0);
},
{
name = center;
pos = (266,357);
},
{
name = top;
pos = (269,714);
},
{
name = topright;
pos = (518,714);
}
);
layerId = "75A83886-EED5-4C31-9670-660514D8A4F6";
shapes = (
{
closed = 1;
nodes = (
(355,0,l),
(355,56,l),
(306,56,ls),
(272,56,o),
(261,73,o),
(261,110,cs),
(261,319,l),
(457,319,l),
(457,382,l),
(261,382,l),
(261,650,l),
(390,650,ls),
(411,650,o),
(436,632,o),
(441,577,cs),
(445,527,l),
(515,527,l),
(510,714,l),
(18,714,l),
(18,658,l),
(59,658,ls),
(79,658,o),
(94,644,o),
(94,604,cs),
(94,108,ls),
(94,69,o),
(82,56,o),
(47,56,cs),
(18,56,l),
(18,0,l)
);
}
);
width = 538;
},
{
anchors = (
{
name = bottom;
pos = (123,0);
},
{
name = center;
pos = (210,357);
},
{
name = top;
pos = (212,714);
},
{
name = topright;
pos = (404,714);
}
);
layerId = "C91144B6-58F5-45F2-9CE4-7ED6CE127FD4";
shapes = (
{
closed = 1;
nodes = (
(230,0,l),
(230,20,l),
(193,20,ls),
(143,20,o),
(137,31,o),
(137,108,cs),
(137,338,l),
(328,338,l),
(328,363,l),
(137,363,l),
(137,689,l),
(302,689,ls),
(354,689,o),
(360,675,o),
(362,620,cs),
(365,551,l),
(385,551,l),
(380,714,l),
(36,714,l),
(36,694,l),
(53,694,ls),
(103,694,o),
(109,683,o),
(109,606,cs),
(109,108,ls),
(109,31,o),
(103,20,o),
(53,20,cs),
(36,20,l),
(36,0,l)
);
}
);
width = 424;
},
{
anchors = (
{
name = bottom;
pos = (163,0);
},
{
name = center;
pos = (273,357);
},
{
name = top;
pos = (275,714);
},
{
name = topright;
pos = (530,714);
}
);
layerId = "1D4F67F9-897D-45AD-B7F0-CA61A6862C03";
shapes = (
{
closed = 1;
nodes = (
(303,0,l),
(303,20,l),
(233,20,ls),
(183,20,o),
(177,31,o),
(177,108,cs),
(177,338,l),
(423,338,l),
(423,363,l),
(177,363,l),
(177,689,l),
(414,689,ls),
(466,689,o),
(472,675,o),
(474,620,cs),
(477,551,l),
(497,551,l),
(492,714,l),
(50,714,l),
(50,694,l),
(93,694,ls),
(143,694,o),
(149,683,o),
(149,606,cs),
(149,108,ls),
(149,31,o),
(143,20,o),
(93,20,cs),
(50,20,l),
(50,0,l)
);
}
);
width = 550;
},
{
anchors = (
{
name = bottom;
pos = (150,0);
},
{
name = center;
pos = (235,357);
},
{
name = top;
pos = (237,714);
},
{
name = topright;
pos = (454,714);
}
);
layerId = "A0CCC833-A561-4F2A-AF73-A35187C9FE5B";
shapes = (
{
closed = 1;
nodes = (
(285,0,l),
(285,41,l),
(261,41,ls),
(221,41,o),
(195,53,o),
(195,111,cs),
(195,326,l),
(385,326,l),
(385,375,l),
(195,375,l),
(195,665,l),
(323,665,ls),
(369,665,o),
(388,626,o),
(392,583,cs),
(396,540,l),
(442,540,l),
(437,714,l),
(28,714,l),
(28,673,l),
(45,673,ls),
(79,673,o),
(103,662,o),
(103,606,cs),
(103,107,ls),
(103,51,o),
(81,41,o),
(41,41,cs),
(28,41,l),
(28,0,l)
);
}
);
width = 474;
}
);
script = latin;
subCategory = Uppercase;
unicode = 70;
}
{
category = Letter;
glyphname = G;
kernLeft = O;
kernRight = G;
layers = (
{
anchors = (
{
name = bottom;
pos = (435,0);
},
{
name = center;
pos = (409,357);
},
{
name = top;
pos = (445,714);
},
{
name = topright;
pos = (790,714);
}
);
layerId = "E17BEC9D-CAAD-449F-91D9-03766E30097E";
shapes = (
{
closed = 1;
nodes = (
(534,-10,o),
(618,10,o),
(704,50,c),
(704,202,l),
(704,255,o),
(713,279,o),
(756,279,cs),
(765,279,l),
(765,340,l),
(422,340,l),
(422,279,l),
(441,279,ls),
(490,279,o),
(504,255,o),
(504,206,cs),
(504,69,l),
(485,67,o),
(469,66,o),
(454,66,cs),
(315,66,o),
(264,170,o),
(264,358,cs),
(264,546,o),
(313,652,o),
(442,652,cs),
(517,652,o),
(560,604,o),
(560,509,c),
(667,509,o),
(715,555,o),
(715,605,cs),
(715,671,o),
(623,724,o),
(444,724,cs),
(188,724,o),
(54,574,o),
(54,358,cs),
(54,137,o),
(180,-10,o),
(440,-10,cs)
);
}
);
width = 810;
},
{
anchors = (
{
name = bottom;
pos = (401,0);
},
{
name = center;
pos = (376,357);
},
{
name = top;
pos = (407,714);
},
{
name = topright;
pos = (694,714);
}
);
layerId = UUID0;
shapes = (
{
closed = 1;
nodes = (
(487,-10,o),
(555,5,o),
(622,36,c),
(622,216,l),
(622,279,o),
(653,288,o),
(691,288,cs),
(695,288,l),
(695,330,l),
(435,330,l),
(435,288,l),
(439,288,ls),
(483,288,o),
(521,279,o),
(521,220,cs),
(521,59,l),
(493,51,o),
(455,47,o),
(417,47,cs),
(235,47,o),
(168,158,o),
(168,358,cs),
(168,558,o),
(233,671,o),
(403,671,cs),
(501,671,o),
(535,604,o),
(535,542,c),
(587,542,o),
(628,569,o),
(628,612,cs),
(628,676,o),
(555,724,o),
(407,724,cs),
(177,724,o),
(57,574,o),
(57,358,cs),
(57,137,o),
(169,-10,o),
(401,-10,cs)
);
}
);
width = 714;
},
{
anchors = (
{
name = bottom;
pos = (368,0);
},
{
name = center;
pos = (341,357);
},
{
name = top;
pos = (370,714);
},
{
name = topright;
pos = (655,714);
}
);
layerId = "75A83886-EED5-4C31-9670-660514D8A4F6";
shapes = (
{
closed = 1;
nodes = (
(445,-10,o),
(516,9,o),
(587,46,c),
(587,206,ls),
(587,262,o),
(594,281,o),
(630,281,cs),
(638,281,l),
(638,337,l),
(352,337,l),
(352,281,l),
(367,281,ls),
(408,281,o),
(420,262,o),
(420,210,cs),
(420,66,l),
(404,62,o),
(390,60,o),
(379,60,cs),
(263,60,o),
(220,166,o),
(220,358,cs),
(220,552,o),
(261,657,o),
(368,657,cs),
(431,657,o),
(467,604,o),
(467,518,c),
(556,518,o),
(596,559,o),
(596,607,cs),
(596,672,o),
(520,724,o),
(370,724,cs),
(156,724,o),
(45,574,o),
(45,358,cs),
(45,137,o),
(150,-10,o),
(367,-10,cs)
);
}
);
width = 675;
},
{
anchors = (
{
name = bottom;
pos = (280,0);
},
{
name = center;
pos = (268,357);
},
{
name = top;
pos = (292,714);
},
{
name = topright;
pos = (480,714);
}
);
layerId = "C91144B6-58F5-45F2-9CE4-7ED6CE127FD4";
shapes = (
{
closed = 1;
nodes = (
(350,-10,o),
(393,1,o),
(436,27,c),
(436,225,ls),
(436,295,o),
(444,303,o),
(489,303,cs),
(493,303,l),
(493,323,l),
(335,323,l),
(335,303,l),
(346,303,ls),
(400,303,o),
(408,295,o),
(408,226,cs),
(408,40,l),
(383,23,o),
(339,15,o),
(288,15,cs),
(133,15,o),
(72,137,o),
(72,358,cs),
(72,582,o),
(149,699,o),
(293,699,cs),
(387,699,o),
(417,639,o),
(417,565,c),
(430,565,o),
(438,578,o),
(438,611,cs),
(438,661,o),
(393,724,o),
(293,724,cs),
(137,724,o),
(44,608,o),
(44,358,cs),
(44,121,o),
(120,-10,o),
(288,-10,cs)
);
}
);
width = 500;
},
{
anchors = (
{
name = bottom;
pos = (372,0);
},
{
name = center;
pos = (348,357);
},
{
name = top;
pos = (382,714);
},
{
name = topright;
pos = (624,714);
}
);
layerId = "1D4F67F9-897D-45AD-B7F0-CA61A6862C03";
shapes = (
{
closed = 1;
nodes = (
(453,-10,o),
(509,1,o),
(562,26,c),
(562,214,ls),
(562,291,o),
(568,302,o),
(618,302,cs),
(637,302,l),
(637,322,l),
(445,322,l),
(445,302,l),
(478,302,ls),
(528,302,o),
(534,291,o),
(534,214,cs),
(534,41,l),
(499,24,o),
(439,15,o),
(383,15,cs),
(175,15,o),
(87,150,o),
(87,358,cs),
(87,573,o),
(199,699,o),
(375,699,cs),
(507,699,o),
(543,654,o),
(543,566,c),
(556,566,o),
(564,579,o),
(564,608,cs),
(564,667,o),
(518,724,o),
(379,724,cs),
(183,724,o),
(59,588,o),
(59,358,cs),
(59,137,o),
(161,-10,o),
(373,-10,cs)
);
}
);
width = 644;
},
{
anchors = (
{
name = bottom;
pos = (311,0);
},
{
name = center;
pos = (300,357);
},
{
name = top;
pos = (327,714);
},
{
name = topright;
pos = (556,714);
}
);
layerId = "A0CCC833-A561-4F2A-AF73-A35187C9FE5B";
shapes = (
{
closed = 1;
nodes = (
(391,-10,o),
(447,5,o),
(502,35,c),
(502,217,ls),
(502,281,o),
(518,288,o),
(549,288,cs),
(556,288,l),
(556,329,l),
(343,329,l),
(343,288,l),
(352,288,ls),
(388,288,o),
(410,281,o),
(410,221,cs),
(410,56,l),
(389,47,o),
(361,43,o),
(334,43,cs),
(196,43,o),
(145,155,o),
(145,358,cs),
(145,569,o),
(200,672,o),
(323,672,cs),
(401,672,o),
(432,604,o),
(432,544,c),
(479,544,o),
(507,570,o),
(507,613,cs),
(507,676,o),
(441,724,o),
(326,724,cs),
(141,724,o),
(44,574,o),
(44,358,cs),
(44,137,o),
(135,-10,o),
(322,-10,cs)
);
}
);
width = 576;
}
);
script = latin;
subCategory = Uppercase;
unicode = 71;
}
{
category = Letter;
glyphname = I;
kernLeft = B;
kernRight = H;
layers = (
{
anchors = (
{
name = bottom;
pos = (213,0);
},
{
name = center;
pos = (213,357);
},
{
name = top;
pos = (213,714);
},
{
name = topright;
pos = (406,714);
}
);
layerId = "E17BEC9D-CAAD-449F-91D9-03766E30097E";
shapes = (
{
closed = 1;
nodes = (
(406,0,l),
(406,61,l),
(351,61,ls),
(331,61,o),
(313,81,o),
(313,110,cs),
(313,599,ls),
(313,636,o),
(327,653,o),
(351,653,cs),
(406,653,l),
(406,714,l),
(21,714,l),
(21,653,l),
(74,653,ls),
(92,653,o),
(113,636,o),
(113,600,cs),
(113,108,ls),
(113,78,o),
(92,61,o),
(74,61,cs),
(21,61,l),
(21,0,l)
);
}
);
width = 426;
},
{
anchors = (
{
name = bottom;
pos = (184,0);
},
{
name = center;
pos = (183,357);
},
{
name = top;
pos = (184,714);
},
{
name = topright;
pos = (347,714);
}
);
layerId = UUID0;
shapes = (
{
closed = 1;
nodes = (
(329,0,l),
(329,42,l),
(316,42,ls),
(271,42,o),
(234,51,o),
(234,114,cs),
(234,600,l),
(234,663,o),
(271,672,o),
(316,672,cs),
(329,672,l),
(329,714,l),
(38,714,l),
(38,672,l),
(51,672,ls),
(96,672,o),
(133,663,o),
(133,600,cs),
(133,114,ls),
(133,51,o),
(96,42,o),
(51,42,cs),
(38,42,l),
(38,0,l)
);
}
);
width = 367;
},
{
anchors = (
{
name = bottom;
pos = (178,0);
},
{
name = center;
pos = (178,357);
},
{
name = top;
pos = (178,714);
},
{
name = topright;
pos = (335,714);
}
);
layerId = "75A83886-EED5-4C31-9670-660514D8A4F6";
shapes = (
{
closed = 1;
nodes = (
(339,0,l),
(339,56,l),
(293,56,ls),
(277,56,o),
(261,74,o),
(261,110,cs),
(261,600,ls),
(261,643,o),
(273,658,o),
(293,658,cs),
(339,658,l),
(339,714,l),
(18,714,l),
(18,658,l),
(62,658,ls),
(76,658,o),
(94,643,o),
(94,601,cs),
(94,109,ls),
(94,71,o),
(76,56,o),
(62,56,cs),
(18,56,l),
(18,0,l)
);
}
);
width = 355;
},
{
anchors = (
{
name = bottom;
pos = (127,0);
},
{
name = center;
pos = (126,357);
},
{
name = top;
pos = (127,714);
},
{
name = topright;
pos = (233,714);
}
);
layerId = "C91144B6-58F5-45F2-9CE4-7ED6CE127FD4";
shapes = (
{
closed = 1;
nodes = (
(216,0,l),
(216,20,l),
(196,20,ls),
(146,20,o),
(140,31,o),
(140,108,cs),
(140,606,ls),
(140,683,o),
(146,694,o),
(196,694,cs),
(216,694,l),
(216,714,l),
(36,714,l),
(36,694,l),
(56,694,ls),
(106,694,o),
(112,683,o),
(112,606,cs),
(112,108,ls),
(112,31,o),
(106,20,o),
(56,20,cs),
(36,20,l),
(36,0,l)
);
}
);
width = 253;
},
{
anchors = (
{
name = bottom;
pos = (163,0);
},
{
name = center;
pos = (161,357);
},
{
name = top;
pos = (163,714);
},
{
name = topright;
pos = (305,714);
}
);
layerId = "1D4F67F9-897D-45AD-B7F0-CA61A6862C03";
shapes = (
{
closed = 1;
nodes = (
(273,0,l),
(273,20,l),
(233,20,ls),
(183,20,o),
(177,31,o),
(177,108,cs),
(177,606,ls),
(177,683,o),
(183,694,o),
(233,694,cs),
(273,694,l),
(273,714,l),
(50,714,l),
(50,694,l),
(93,694,ls),
(143,694,o),
(149,683,o),
(149,606,cs),
(149,108,ls),
(149,31,o),
(143,20,o),
(93,20,cs),
(50,20,l),
(50,0,l)
);
}
);
width = 325;
},
{
anchors = (
{
name = bottom;
pos = (149,0);
},
{
name = center;
pos = (149,357);
},
{
name = top;
pos = (149,714);
},
{
name = topright;
pos = (277,714);
}
);
layerId = "A0CCC833-A561-4F2A-AF73-A35187C9FE5B";
shapes = (
{
closed = 1;
nodes = (
(270,0,l),
(270,41,l),
(251,41,ls),
(218,41,o),
(195,53,o),
(195,111,cs),
(195,602,ls),
(195,662,o),
(217,673,o),
(251,673,cs),
(270,673,l),
(270,714,l),
(28,714,l),
(28,673,l),
(47,673,ls),
(78,673,o),
(103,662,o),
(103,602,cs),
(103,110,ls),
(103,52,o),
(78,41,o),
(47,41,cs),
(28,41,l),
(28,0,l)
);
}
);
width = 297;
}
);
script = latin;
subCategory = Uppercase;
unicode = 73;
}
{
category = Letter;
glyphname = K;
kernLeft = B;
kernRight = K;
layers = (
{
anchors = (
{
name = bottom;
pos = (434,0);
},
{
name = center;
pos = (401,357);
},
{
name = top;
pos = (414,714);
},
{
name = topright;
pos = (761,714);
}
);
layerId = "E17BEC9D-CAAD-449F-91D9-03766E30097E";
shapes = (
{
closed = 1;
nodes = (
(386,0,l),
(386,61,l),
(362,61,ls),
(335,61,o),
(313,78,o),
(313,109,cs),
(313,291,l),
(335,305,l),
(441,131,ls),
(503,30,o),
(541,0,o),
(685,0,cs),
(781,0,l),
(781,61,l),
(775,61,ls),
(729,61,o),
(708,81,o),
(662,149,cs),
(467,435,l),
(599,570,ls),
(644,617,o),
(690,654,o),
(750,654,c),
(750,714,l),
(447,714,l),
(447,654,l),
(493,654,o),
(509,644,o),
(509,619,cs),
(509,584,o),
(488,556,o),
(447,511,cs),
(313,362,l),
(313,605,ls),
(313,636,o),
(328,653,o),
(352,653,cs),
(386,653,l),
(386,714,l),
(21,714,l),
(21,653,l),
(70,653,ls),
(95,653,o),
(113,636,o),
(113,606,cs),
(113,111,ls),
(113,77,o),
(91,61,o),
(64,61,cs),
(21,61,l),
(21,0,l)
);
}
);
width = 781;
},
{
anchors = (
{
name = bottom;
pos = (399,0);
},
{
name = center;
pos = (375,357);
},
{
name = top;
pos = (370,714);
},
{
name = topright;
pos = (680,714);
}
);
layerId = UUID0;
shapes = (
{
closed = 1;
nodes = (
(329,0,l),
(329,42,l),
(316,42,ls),
(271,42,o),
(234,51,o),
(234,114,cs),
(234,253,l),
(319,337,l),
(491,90,ls),
(541,18,o),
(567,0,o),
(701,0,cs),
(712,0,l),
(712,42,l),
(710,42,ls),
(673,42,o),
(638,70,o),
(600,122,cs),
(389,416,l),
(534,579,ls),
(586,637,o),
(622,673,o),
(668,673,c),
(668,714,l),
(447,714,l),
(447,673,l),
(480,673,o),
(496,668,o),
(496,651,cs),
(496,632,o),
(484,604,o),
(441,555,cs),
(234,318,l),
(234,600,ls),
(234,663,o),
(271,672,o),
(316,672,cs),
(329,672,l),
(329,714,l),
(38,714,l),
(38,672,l),
(51,672,ls),
(95,672,o),
(133,663,o),
(133,604,cs),
(133,109,ls),
(133,50,o),
(95,42,o),
(51,42,cs),
(38,42,l),
(38,0,l)
);
}
);
width = 700;
},
{
anchors = (
{
name = bottom;
pos = (356,0);
},
{
name = center;
pos = (335,357);
},
{
name = top;
pos = (345,714);
},
{
name = topright;
pos = (632,714);
}
);
layerId = "75A83886-EED5-4C31-9670-660514D8A4F6";
shapes = (
{
closed = 1;
nodes = (
(322,0,l),
(322,56,l),
(302,56,ls),
(280,56,o),
(262,71,o),
(262,109,cs),
(262,279,l),
(281,310,l),
(371,125,ls),
(418,28,o),
(451,0,o),
(571,0,cs),
(652,0,l),
(652,56,l),
(646,56,ls),
(608,56,o),
(590,78,o),
(554,142,cs),
(389,430,l),
(499,573,ls),
(537,623,o),
(575,659,o),
(625,659,c),
(625,714,l),
(373,714,l),
(373,659,l),
(411,659,o),
(424,650,o),
(424,628,cs),
(424,597,o),
(405,570,o),
(375,522,cs),
(262,348,l),
(262,605,ls),
(262,643,o),
(274,658,o),
(294,658,cs),
(322,658,l),
(322,714,l),
(18,714,l),
(18,658,l),
(58,658,ls),
(79,658,o),
(94,643,o),
(94,606,cs),
(94,110,ls),
(94,70,o),
(76,56,o),
(53,56,cs),
(18,56,l),
(18,0,l)
);
}
);
width = 652;
},
{
anchors = (
{
name = bottom;
pos = (272,0);
},
{
name = center;
pos = (278,357);
},
{
name = top;
pos = (272,714);
},
{
name = topright;
pos = (483,714);
}
);
layerId = "C91144B6-58F5-45F2-9CE4-7ED6CE127FD4";
shapes = (
{
closed = 1;
nodes = (
(219,0,l),
(219,20,l),
(194,20,ls),
(143,20,o),
(138,31,o),
(138,112,cs),
(138,234,l),
(238,383,l),
(410,89,ls),
(456,11,o),
(471,0,o),
(514,0,cs),
(520,0,l),
(520,20,l),
(515,20,ls),
(486,20,o),
(474,37,o),
(433,106,cs),
(255,409,l),
(376,589,ls),
(435,676,o),
(437,694,o),
(480,694,c),
(480,714,l),
(350,714,l),
(350,694,l),
(387,694,o),
(400,690,o),
(400,680,cs),
(400,667,o),
(387,650,o),
(345,587,cs),
(138,278,l),
(138,607,ls),
(138,683,o),
(144,694,o),
(194,694,cs),
(219,694,l),
(219,714,l),
(36,714,l),
(36,694,l),
(54,694,ls),
(104,694,o),
(110,683,o),
(110,607,cs),
(110,108,ls),
(110,31,o),
(104,20,o),
(54,20,cs),
(36,20,l),
(36,0,l)
);
}
);
width = 503;
},
{
anchors = (
{
name = bottom;
pos = (349,0);
},
{
name = center;
pos = (368,357);
},
{
name = top;
pos = (349,714);
},
{
name = topright;
pos = (638,714);
}
);
layerId = "1D4F67F9-897D-45AD-B7F0-CA61A6862C03";
shapes = (
{
closed = 1;
nodes = (
(278,0,l),
(278,20,l),
(233,20,ls),
(183,20,o),
(177,31,o),
(177,108,cs),
(177,220,l),
(312,382,l),
(545,104,ls),
(618,16,o),
(637,0,o),
(680,0,cs),
(686,0,l),
(686,25,l),
(684,25,ls),
(658,25,o),
(636,39,o),
(580,106,cs),
(331,403,l),
(500,603,ls),
(553,666,o),
(568,693,o),
(620,694,c),
(620,714,l),
(463,714,l),
(463,694,l),
(500,694,o),
(518,694,o),
(518,680,cs),
(518,665,o),
(507,653,o),
(457,593,cs),
(177,259,l),
(177,606,ls),
(177,683,o),
(183,694,o),
(233,694,cs),
(276,694,l),
(276,714,l),
(50,714,l),
(50,694,l),
(93,694,ls),
(143,694,o),
(149,683,o),
(149,606,cs),
(149,108,ls),
(149,31,o),
(143,20,o),
(93,20,cs),
(50,20,l),
(50,0,l)
);
}
);
width = 658;
},
{
anchors = (
{
name = bottom;
pos = (320,0);
},
{
name = center;
pos = (302,357);
},
{
name = top;
pos = (310,714);
},
{
name = topright;
pos = (548,714);
}
);
layerId = "A0CCC833-A561-4F2A-AF73-A35187C9FE5B";
shapes = (
{
closed = 1;
nodes = (
(264,0,l),
(264,41,l),
(255,41,ls),
(219,41,o),
(196,52,o),
(196,110,cs),
(196,255,l),
(259,344,l),
(389,105,ls),
(434,19,o),
(458,0,o),
(546,0,cs),
(577,0,l),
(577,41,l),
(574,41,ls),
(545,41,o),
(519,70,o),
(489,122,cs),
(318,414,l),
(433,582,ls),
(473,641,o),
(503,674,o),
(541,674,c),
(541,714,l),
(358,714,l),
(358,674,l),
(388,674,o),
(401,669,o),
(401,653,cs),
(401,634,o),
(387,609,o),
(353,557,cs),
(196,306,l),
(196,604,ls),
(196,662,o),
(217,673,o),
(252,673,cs),
(264,673,l),
(264,714,l),
(28,714,l),
(28,673,l),
(45,673,ls),
(79,673,o),
(103,662,o),
(103,607,cs),
(103,107,ls),
(103,51,o),
(78,41,o),
(43,41,cs),
(28,41,l),
(28,0,l)
);
}
);
width = 568;
}
);
script = latin;
subCategory = Uppercase;
unicode = 75;
}
{
category = Letter;
glyphname = M;
kernLeft = B;
kernRight = H;
layers = (
{
anchors = (
{
name = bottom;
pos = (456,0);
},
{
name = center;
pos = (481,357);
},
{
name = top;
pos = (481,714);
},
{
name = topright;
pos = (942,714);
}
);
layerId = "E17BEC9D-CAAD-449F-91D9-03766E30097E";
shapes = (
{
closed = 1;
nodes = (
(282,0,l),
(282,61,l),
(273,61,ls),
(225,61,o),
(198,68,o),
(198,121,cs),
(198,599,l),
(393,0,l),
(472,0,l),
(654,597,l),
(654,122,l),
(654,77,o),
(639,61,o),
(597,61,cs),
(582,61,l),
(582,0,l),
(942,0,l),
(942,61,l),
(899,61,ls),
(866,61,o),
(851,78,o),
(851,108,cs),
(851,605,ls),
(851,636,o),
(871,653,o),
(889,653,cs),
(942,653,l),
(942,714,l),
(614,714,l),
(489,297,l),
(353,714,l),
(21,714,l),
(21,653,l),
(70,653,ls),
(91,653,o),
(113,636,o),
(113,598,cs),
(113,116,ls),
(113,77,o),
(91,61,o),
(54,61,cs),
(21,61,l),
(21,0,l)
);
}
);
width = 962;
},
{
anchors = (
{
name = bottom;
pos = (462,0);
},
{
name = center;
pos = (469,357);
},
{
name = top;
pos = (469,714);
},
{
name = topright;
pos = (918,714);
}
);
layerId = UUID0;
shapes = (
{
closed = 1;
nodes = (
(269,0,l),
(269,42,l),
(266,42,ls),
(221,42,o),
(194,51,o),
(194,114,cs),
(194,637,l),
(426,0,l),
(480,0,l),
(709,639,l),
(709,105,l),
(706,50,o),
(680,42,o),
(637,42,cs),
(634,42,l),
(634,0,l),
(900,0,l),
(900,42,l),
(887,42,ls),
(842,42,o),
(805,51,o),
(805,114,cs),
(805,600,l),
(805,663,o),
(842,672,o),
(887,672,cs),
(900,672,l),
(900,714,l),
(678,714,l),
(473,142,l),
(266,714,l),
(38,714,l),
(38,672,l),
(51,672,ls),
(95,672,o),
(133,663,o),
(133,604,cs),
(133,109,ls),
(133,50,o),
(95,42,o),
(51,42,cs),
(38,42,l),
(38,0,l)
);
}
);
width = 938;
},
{
anchors = (
{
name = bottom;
pos = (455,0);
},
{
name = center;
pos = (476,357);
},
{
name = top;
pos = (476,714);
},
{
name = topright;
pos = (932,714);
}
);
layerId = "58AAA307-6DE9-4107-B80A-C255AE991657";
shapes = (
{
closed = 1;
nodes = (
(276,0,l),
(276,53,l),
(270,53,ls),
(223,53,o),
(196,61,o),
(196,118,cs),
(196,615,l),
(407,0,l),
(475,0,l),
(677,615,l),
(677,109,ls),
(677,60,o),
(656,53,o),
(614,53,cs),
(604,53,l),
(604,0,l),
(924,0,l),
(924,53,l),
(882,53,ls),
(853,53,o),
(831,61,o),
(831,118,cs),
(831,596,ls),
(831,653,o),
(853,661,o),
(882,661,cs),
(924,661,l),
(924,714,l),
(641,714,l),
(482,231,l),
(316,714,l),
(28,714,l),
(28,661,l),
(70,661,ls),
(98,661,o),
(121,653,o),
(121,600,cs),
(121,113,l),
(121,60,o),
(98,53,o),
(70,53,cs),
(28,53,l),
(28,0,l)
);
}
);
width = 952;
},
{
anchors = (
{
name = bottom;
pos = (371,0);
},
{
name = center;
pos = (401,357);
},
{
name = top;
pos = (401,714);
},
{
name = topright;
pos = (782,714);
}
);
layerId = "75A83886-EED5-4C31-9670-660514D8A4F6";
shapes = (
{
closed = 1;
nodes = (
(235,0,l),
(235,56,l),
(228,56,ls),
(188,56,o),
(165,63,o),
(165,119,cs),
(165,609,l),
(312,0,l),
(406,0,l),
(545,608,l),
(545,120,ls),
(545,71,o),
(533,56,o),
(498,56,c),
(485,56,l),
(485,0,l),
(785,0,l),
(785,56,l),
(750,56,ls),
(722,56,o),
(710,71,o),
(710,109,cs),
(710,605,ls),
(710,643,o),
(727,658,o),
(741,658,cs),
(785,658,l),
(785,714,l),
(499,714,l),
(397,255,l),
(295,714,l),
(18,714,l),
(18,658,l),
(58,658,ls),
(76,658,o),
(94,643,o),
(94,600,cs),
(94,114,ls),
(94,70,o),
(76,56,o),
(45,56,cs),
(18,56,l),
(18,0,l)
);
}
);
width = 802;
},
{
anchors = (
{
name = bottom;
pos = (354,0);
},
{
name = center;
pos = (350,357);
},
{
name = top;
pos = (351,714);
},
{
name = topright;
pos = (681,714);
}
);
layerId = "C91144B6-58F5-45F2-9CE4-7ED6CE127FD4";
shapes = (
{
closed = 1;
nodes = (
(208,0,l),
(208,20,l),
(191,20,ls),
(141,20,o),
(135,31,o),
(135,108,cs),
(135,663,l),
(342,0,l),
(365,0,l),
(563,669,l),
(563,108,ls),
(563,31,o),
(557,20,o),
(507,20,cs),
(488,20,l),
(488,0,l),
(665,0,l),
(665,20,l),
(647,20,ls),
(597,20,o),
(591,31,o),
(591,108,cs),
(591,606,ls),
(591,683,o),
(597,694,o),
(647,694,cs),
(665,694,l),
(665,714,l),
(551,714,l),
(355,52,l),
(145,714,l),
(36,714,l),
(36,694,l),
(54,694,ls),
(104,694,o),
(110,683,o),
(110,606,cs),
(110,108,ls),
(110,31,o),
(104,20,o),
(54,20,cs),
(36,20,l),
(36,0,l)
);
}
);
width = 701;
},
{
anchors = (
{
name = bottom;
pos = (452,0);
},
{
name = center;
pos = (454,357);
},
{
name = top;
pos = (454,714);
},
{
name = topright;
pos = (888,714);
}
);
layerId = "1D4F67F9-897D-45AD-B7F0-CA61A6862C03";
shapes = (
{
closed = 1;
nodes = (
(263,0,l),
(263,20,l),
(230,20,ls),
(180,20,o),
(174,31,o),
(174,108,cs),
(174,663,l),
(435,0,l),
(471,0,l),
(733,669,l),
(733,108,ls),
(733,31,o),
(727,20,o),
(677,20,cs),
(622,20,l),
(622,0,l),
(858,0,l),
(858,20,l),
(817,20,ls),
(767,20,o),
(761,31,o),
(761,108,cs),
(761,606,ls),
(761,683,o),
(767,694,o),
(817,694,cs),
(858,694,l),
(858,714,l),
(721,714,l),
(453,31,l),
(184,714,l),
(50,714,l),
(50,694,l),
(93,694,ls),
(143,694,o),
(149,683,o),
(149,606,cs),
(149,108,ls),
(149,31,o),
(143,20,o),
(93,20,cs),
(50,20,l),
(50,0,l)
);
}
);
width = 908;
},
{
anchors = (
{
name = bottom;
pos = (363,0);
},
{
name = center;
pos = (372,357);
},
{
name = top;
pos = (373,714);
},
{
name = topright;
pos = (725,714);
}
);
layerId = "A0CCC833-A561-4F2A-AF73-A35187C9FE5B";
shapes = (
{
closed = 1;
nodes = (
(220,0,l),
(220,41,l),
(211,41,ls),
(176,41,o),
(154,50,o),
(154,113,cs),
(154,640,l),
(329,0,l),
(383,0,l),
(555,642,l),
(555,113,ls),
(555,52,o),
(537,41,o),
(497,41,c),
(486,41,l),
(486,0,l),
(717,0,l),
(717,41,l),
(702,41,ls),
(665,41,o),
(643,52,o),
(643,110,cs),
(643,604,ls),
(643,662,o),
(667,673,o),
(699,673,cs),
(717,673,l),
(717,714,l),
(525,714,l),
(373,133,l),
(220,714,l),
(28,714,l),
(28,673,l),
(45,673,ls),
(78,673,o),
(103,662,o),
(103,605,cs),
(103,108,ls),
(103,51,o),
(78,41,o),
(40,41,cs),
(28,41,l),
(28,0,l)
);
}
);
width = 745;
},
{
anchors = (
{
name = bottom;
pos = (369,0);
},
{
name = center;
pos = (388,357);
},
{
name = top;
pos = (389,714);
},
{
name = topright;
pos = (757,714);
}
);
layerId = "BD18C76C-096B-4C52-83B4-518A374966BE";
shapes = (
{
closed = 1;
nodes = (
(228,0,l),
(228,49,l),
(221,49,ls),
(183,49,o),
(160,57,o),
(160,116,cs),
(160,622,l),
(319,0,l),
(396,0,l),
(549,623,l),
(549,117,ls),
(549,63,o),
(535,49,o),
(497,49,c),
(486,49,l),
(486,0,l),
(755,0,l),
(755,49,l),
(729,49,ls),
(697,49,o),
(681,63,o),
(681,110,cs),
(681,604,ls),
(681,651,o),
(701,665,o),
(723,665,cs),
(755,665,l),
(755,714,l),
(510,714,l),
(387,202,l),
(263,714,l),
(22,714,l),
(22,665,l),
(52,665,ls),
(77,665,o),
(98,651,o),
(98,602,cs),
(98,111,ls),
(98,62,o),
(77,49,o),
(43,49,cs),
(22,49,l),
(22,0,l)
);
}
);
width = 777;
}
);
script = latin;
subCategory = Uppercase;
unicode = 77;
}
{
category = Letter;
glyphname = N;
kernLeft = B;
kernRight = N;
layers = (
{
anchors = (
{
name = bottom;
pos = (403,0);
},
{
name = center;
pos = (409,357);
},
{
name = top;
pos = (403,714);
},
{
name = topright;
pos = (786,714);
}
);
layerId = "E17BEC9D-CAAD-449F-91D9-03766E30097E";
shapes = (
{
closed = 1;
nodes = (
(289,0,l),
(289,61,l),
(246,61,ls),
(211,61,o),
(198,68,o),
(198,121,cs),
(198,533,l),
(599,0,l),
(706,0,l),
(706,593,ls),
(706,636,o),
(725,653,o),
(755,653,cs),
(798,653,l),
(798,714,l),
(530,714,l),
(530,653,l),
(573,653,ls),
(600,653,o),
(621,639,o),
(621,597,c),
(621,255,l),
(272,714,l),
(21,714,l),
(21,653,l),
(63,653,ls),
(89,653,o),
(113,646,o),
(113,597,c),
(113,121,ls),
(113,68,o),
(90,61,o),
(54,61,cs),
(21,61,l),
(21,0,l)
);
}
);
width = 806;
},
{
anchors = (
{
name = bottom;
pos = (382,0);
},
{
name = center;
pos = (386,357);
},
{
name = top;
pos = (382,714);
},
{
name = topright;
pos = (743,714);
}
);
layerId = UUID0;
shapes = (
{
closed = 1;
nodes = (
(289,0,l),
(289,42,l),
(276,42,ls),
(231,42,o),
(194,51,o),
(194,114,cs),
(194,576,l),
(569,0,l),
(640,0,l),
(640,600,ls),
(640,663,o),
(677,672,o),
(722,672,cs),
(735,672,l),
(735,714,l),
(484,714,l),
(484,672,l),
(497,672,ls),
(541,672,o),
(579,663,o),
(579,604,c),
(579,161,l),
(221,714,l),
(38,714,l),
(38,672,l),
(51,672,ls),
(95,672,o),
(133,663,o),
(133,604,c),
(133,114,ls),
(133,51,o),
(96,42,o),
(51,42,cs),
(38,42,l),
(38,0,l)
);
}
);
width = 763;
},
{
anchors = (
{
name = bottom;
pos = (394,0);
},
{
name = center;
pos = (399,357);
},
{
name = top;
pos = (394,714);
},
{
name = topright;
pos = (768,714);
}
);
layerId = "58AAA307-6DE9-4107-B80A-C255AE991657";
shapes = (
{
closed = 1;
nodes = (
(289,0,l),
(289,53,l),
(247,53,l),
(219,53,o),
(196,61,o),
(196,118,c),
(196,551,l),
(586,0,l),
(678,0,l),
(678,596,l),
(678,653,o),
(701,661,o),
(729,661,c),
(771,661,l),
(771,714,l),
(510,714,l),
(510,661,l),
(552,661,l),
(579,661,o),
(603,653,o),
(603,600,c),
(603,215,l),
(250,714,l),
(28,714,l),
(28,661,l),
(70,661,l),
(97,661,o),
(121,653,o),
(121,600,cs),
(121,118,l),
(121,61,o),
(98,53,o),
(70,53,c),
(28,53,l),
(28,0,l)
);
}
);
width = 788;
},
{
anchors = (
{
name = bottom;
pos = (336,0);
},
{
name = center;
pos = (341,357);
},
{
name = top;
pos = (346,714);
},
{
name = topright;
pos = (652,714);
}
);
layerId = "75A83886-EED5-4C31-9670-660514D8A4F6";
shapes = (
{
closed = 1;
nodes = (
(241,0,l),
(241,56,l),
(205,56,ls),
(176,56,o),
(165,63,o),
(165,119,cs),
(165,549,l),
(469,0,l),
(589,0,l),
(589,595,ls),
(589,643,o),
(605,658,o),
(630,658,cs),
(665,658,l),
(665,714,l),
(442,714,l),
(442,658,l),
(478,658,ls),
(500,658,o),
(518,645,o),
(518,599,cs),
(518,228,l),
(255,714,l),
(18,714,l),
(18,658,l),
(53,658,ls),
(74,658,o),
(94,651,o),
(94,599,cs),
(94,119,ls),
(94,63,o),
(75,56,o),
(45,56,cs),
(18,56,l),
(18,0,l)
);
}
);
width = 672;
},
{
anchors = (
{
name = bottom;
pos = (290,0);
},
{
name = center;
pos = (283,357);
},
{
name = top;
pos = (280,714);
},
{
name = topright;
pos = (539,714);
}
);
layerId = "C91144B6-58F5-45F2-9CE4-7ED6CE127FD4";
shapes = (
{
closed = 1;
nodes = (
(219,0,l),
(219,20,l),
(191,20,ls),
(141,20,o),
(135,31,o),
(135,108,cs),
(135,639,l),
(432,0,l),
(457,0,l),
(457,606,ls),
(457,683,o),
(463,694,o),
(513,694,cs),
(531,694,l),
(531,714,l),
(348,714,l),
(348,694,l),
(376,694,ls),
(426,694,o),
(432,683,o),
(432,606,cs),
(432,67,l),
(131,714,l),
(36,714,l),
(36,694,l),
(54,694,ls),
(104,694,o),
(110,683,o),
(110,606,cs),
(110,108,ls),
(110,31,o),
(104,20,o),
(54,20,cs),
(36,20,l),
(36,0,l)
);
}
);
width = 559;
},
{
anchors = (
{
name = bottom;
pos = (376,0);
},
{
name = center;
pos = (369,357);
},
{
name = top;
pos = (366,714);
},
{
name = topright;
pos = (711,714);
}
);
layerId = "1D4F67F9-897D-45AD-B7F0-CA61A6862C03";
shapes = (
{
closed = 1;
nodes = (
(271,0,l),
(271,20,l),
(230,20,ls),
(180,20,o),
(174,31,o),
(174,108,cs),
(174,653,l),
(567,0,l),
(592,0,l),
(592,606,ls),
(592,683,o),
(598,694,o),
(648,694,cs),
(689,694,l),
(689,714,l),
(470,714,l),
(470,694,l),
(511,694,ls),
(561,694,o),
(567,683,o),
(567,606,cs),
(567,55,l),
(170,714,l),
(50,714,l),
(50,694,l),
(93,694,ls),
(143,694,o),
(149,683,o),
(149,606,cs),
(149,108,ls),
(149,31,o),
(143,20,o),
(93,20,cs),
(50,20,l),
(50,0,l)
);
}
);
width = 731;
},
{
anchors = (
{
name = bottom;
pos = (305,0);
},
{
name = center;
pos = (308,357);
},
{
name = top;
pos = (305,714);
},
{
name = topright;
pos = (588,714);
}
);
layerId = "A0CCC833-A561-4F2A-AF73-A35187C9FE5B";
shapes = (
{
closed = 1;
nodes = (
(229,0,l),
(229,41,l),
(213,41,ls),
(176,41,o),
(154,50,o),
(154,113,cs),
(154,594,l),
(451,0,l),
(514,0,l),
(514,601,ls),
(514,662,o),
(538,673,o),
(574,673,cs),
(589,673,l),
(589,714,l),
(389,714,l),
(389,673,l),
(403,673,ls),
(439,673,o),
(463,663,o),
(463,605,cs),
(463,150,l),
(186,714,l),
(28,714,l),
(28,673,l),
(43,673,ls),
(78,673,o),
(103,664,o),
(103,605,cs),
(103,113,ls),
(103,50,o),
(79,41,o),
(40,41,cs),
(28,41,l),
(28,0,l)
);
}
);
width = 608;
},
{
anchors = (
{
name = bottom;
pos = (332,0);
},
{
name = center;
pos = (327,357);
},
{
name = top;
pos = (322,714);
},
{
name = topright;
pos = (624,714);
}
);
layerId = "BD18C76C-096B-4C52-83B4-518A374966BE";
shapes = (
{
closed = 1;
nodes = (
(236,0,l),
(236,49,l),
(208,49,ls),
(176,49,o),
(160,57,o),
(160,116,cs),
(160,569,l),
(461,0,l),
(557,0,l),
(557,598,ls),
(557,651,o),
(576,665,o),
(606,665,cs),
(632,665,l),
(632,714,l),
(419,714,l),
(419,665,l),
(446,665,ls),
(473,665,o),
(494,653,o),
(494,602,cs),
(494,194,l),
(225,714,l),
(22,714,l),
(22,665,l),
(49,665,ls),
(76,665,o),
(98,657,o),
(98,602,cs),
(98,116,ls),
(98,57,o),
(77,49,o),
(43,49,cs),
(22,49,l),
(22,0,l)
);
}
);
width = 644;
}
);
script = latin;
subCategory = Uppercase;
unicode = 78;
}
{
category = Letter;
glyphname = O;
kernLeft = O;
kernRight = O;
layers = (
{
anchors = (
{
name = bottom;
pos = (410,0);
},
{
name = center;
pos = (410,357);
},
{
name = top;
pos = (410,714);
},
{
name = topright;
pos = (800,714);
}
);
layerId = "E17BEC9D-CAAD-449F-91D9-03766E30097E";
shapes = (
{
closed = 1;
nodes = (
(639,-10,o),
(766,137,o),
(766,358,cs),
(766,580,o),
(639,725,o),
(412,725,cs),
(171,725,o),
(54,580,o),
(54,359,cs),
(54,137,o),
(171,-10,o),
(411,-10,cs)
);
},
{
closed = 1;
nodes = (
(304,63,o),
(264,172,o),
(264,358,cs),
(264,544,o),
(304,652,o),
(412,652,cs),
(518,652,o),
(556,544,o),
(556,358,cs),
(556,172,o),
(518,63,o),
(411,63,cs)
);
}
);
width = 820;
},
{
anchors = (
{
name = bottom;
pos = (371,0);
},
{
name = center;
pos = (371,357);
},
{
name = top;
pos = (371,714);
},
{
name = topright;
pos = (722,714);
}
);
layerId = UUID0;
shapes = (
{
closed = 1;
nodes = (
(573,-10,o),
(685,137,o),
(685,358,cs),
(685,580,o),
(573,725,o),
(372,725,cs),
(159,725,o),
(56,580,o),
(56,359,cs),
(56,137,o),
(159,-10,o),
(371,-10,cs)
);
},
{
closed = 1;
nodes = (
(223,44,o),
(167,160,o),
(167,358,cs),
(167,556,o),
(223,671,o),
(372,671,cs),
(520,671,o),
(574,556,o),
(574,358,cs),
(574,160,o),
(520,44,o),
(371,44,cs)
);
}
);
width = 742;
},
{
anchors = (
{
name = bottom;
pos = (342,0);
},
{
name = center;
pos = (342,357);
},
{
name = top;
pos = (342,714);
},
{
name = topright;
pos = (664,714);
}
);
layerId = "75A83886-EED5-4C31-9670-660514D8A4F6";
shapes = (
{
closed = 1;
nodes = (
(533,-10,o),
(639,137,o),
(639,358,cs),
(639,580,o),
(533,725,o),
(344,725,cs),
(142,725,o),
(45,580,o),
(45,359,cs),
(45,137,o),
(142,-10,o),
(343,-10,cs)
);
},
{
closed = 1;
nodes = (
(254,58,o),
(221,169,o),
(221,358,cs),
(221,547,o),
(254,657,o),
(344,657,cs),
(432,657,o),
(464,547,o),
(464,358,cs),
(464,169,o),
(432,58,o),
(343,58,cs)
);
}
);
width = 684;
},
{
anchors = (
{
name = bottom;
pos = (265,0);
},
{
name = center;
pos = (265,357);
},
{
name = top;
pos = (265,714);
},
{
name = topright;
pos = (510,714);
}
);
layerId = "C91144B6-58F5-45F2-9CE4-7ED6CE127FD4";
shapes = (
{
closed = 1;
nodes = (
(404,-10,o),
(485,125,o),
(485,358,cs),
(485,610,o),
(414,725,o),
(265,725,cs),
(118,725,o),
(44,596,o),
(44,359,cs),
(44,137,o),
(116,-10,o),
(264,-10,cs)
);
},
{
closed = 1;
nodes = (
(137,15,o),
(72,153,o),
(72,358,cs),
(72,574,o),
(131,700,o),
(265,700,cs),
(406,700,o),
(457,574,o),
(457,358,cs),
(457,146,o),
(392,15,o),
(264,15,cs)
);
}
);
width = 530;
},
{
anchors = (
{
name = bottom;
pos = (343,0);
},
{
name = center;
pos = (343,357);
},
{
name = top;
pos = (343,714);
},
{
name = topright;
pos = (666,714);
}
);
layerId = "1D4F67F9-897D-45AD-B7F0-CA61A6862C03";
shapes = (
{
closed = 1;
nodes = (
(545,-10,o),
(627,135,o),
(627,358,cs),
(627,590,o),
(547,725,o),
(344,725,cs),
(157,725,o),
(58,592,o),
(58,359,cs),
(58,125,o),
(153,-10,o),
(343,-10,cs)
);
},
{
closed = 1;
nodes = (
(172,15,o),
(86,143,o),
(86,358,cs),
(86,573,o),
(172,700,o),
(344,700,cs),
(530,700,o),
(599,573,o),
(599,358,cs),
(599,145,o),
(524,15,o),
(343,15,cs)
);
}
);
width = 686;
},
{
anchors = (
{
name = bottom;
pos = (299,0);
},
{
name = center;
pos = (299,357);
},
{
name = top;
pos = (299,714);
},
{
name = topright;
pos = (577,714);
}
);
layerId = "A0CCC833-A561-4F2A-AF73-A35187C9FE5B";
shapes = (
{
closed = 1;
nodes = (
(461,-10,o),
(552,137,o),
(552,358,cs),
(552,580,o),
(461,725,o),
(299,725,cs),
(127,725,o),
(44,580,o),
(44,359,cs),
(44,137,o),
(127,-10,o),
(298,-10,cs)
);
},
{
closed = 1;
nodes = (
(190,43,o),
(144,160,o),
(144,358,cs),
(144,557,o),
(190,672,o),
(299,672,cs),
(412,672,o),
(452,557,o),
(452,358,cs),
(452,160,o),
(412,43,o),
(298,43,cs)
);
}
);
width = 597;
}
);
script = latin;
subCategory = Uppercase;
unicode = 79;
}
{
category = Letter;
glyphname = P;
kernLeft = B;
kernRight = P;
layers = (
{
anchors = (
{
name = bottom;
pos = (213,0);
},
{
name = center;
pos = (340,357);
},
{
name = top;
pos = (332,714);
},
{
name = topright;
pos = (683,714);
}
);
layerId = "E17BEC9D-CAAD-449F-91D9-03766E30097E";
shapes = (
{
closed = 1;
nodes = (
(426,0,l),
(426,61,l),
(359,61,ls),
(334,61,o),
(313,67,o),
(313,116,cs),
(313,269,l),
(335,269,ls),
(572,269,o),
(660,367,o),
(660,500,cs),
(660,643,o),
(565,714,o),
(357,714,c),
(21,714,l),
(21,653,l),
(66,653,ls),
(88,653,o),
(113,646,o),
(113,597,cs),
(113,121,l),
(113,68,o),
(89,61,o),
(61,61,cs),
(21,61,l),
(21,0,l)
);
},
{
closed = 1;
nodes = (
(312,335,l),
(312,647,l),
(340,647,l),
(416,647,o),
(452,599,o),
(452,496,cs),
(452,381,o),
(413,335,o),
(326,335,cs)
);
}
);
width = 663;
},
{
anchors = (
{
name = bottom;
pos = (184,0);
},
{
name = center;
pos = (301,357);
},
{
name = top;
pos = (302,714);
},
{
name = topright;
pos = (589,714);
}
);
layerId = UUID0;
shapes = (
{
closed = 1;
nodes = (
(349,0,l),
(349,42,l),
(316,42,ls),
(272,42,o),
(234,50,o),
(234,109,cs),
(234,278,l),
(297,278,ls),
(495,278,o),
(565,386,o),
(565,505,cs),
(565,635,o),
(487,714,o),
(319,714,c),
(38,714,l),
(38,672,l),
(51,672,ls),
(95,672,o),
(133,663,o),
(133,604,cs),
(133,114,l),
(133,51,o),
(96,42,o),
(51,42,cs),
(38,42,l),
(38,0,l)
);
},
{
closed = 1;
nodes = (
(234,325,l),
(234,666,l),
(302,666,ls),
(415,666,o),
(457,613,o),
(457,501,cs),
(457,374,o),
(408,325,o),
(287,325,cs)
);
}
);
width = 604;
},
{
anchors = (
{
name = bottom;
pos = (200,0);
},
{
name = center;
pos = (318,357);
},
{
name = top;
pos = (319,714);
},
{
name = topright;
pos = (628,714);
}
);
layerId = "58AAA307-6DE9-4107-B80A-C255AE991657";
shapes = (
{
closed = 1;
nodes = (
(393,0,l),
(393,53,l),
(332,53,l),
(304,53,o),
(279,60,o),
(279,113,cs),
(279,273,l),
(313,273,l),
(529,273,o),
(608,382,o),
(608,502,cs),
(608,633,o),
(520,714,o),
(335,714,cs),
(28,714,l),
(28,661,l),
(70,661,l),
(98,661,o),
(121,653,o),
(121,600,cs),
(121,118,l),
(121,61,o),
(99,53,o),
(70,53,c),
(28,53,l),
(28,0,l)
);
},
{
closed = 1;
nodes = (
(279,331,l),
(279,655,l),
(318,655,l),
(407,655,o),
(440,605,o),
(440,498,cs),
(440,378,o),
(402,331,o),
(303,331,c)
);
}
);
width = 638;
},
{
anchors = (
{
name = bottom;
pos = (178,0);
},
{
name = center;
pos = (284,357);
},
{
name = top;
pos = (277,714);
},
{
name = topright;
pos = (583,714);
}
);
layerId = "75A83886-EED5-4C31-9670-660514D8A4F6";
shapes = (
{
closed = 1;
nodes = (
(356,0,l),
(356,56,l),
(300,56,ls),
(279,56,o),
(262,62,o),
(262,114,cs),
(262,271,l),
(280,271,ls),
(477,271,o),
(551,371,o),
(551,501,cs),
(551,642,o),
(472,714,o),
(298,714,cs),
(18,714,l),
(18,658,l),
(55,658,ls),
(74,658,o),
(94,651,o),
(94,599,cs),
(94,119,ls),
(94,63,o),
(74,56,o),
(51,56,cs),
(18,56,l),
(18,0,l)
);
},
{
closed = 1;
nodes = (
(261,332,l),
(261,652,l),
(284,652,ls),
(347,652,o),
(377,603,o),
(377,497,cs),
(377,379,o),
(345,332,o),
(272,332,cs)
);
}
);
width = 553;
},
{
anchors = (
{
name = bottom;
pos = (123,0);
},
{
name = center;
pos = (214,357);
},
{
name = top;
pos = (217,714);
},
{
name = topright;
pos = (418,714);
}
);
layerId = "C91144B6-58F5-45F2-9CE4-7ED6CE127FD4";
shapes = (
{
closed = 1;
nodes = (
(222,0,l),
(222,20,l),
(193,20,ls),
(143,20,o),
(137,31,o),
(137,108,cs),
(137,284,l),
(207,284,ls),
(349,284,o),
(393,399,o),
(393,509,cs),
(393,647,o),
(339,714,o),
(217,714,cs),
(36,714,l),
(36,694,l),
(53,694,ls),
(103,694,o),
(109,683,o),
(109,606,cs),
(109,109,ls),
(109,31,o),
(103,20,o),
(53,20,cs),
(36,20,l),
(36,0,l)
);
},
{
closed = 1;
nodes = (
(137,309,l),
(137,689,l),
(217,689,ls),
(325,689,o),
(365,629,o),
(365,509,cs),
(365,420,o),
(333,309,o),
(210,309,cs)
);
}
);
width = 433;
},
{
anchors = (
{
name = bottom;
pos = (163,0);
},
{
name = center;
pos = (280,357);
},
{
name = top;
pos = (281,714);
},
{
name = topright;
pos = (542,714);
}
);
layerId = "1D4F67F9-897D-45AD-B7F0-CA61A6862C03";
shapes = (
{
closed = 1;
nodes = (
(293,0,l),
(293,20,l),
(233,20,ls),
(183,20,o),
(177,31,o),
(177,108,cs),
(177,284,l),
(277,284,ls),
(452,284,o),
(511,383,o),
(511,509,cs),
(511,639,o),
(449,714,o),
(299,714,cs),
(50,714,l),
(50,694,l),
(93,694,ls),
(143,694,o),
(149,683,o),
(149,606,cs),
(149,108,ls),
(149,31,o),
(143,20,o),
(93,20,cs),
(50,20,l),
(50,0,l)
);
},
{
closed = 1;
nodes = (
(177,309,l),
(177,689,l),
(299,689,ls),
(430,689,o),
(483,624,o),
(483,509,cs),
(483,401,o),
(438,309,o),
(276,309,cs)
);
}
);
width = 562;
},
{
anchors = (
{
name = bottom;
pos = (150,0);
},
{
name = center;
pos = (245,357);
},
{
name = top;
pos = (243,714);
},
{
name = topright;
pos = (486,714);
}
);
layerId = "A0CCC833-A561-4F2A-AF73-A35187C9FE5B";
shapes = (
{
closed = 1;
nodes = (
(281,0,l),
(281,41,l),
(258,41,ls),
(224,41,o),
(196,49,o),
(196,108,cs),
(196,278,l),
(241,278,ls),
(404,278,o),
(462,384,o),
(462,505,cs),
(462,638,o),
(398,714,o),
(259,714,cs),
(28,714,l),
(28,673,l),
(44,673,ls),
(77,673,o),
(103,664,o),
(103,605,cs),
(103,113,ls),
(103,50,o),
(78,41,o),
(42,41,cs),
(28,41,l),
(28,0,l)
);
},
{
closed = 1;
nodes = (
(195,324,l),
(195,667,l),
(246,667,ls),
(331,667,o),
(365,614,o),
(365,501,cs),
(365,373,o),
(327,324,o),
(234,324,cs)
);
}
);
width = 485;
},
{
anchors = (
{
name = bottom;
pos = (166,0);
},
{
name = center;
pos = (267,357);
},
{
name = top;
pos = (262,714);
},
{
name = topright;
pos = (541,714);
}
);
layerId = "BD18C76C-096B-4C52-83B4-518A374966BE";
shapes = (
{
closed = 1;
nodes = (
(323,0,l),
(323,49,l),
(282,49,ls),
(255,49,o),
(233,56,o),
(233,111,cs),
(233,274,l),
(263,274,ls),
(445,274,o),
(512,377,o),
(512,503,cs),
(512,640,o),
(440,714,o),
(281,714,cs),
(22,714,l),
(22,665,l),
(50,665,ls),
(75,665,o),
(98,657,o),
(98,602,cs),
(98,116,ls),
(98,57,o),
(76,49,o),
(47,49,cs),
(22,49,l),
(22,0,l)
);
},
{
closed = 1;
nodes = (
(232,329,l),
(232,659,l),
(268,659,ls),
(340,659,o),
(372,608,o),
(372,499,cs),
(372,376,o),
(337,329,o),
(256,329,cs)
);
}
);
width = 523;
}
);
script = latin;
subCategory = Uppercase;
unicode = 80;
}
{
category = Letter;
glyphname = Q;
kernLeft = O;
kernRight = O;
layers = (
{
anchors = (
{
name = bottom;
pos = (410,-240);
},
{
name = center;
pos = (410,242);
},
{
name = top;
pos = (410,714);
},
{
name = topright;
pos = (800,714);
}
);
layerId = "E17BEC9D-CAAD-449F-91D9-03766E30097E";
shapes = (
{
closed = 1;
nodes = (
(683,-240,l),
(683,-174,l),
(667,-174,ls),
(612,-174,o),
(537,-151,o),
(526,3,c),
(682,48,o),
(766,177,o),
(766,358,cs),
(766,580,o),
(639,725,o),
(412,725,cs),
(171,725,o),
(54,580,o),
(54,359,cs),
(54,169,o),
(140,34,o),
(317,-1,c),
(330,-169,o),
(460,-240,o),
(590,-240,cs)
);
},
{
closed = 1;
nodes = (
(304,63,o),
(264,172,o),
(264,358,cs),
(264,544,o),
(304,652,o),
(412,652,cs),
(518,652,o),
(556,544,o),
(556,358,cs),
(556,172,o),
(518,63,o),
(411,63,cs)
);
}
);
width = 820;
},
{
anchors = (
{
name = bottom;
pos = (371,-230);
},
{
name = center;
pos = (370,247);
},
{
name = top;
pos = (371,714);
},
{
name = topright;
pos = (722,714);
}
);
layerId = UUID0;
shapes = (
{
closed = 1;
nodes = (
(602,-230,l),
(602,-183,l),
(586,-183,ls),
(505,-183,o),
(449,-141,o),
(438,-4,c),
(597,25,o),
(685,163,o),
(685,358,cs),
(685,580,o),
(573,725,o),
(372,725,cs),
(159,725,o),
(56,580,o),
(56,359,cs),
(56,152,o),
(145,11,o),
(328,-8,c),
(341,-179,o),
(453,-230,o),
(559,-230,cs)
);
},
{
closed = 1;
nodes = (
(223,44,o),
(167,160,o),
(167,358,cs),
(167,556,o),
(223,671,o),
(372,671,cs),
(520,671,o),
(574,556,o),
(574,358,cs),
(574,160,o),
(520,44,o),
(371,44,cs)
);
}
);
width = 742;
},
{
anchors = (
{
name = bottom;
pos = (342,-240);
},
{
name = center;
pos = (342,244);
},
{
name = top;
pos = (342,714);
},
{
name = topright;
pos = (664,714);
}
);
layerId = "75A83886-EED5-4C31-9670-660514D8A4F6";
shapes = (
{
closed = 1;
nodes = (
(570,-237,l),
(570,-176,l),
(557,-176,ls),
(511,-176,o),
(448,-148,o),
(439,1,c),
(569,42,o),
(639,173,o),
(639,358,cs),
(639,580,o),
(533,725,o),
(344,725,cs),
(142,725,o),
(45,580,o),
(45,359,cs),
(45,164,o),
(117,28,o),
(264,-3,c),
(275,-172,o),
(383,-237,o),
(492,-237,cs)
);
},
{
closed = 1;
nodes = (
(254,58,o),
(221,169,o),
(221,358,cs),
(221,547,o),
(254,657,o),
(344,657,cs),
(432,657,o),
(464,547,o),
(464,358,cs),
(464,169,o),
(432,58,o),
(343,58,cs)
);
}
);
width = 684;
},
{
anchors = (
{
name = bottom;
pos = (265,-220);
},
{
name = center;
pos = (264,252);
},
{
name = top;
pos = (265,714);
},
{
name = topright;
pos = (510,714);
}
);
layerId = "C91144B6-58F5-45F2-9CE4-7ED6CE127FD4";
shapes = (
{
closed = 1;
nodes = (
(423,-220,l),
(423,-195,l),
(410,-195,ls),
(347,-195,o),
(300,-168,o),
(288,-9,c),
(413,6,o),
(485,138,o),
(485,358,cs),
(485,610,o),
(414,725,o),
(265,725,cs),
(118,725,o),
(44,596,o),
(44,359,cs),
(44,139,o),
(115,-7,o),
(259,-10,c),
(269,-185,o),
(341,-220,o),
(411,-220,cs)
);
},
{
closed = 1;
nodes = (
(137,15,o),
(72,153,o),
(72,358,cs),
(72,574,o),
(131,700,o),
(265,700,cs),
(406,700,o),
(457,574,o),
(457,358,cs),
(457,146,o),
(392,15,o),
(264,15,cs)
);
}
);
width = 530;
},
{
anchors = (
{
name = bottom;
pos = (343,-218);
},
{
name = center;
pos = (342,253);
},
{
name = top;
pos = (343,714);
},
{
name = topright;
pos = (666,714);
}
);
layerId = "1D4F67F9-897D-45AD-B7F0-CA61A6862C03";
shapes = (
{
closed = 1;
nodes = (
(544,-218,l),
(544,-193,l),
(528,-193,ls),
(427,-193,o),
(375,-133,o),
(364,-10,c),
(540,0,o),
(627,129,o),
(627,358,cs),
(627,591,o),
(546,725,o),
(344,725,cs),
(148,725,o),
(58,581,o),
(58,359,cs),
(58,121,o),
(153,-5,o),
(336,-10,c),
(349,-183,o),
(449,-218,o),
(537,-218,cs)
);
},
{
closed = 1;
nodes = (
(171,15,o),
(86,144,o),
(86,358,cs),
(86,556,o),
(161,700,o),
(344,700,cs),
(530,700,o),
(599,573,o),
(599,358,cs),
(599,142,o),
(522,15,o),
(343,15,cs)
);
}
);
width = 686;
},
{
anchors = (
{
name = bottom;
pos = (299,-228);
},
{
name = center;
pos = (298,248);
},
{
name = top;
pos = (299,714);
},
{
name = topright;
pos = (577,714);
}
);
layerId = "A0CCC833-A561-4F2A-AF73-A35187C9FE5B";
shapes = (
{
closed = 1;
nodes = (
(487,-228,l),
(487,-182,l),
(474,-182,ls),
(412,-182,o),
(366,-140,o),
(357,-5,c),
(482,24,o),
(552,162,o),
(552,358,cs),
(552,580,o),
(461,725,o),
(299,725,cs),
(127,725,o),
(44,580,o),
(44,359,cs),
(44,151,o),
(114,10,o),
(258,-9,c),
(268,-180,o),
(360,-228,o),
(446,-228,cs)
);
},
{
closed = 1;
nodes = (
(187,43,o),
(144,160,o),
(144,358,cs),
(144,557,o),
(187,672,o),
(299,672,cs),
(412,672,o),
(452,557,o),
(452,358,cs),
(452,160,o),
(412,43,o),
(298,43,cs)
);
}
);
width = 597;
}
);
script = latin;
subCategory = Uppercase;
unicode = 81;
}
{
category = Letter;
glyphname = T;
kernLeft = T;
kernRight = T;
layers = (
{
anchors = (
{
name = bottom;
pos = (341,0);
},
{
name = center;
pos = (341,357);
},
{
name = top;
pos = (341,714);
},
{
name = topright;
pos = (662,714);
}
);
background = {
shapes = (
{
closed = 1;
nodes = (
(308,0,l),
(308,61,l),
(271,61,ls),
(247,61,o),
(235,84,o),
(235,111,cs),
(235,338,l),
(448,338,l),
(448,117,ls),
(448,84,o),
(435,61,o),
(407,61,cs),
(375,61,l),
(375,0,l),
(740,0,l),
(740,61,l),
(687,61,ls),
(664,61,o),
(648,83,o),
(648,113,cs),
(648,602,ls),
(648,636,o),
(663,653,o),
(687,653,cs),
(740,653,l),
(740,714,l),
(375,714,l),
(375,653,l),
(406,653,ls),
(436,653,o),
(448,636,o),
(448,602,cs),
(448,407,l),
(235,407,l),
(235,605,ls),
(235,636,o),
(247,653,o),
(271,653,cs),
(308,653,l),
(308,714,l),
(-57,714,l),
(-57,653,l),
(-13,653,ls),
(14,653,o),
(35,636,o),
(35,600,cs),
(35,111,ls),
(35,84,o),
(19,61,o),
(-4,61,cs),
(-57,61,l),
(-57,0,l)
);
}
);
};
layerId = "E17BEC9D-CAAD-449F-91D9-03766E30097E";
shapes = (
{
closed = 1;
nodes = (
(537,0,l),
(537,61,l),
(505,61,ls),
(468,61,o),
(443,68,o),
(443,121,cs),
(443,645,l),
(511,645,ls),
(571,645,o),
(589,626,o),
(594,582,cs),
(602,506,l),
(680,506,l),
(675,714,l),
(8,714,l),
(3,506,l),
(81,506,l),
(90,582,ls),
(95,626,o),
(113,645,o),
(173,645,cs),
(241,645,l),
(241,125,l),
(241,69,o),
(217,61,o),
(179,61,cs),
(147,61,l),
(147,0,l)
);
}
);
width = 682;
},
{
anchors = (
{
name = bottom;
pos = (307,0);
},
{
name = center;
pos = (307,357);
},
{
name = top;
pos = (307,714);
},
{
name = topright;
pos = (593,714);
}
);
background = {
shapes = (
{
closed = 1;
nodes = (
(239,0,l),
(239,42,l),
(226,42,ls),
(181,42,o),
(144,51,o),
(144,114,cs),
(144,348,l),
(469,348,l),
(469,114,ls),
(469,51,o),
(432,42,o),
(387,42,cs),
(374,42,l),
(374,0,l),
(665,0,l),
(665,42,l),
(652,42,ls),
(608,42,o),
(570,50,o),
(570,109,cs),
(570,600,ls),
(570,663,o),
(607,672,o),
(652,672,cs),
(665,672,l),
(665,714,l),
(374,714,l),
(374,672,l),
(387,672,ls),
(432,672,o),
(469,663,o),
(469,600,cs),
(469,398,l),
(144,398,l),
(144,600,l),
(144,663,o),
(181,672,o),
(226,672,cs),
(239,672,l),
(239,714,l),
(-52,714,l),
(-52,672,l),
(-39,672,ls),
(5,672,o),
(43,663,o),
(43,604,cs),
(43,114,ls),
(43,51,o),
(6,42,o),
(-39,42,cs),
(-52,42,l),
(-52,0,l)
);
}
);
};
layerId = UUID0;
shapes = (
{
closed = 1;
nodes = (
(461,0,l),
(461,42,l),
(438,42,ls),
(393,42,o),
(356,51,o),
(356,114,cs),
(356,664,l),
(453,664,ls),
(513,664,o),
(531,626,o),
(536,582,cs),
(541,539,l),
(593,539,l),
(588,714,l),
(25,714,l),
(20,539,l),
(72,539,l),
(77,582,ls),
(82,626,o),
(100,664,o),
(159,664,cs),
(255,664,l),
(255,109,l),
(255,50,o),
(217,42,o),
(173,42,cs),
(150,42,l),
(150,0,l)
);
}
);
width = 613;
},
{
anchors = (
{
name = bottom;
pos = (285,0);
},
{
name = center;
pos = (285,357);
},
{
name = top;
pos = (285,714);
},
{
name = topright;
pos = (549,714);
}
);
layerId = "75A83886-EED5-4C31-9670-660514D8A4F6";
shapes = (
{
closed = 1;
nodes = (
(448,0,l),
(448,56,l),
(421,56,ls),
(390,56,o),
(370,63,o),
(370,119,cs),
(370,650,l),
(426,650,ls),
(476,650,o),
(490,626,o),
(495,582,cs),
(502,515,l),
(567,515,l),
(563,714,l),
(6,714,l),
(2,515,l),
(67,515,l),
(75,582,ls),
(80,626,o),
(94,650,o),
(144,650,cs),
(201,650,l),
(201,121,ls),
(201,64,o),
(180,56,o),
(149,56,cs),
(122,56,l),
(122,0,l)
);
}
);
width = 569;
},
{
anchors = (
{
name = bottom;
pos = (218,0);
},
{
name = center;
pos = (218,357);
},
{
name = top;
pos = (218,714);
},
{
name = topright;
pos = (416,714);
}
);
layerId = "C91144B6-58F5-45F2-9CE4-7ED6CE127FD4";
shapes = (
{
closed = 1;
nodes = (
(319,0,l),
(319,20,l),
(286,20,ls),
(236,20,o),
(230,31,o),
(230,108,cs),
(230,689,l),
(330,689,ls),
(382,689,o),
(388,675,o),
(390,620,cs),
(392,563,l),
(412,563,l),
(408,714,l),
(27,714,l),
(23,563,l),
(43,563,l),
(45,620,ls),
(47,675,o),
(53,689,o),
(105,689,cs),
(202,689,l),
(202,108,ls),
(202,31,o),
(196,20,o),
(146,20,cs),
(112,20,l),
(112,0,l)
);
}
);
width = 436;
},
{
anchors = (
{
name = bottom;
pos = (282,0);
},
{
name = center;
pos = (282,357);
},
{
name = top;
pos = (282,714);
},
{
name = topright;
pos = (543,714);
}
);
layerId = "1D4F67F9-897D-45AD-B7F0-CA61A6862C03";
shapes = (
{
closed = 1;
nodes = (
(413,0,l),
(413,20,l),
(349,20,ls),
(299,20,o),
(293,31,o),
(293,108,cs),
(293,689,l),
(445,689,ls),
(497,689,o),
(503,675,o),
(506,620,cs),
(509,563,l),
(529,563,l),
(523,714,l),
(38,714,l),
(32,563,l),
(52,563,l),
(55,620,ls),
(58,675,o),
(64,689,o),
(116,689,cs),
(265,689,l),
(265,108,ls),
(265,31,o),
(259,20,o),
(209,20,cs),
(144,20,l),
(144,0,l)
);
}
);
width = 563;
},
{
anchors = (
{
name = bottom;
pos = (247,0);
},
{
name = center;
pos = (247,357);
},
{
name = top;
pos = (247,714);
},
{
name = topright;
pos = (474,714);
}
);
layerId = "A0CCC833-A561-4F2A-AF73-A35187C9FE5B";
shapes = (
{
closed = 1;
nodes = (
(375,0,l),
(375,41,l),
(360,41,ls),
(322,41,o),
(292,50,o),
(292,113,cs),
(292,665,l),
(365,665,ls),
(412,665,o),
(427,626,o),
(431,582,cs),
(436,541,l),
(479,541,l),
(475,714,l),
(18,714,l),
(14,541,l),
(58,541,l),
(62,582,ls),
(66,626,o),
(81,665,o),
(127,665,cs),
(200,665,l),
(200,108,ls),
(200,49,o),
(169,41,o),
(131,41,cs),
(116,41,l),
(116,0,l)
);
}
);
width = 494;
}
);
script = latin;
subCategory = Uppercase;
unicode = 84;
}
{
category = Letter;
glyphname = U;
kernLeft = U;
kernRight = U;
layers = (
{
anchors = (
{
name = bottom;
pos = (385,0);
},
{
name = center;
pos = (385,352);
},
{
name = top;
pos = (429,714);
},
{
name = topright;
pos = (769,714);
}
);
layerId = "E17BEC9D-CAAD-449F-91D9-03766E30097E";
shapes = (
{
closed = 1;
nodes = (
(585,-10,o),
(659,83,o),
(659,217,cs),
(659,593,ls),
(659,646,o),
(687,653,o),
(723,653,cs),
(753,653,l),
(753,714,l),
(483,714,l),
(483,653,l),
(512,653,ls),
(548,653,o),
(574,646,o),
(574,597,cs),
(574,219,ls),
(574,109,o),
(516,69,o),
(446,69,cs),
(359,69,o),
(310,101,o),
(310,210,cs),
(310,593,l),
(310,646,o),
(338,653,o),
(373,653,cs),
(402,653,l),
(402,714,l),
(17,714,l),
(17,653,l),
(46,653,ls),
(81,653,o),
(110,646,o),
(110,597,cs),
(110,219,ls),
(110,55,o),
(229,-10,o),
(396,-10,cs)
);
}
);
width = 769;
},
{
anchors = (
{
name = bottom;
pos = (359,0);
},
{
name = center;
pos = (358,352);
},
{
name = top;
pos = (379,714);
},
{
name = topright;
pos = (703,714);
}
);
layerId = UUID0;
shapes = (
{
closed = 1;
nodes = (
(521,-10,o),
(607,71,o),
(607,204,cs),
(607,600,ls),
(607,663,o),
(644,672,o),
(689,672,cs),
(702,672,l),
(702,714,l),
(451,714,l),
(451,672,l),
(464,672,ls),
(508,672,o),
(546,663,o),
(546,604,cs),
(546,206,ls),
(546,115,o),
(493,50,o),
(378,50,cs),
(281,50,o),
(211,94,o),
(211,210,cs),
(211,600,l),
(211,663,o),
(248,672,o),
(293,672,cs),
(306,672,l),
(306,714,l),
(15,714,l),
(15,672,l),
(28,672,ls),
(72,672,o),
(110,663,o),
(110,604,cs),
(110,216,ls),
(110,53,o),
(204,-10,o),
(362,-10,cs)
);
}
);
width = 717;
},
{
anchors = (
{
name = bottom;
pos = (321,0);
},
{
name = center;
pos = (321,352);
},
{
name = top;
pos = (356,714);
},
{
name = topright;
pos = (632,714);
}
);
layerId = "75A83886-EED5-4C31-9670-660514D8A4F6";
shapes = (
{
closed = 1;
nodes = (
(488,-10,o),
(550,80,o),
(550,214,cs),
(550,595,ls),
(550,651,o),
(573,658,o),
(603,658,cs),
(628,658,l),
(628,714,l),
(403,714,l),
(403,658,l),
(427,658,ls),
(457,658,o),
(479,651,o),
(479,599,cs),
(479,216,ls),
(479,111,o),
(430,64,o),
(372,64,cs),
(300,64,o),
(259,99,o),
(259,210,cs),
(259,595,ls),
(259,651,o),
(283,658,o),
(312,658,cs),
(336,658,l),
(336,714,l),
(14,714,l),
(14,658,l),
(39,658,ls),
(68,658,o),
(92,651,o),
(92,599,cs),
(92,218,ls),
(92,54,o),
(191,-10,o),
(330,-10,cs)
);
}
);
width = 642;
},
{
anchors = (
{
name = bottom;
pos = (260,0);
},
{
name = center;
pos = (259,352);
},
{
name = top;
pos = (260,714);
},
{
name = topright;
pos = (505,714);
}
);
layerId = "C91144B6-58F5-45F2-9CE4-7ED6CE127FD4";
shapes = (
{
closed = 1;
nodes = (
(379,-10,o),
(436,89,o),
(436,200,cs),
(436,607,ls),
(436,683,o),
(442,694,o),
(492,694,cs),
(509,694,l),
(509,714,l),
(328,714,l),
(328,694,l),
(352,694,ls),
(402,694,o),
(408,683,o),
(408,607,cs),
(408,202,ls),
(408,114,o),
(369,15,o),
(257,15,cs),
(169,15,o),
(111,74,o),
(111,210,cs),
(111,606,ls),
(111,684,o),
(118,694,o),
(167,694,cs),
(190,694,l),
(190,714,l),
(10,714,l),
(10,694,l),
(27,694,ls),
(77,694,o),
(83,683,o),
(83,609,cs),
(83,214,ls),
(83,55,o),
(153,-10,o),
(256,-10,cs)
);
}
);
width = 520;
},
{
anchors = (
{
name = bottom;
pos = (340,0);
},
{
name = center;
pos = (338,352);
},
{
name = top;
pos = (348,714);
},
{
name = topright;
pos = (659,714);
}
);
layerId = "1D4F67F9-897D-45AD-B7F0-CA61A6862C03";
shapes = (
{
closed = 1;
nodes = (
(495,-10,o),
(569,88,o),
(569,218,cs),
(569,606,ls),
(569,683,o),
(575,694,o),
(625,694,cs),
(664,694,l),
(664,714,l),
(444,714,l),
(444,694,l),
(485,694,ls),
(535,694,o),
(541,683,o),
(541,606,cs),
(541,219,ls),
(541,106,o),
(479,15,o),
(338,15,cs),
(214,15,o),
(138,76,o),
(138,210,cs),
(138,606,ls),
(138,683,o),
(144,694,o),
(194,694,cs),
(236,694,l),
(236,714,l),
(13,714,l),
(13,694,l),
(54,694,ls),
(104,694,o),
(110,683,o),
(110,606,cs),
(110,214,ls),
(110,51,o),
(202,-10,o),
(340,-10,cs)
);
}
);
width = 679;
},
{
anchors = (
{
name = bottom;
pos = (287,0);
},
{
name = center;
pos = (286,352);
},
{
name = top;
pos = (302,714);
},
{
name = topright;
pos = (563,714);
}
);
layerId = "A0CCC833-A561-4F2A-AF73-A35187C9FE5B";
shapes = (
{
closed = 1;
nodes = (
(419,-10,o),
(486,73,o),
(486,206,cs),
(486,601,ls),
(486,664,o),
(512,673,o),
(550,673,cs),
(561,673,l),
(561,714,l),
(361,714,l),
(361,673,l),
(371,673,ls),
(409,673,o),
(434,664,o),
(434,605,cs),
(434,208,ls),
(434,118,o),
(392,49,o),
(307,49,cs),
(231,49,o),
(179,93,o),
(179,210,cs),
(179,601,ls),
(179,664,o),
(205,673,o),
(243,673,cs),
(253,673,l),
(253,714,l),
(12,714,l),
(12,673,l),
(23,673,ls),
(60,673,o),
(87,664,o),
(87,605,cs),
(87,216,ls),
(87,53,o),
(165,-10,o),
(288,-10,cs)
);
}
);
width = 573;
}
);
script = latin;
subCategory = Uppercase;
unicode = 85;
}
{
category = Letter;
glyphname = V;
kernLeft = V;
kernRight = V;
layers = (
{
anchors = (
{
name = bottom;
pos = (358,0);
},
{
name = center;
pos = (357,357);
},
{
name = top;
pos = (410,714);
},
{
name = topright;
pos = (695,714);
}
);
layerId = "E17BEC9D-CAAD-449F-91D9-03766E30097E";
shapes = (
{
closed = 1;
nodes = (
(297,0,l),
(416,0,l),
(618,584,ls),
(638,642,o),
(650,653,o),
(680,653,cs),
(715,653,l),
(715,714,l),
(457,714,l),
(457,653,l),
(514,653,ls),
(534,653,o),
(541,643,o),
(541,633,cs),
(541,619,o),
(533,596,o),
(524,568,cs),
(429,283,ls),
(421,260,o),
(410,217,o),
(407,194,c),
(404,221,o),
(395,273,o),
(390,288,cs),
(296,578,ls),
(291,595,o),
(284,616,o),
(284,631,cs),
(284,645,o),
(295,653,o),
(313,653,cs),
(361,653,l),
(361,714,l),
(0,714,l),
(0,653,l),
(30,653,ls),
(50,653,o),
(74,644,o),
(86,609,cs)
);
}
);
width = 715;
},
{
anchors = (
{
name = bottom;
pos = (338,0);
},
{
name = center;
pos = (337,357);
},
{
name = top;
pos = (348,714);
},
{
name = topright;
pos = (655,714);
}
);
layerId = UUID0;
shapes = (
{
closed = 1;
nodes = (
(300,0,l),
(373,0,l),
(580,594,l),
(602,659,o),
(617,672,o),
(656,672,cs),
(675,672,l),
(675,714,l),
(431,714,l),
(431,672,l),
(454,672,ls),
(498,672,o),
(520,657,o),
(520,623,cs),
(520,612,o),
(516,596,o),
(511,580,cs),
(401,262,ls),
(379,200,o),
(365,146,o),
(355,98,c),
(344,146,o),
(330,203,o),
(310,262,cs),
(200,587,l),
(195,602,o),
(192,613,o),
(192,624,cs),
(192,657,o),
(212,672,o),
(252,672,cs),
(275,672,l),
(275,714,l),
(0,714,l),
(0,672,l),
(13,672,ls),
(52,672,o),
(70,661,o),
(84,619,c)
);
}
);
width = 675;
},
{
anchors = (
{
name = bottom;
pos = (298,0);
},
{
name = center;
pos = (298,357);
},
{
name = top;
pos = (342,714);
},
{
name = topright;
pos = (576,714);
}
);
layerId = "75A83886-EED5-4C31-9670-660514D8A4F6";
shapes = (
{
closed = 1;
nodes = (
(237,0,l),
(355,0,l),
(515,587,ls),
(531,647,o),
(542,658,o),
(567,658,cs),
(596,658,l),
(596,714,l),
(381,714,l),
(381,658,l),
(429,658,ls),
(445,658,o),
(451,648,o),
(451,634,cs),
(451,619,o),
(444,597,o),
(437,571,c),
(363,277,ls),
(355,244,o),
(344,203,o),
(339,171,c),
(335,204,o),
(324,254,o),
(318,281,cs),
(248,580,ls),
(244,597,o),
(237,618,o),
(237,633,cs),
(237,649,o),
(246,658,o),
(261,658,cs),
(301,658,l),
(301,714,l),
(0,714,l),
(0,658,l),
(25,658,ls),
(42,658,o),
(62,649,o),
(72,612,cs)
);
}
);
width = 596;
},
{
anchors = (
{
name = bottom;
pos = (247,0);
},
{
name = center;
pos = (247,357);
},
{
name = top;
pos = (247,714);
},
{
name = topright;
pos = (474,714);
}
);
layerId = "C91144B6-58F5-45F2-9CE4-7ED6CE127FD4";
shapes = (
{
closed = 1;
nodes = (
(232,0,l),
(261,0,l),
(428,646,ls),
(440,691,o),
(447,694,o),
(491,694,cs),
(494,694,l),
(494,714,l),
(319,714,l),
(319,694,l),
(344,694,ls),
(394,694,o),
(399,685,o),
(399,666,cs),
(399,643,o),
(384,587,o),
(379,567,cs),
(295,244,ls),
(271,150,o),
(262,102,o),
(247,35,c),
(231,98,o),
(222,152,o),
(198,244,cs),
(114,567,ls),
(109,588,o),
(94,643,o),
(94,666,cs),
(94,685,o),
(99,694,o),
(149,694,cs),
(168,694,l),
(168,714,l),
(0,714,l),
(0,694,l),
(4,694,ls),
(46,694,o),
(54,690,o),
(65,646,cs)
);
}
);
width = 494;
},
{
anchors = (
{
name = bottom;
pos = (323,0);
},
{
name = center;
pos = (322,357);
},
{
name = top;
pos = (323,714);
},
{
name = topright;
pos = (625,714);
}
);
layerId = "1D4F67F9-897D-45AD-B7F0-CA61A6862C03";
shapes = (
{
closed = 1;
nodes = (
(307,0,l),
(336,0,l),
(555,646,ls),
(570,690,o),
(574,694,o),
(620,694,cs),
(645,694,l),
(645,714,l),
(429,714,l),
(429,694,l),
(471,694,ls),
(521,694,o),
(526,685,o),
(526,666,cs),
(526,643,o),
(504,586,o),
(498,567,cs),
(388,244,ls),
(356,150,o),
(340,98,o),
(322,35,c),
(303,94,o),
(283,155,o),
(252,244,cs),
(139,567,ls),
(132,588,o),
(111,643,o),
(111,666,cs),
(111,685,o),
(116,694,o),
(166,694,cs),
(215,694,l),
(215,714,l),
(0,714,l),
(0,694,l),
(17,694,ls),
(63,694,o),
(67,690,o),
(82,646,cs)
);
}
);
width = 645;
},
{
anchors = (
{
name = bottom;
pos = (270,0);
},
{
name = center;
pos = (269,357);
},
{
name = top;
pos = (290,714);
},
{
name = topright;
pos = (518,714);
}
);
layerId = "A0CCC833-A561-4F2A-AF73-A35187C9FE5B";
shapes = (
{
closed = 1;
nodes = (
(231,0,l),
(305,0,l),
(463,595,ls),
(481,660,o),
(492,673,o),
(526,673,cs),
(538,673,l),
(538,714,l),
(346,714,l),
(346,673,l),
(365,673,ls),
(399,673,o),
(415,661,o),
(415,635,cs),
(415,618,o),
(410,598,o),
(405,578,c),
(322,259,ls),
(305,194,o),
(295,153,o),
(286,105,c),
(278,152,o),
(268,195,o),
(252,258,cs),
(171,586,ls),
(166,604,o),
(162,622,o),
(162,637,cs),
(162,660,o),
(176,673,o),
(208,673,cs),
(226,673,l),
(226,714,l),
(0,714,l),
(0,673,l),
(13,673,ls),
(43,673,o),
(55,662,o),
(67,620,cs)
);
}
);
width = 538;
}
);
script = latin;
subCategory = Uppercase;
unicode = 86;
}
{
category = Letter;
glyphname = W;
kernLeft = W;
kernRight = W;
layers = (
{
anchors = (
{
name = bottom;
pos = (541,0);
},
{
name = center;
pos = (541,357);
},
{
name = top;
pos = (591,714);
},
{
name = topright;
pos = (1062,714);
}
);
layerId = "E17BEC9D-CAAD-449F-91D9-03766E30097E";
shapes = (
{
closed = 1;
nodes = (
(261,0,l),
(408,0,l),
(552,443,l),
(693,0,l),
(839,0,l),
(994,575,ls),
(1012,641,o),
(1031,653,o),
(1070,653,cs),
(1089,653,l),
(1089,714,l),
(815,714,l),
(815,653,l),
(838,653,ls),
(882,653,o),
(899,641,o),
(899,607,cs),
(899,589,o),
(890,554,o),
(883,528,cs),
(845,379,ls),
(831,323,o),
(811,246,o),
(803,203,c),
(795,245,o),
(781,300,o),
(761,363,cs),
(650,707,l),
(547,707,l),
(418,326,ls),
(402,278,o),
(392,244,o),
(384,207,c),
(378,245,o),
(367,291,o),
(356,332,cs),
(300,538,ls),
(294,559,o),
(288,594,o),
(288,605,cs),
(288,638,o),
(308,653,o),
(348,653,cs),
(371,653,l),
(371,714,l),
(-6,714,l),
(-6,653,l),
(7,653,ls),
(46,653,o),
(65,642,o),
(78,600,cs)
);
}
);
width = 1082;
},
{
anchors = (
{
name = bottom;
pos = (524,0);
},
{
name = center;
pos = (523,357);
},
{
name = top;
pos = (540,714);
},
{
name = topright;
pos = (1027,714);
}
);
layerId = UUID0;
shapes = (
{
closed = 1;
nodes = (
(276,0,l),
(368,0,l),
(521,560,l),
(684,0,l),
(774,0,l),
(943,594,ls),
(962,660,o),
(980,672,o),
(1019,672,cs),
(1038,672,l),
(1038,714,l),
(794,714,l),
(794,672,l),
(817,672,ls),
(861,672,o),
(883,657,o),
(883,623,cs),
(883,612,o),
(876,587,o),
(872,571,cs),
(784,262,ls),
(766,198,o),
(754,146,o),
(744,98,c),
(735,144,o),
(720,208,o),
(701,274,cs),
(576,707,l),
(504,707,l),
(385,278,ls),
(367,214,o),
(354,150,o),
(344,98,c),
(333,146,o),
(318,207,o),
(301,267,cs),
(209,587,ls),
(205,602,o),
(201,613,o),
(201,624,cs),
(201,657,o),
(221,672,o),
(261,672,cs),
(284,672,l),
(284,714,l),
(9,714,l),
(9,672,l),
(22,672,ls),
(61,672,o),
(80,661,o),
(93,619,cs)
);
}
);
width = 1047;
},
{
anchors = (
{
name = bottom;
pos = (451,0);
},
{
name = center;
pos = (451,357);
},
{
name = top;
pos = (493,714);
},
{
name = topright;
pos = (882,714);
}
);
layerId = "75A83886-EED5-4C31-9670-660514D8A4F6";
shapes = (
{
closed = 1;
nodes = (
(204,0,l),
(347,0,l),
(461,453,l),
(562,0,l),
(706,0,l),
(829,580,ls),
(843,646,o),
(860,658,o),
(892,658,cs),
(908,658,l),
(908,714,l),
(679,714,l),
(679,658,l),
(699,658,ls),
(735,658,o),
(751,647,o),
(751,615,cs),
(751,603,o),
(747,574,o),
(744,557,cs),
(700,335,ls),
(689,278,o),
(677,219,o),
(671,175,c),
(664,219,o),
(651,275,o),
(636,339,cs),
(548,707,l),
(455,707,l),
(354,313,ls),
(340,260,o),
(328,219,o),
(321,177,c),
(316,218,o),
(300,298,o),
(292,344,cs),
(250,551,ls),
(246,571,o),
(241,602,o),
(241,613,cs),
(241,644,o),
(257,658,o),
(290,658,cs),
(310,658,l),
(310,714,l),
(-5,714,l),
(-5,658,l),
(6,658,ls),
(38,658,o),
(55,647,o),
(65,605,cs)
);
}
);
width = 902;
},
{
anchors = (
{
name = bottom;
pos = (389,0);
},
{
name = center;
pos = (389,357);
},
{
name = top;
pos = (389,714);
},
{
name = topright;
pos = (758,714);
}
);
layerId = "C91144B6-58F5-45F2-9CE4-7ED6CE127FD4";
shapes = (
{
closed = 1;
nodes = (
(205,0,l),
(233,0,l),
(387,660,l),
(529,0,l),
(557,0,l),
(698,645,ls),
(708,691,o),
(718,694,o),
(762,694,cs),
(765,694,l),
(765,714,l),
(593,714,l),
(593,694,l),
(619,694,ls),
(669,694,o),
(674,685,o),
(674,666,cs),
(674,652,o),
(669,631,o),
(661,593,cs),
(578,213,ls),
(566,158,o),
(553,92,o),
(543,52,c),
(533,100,o),
(524,148,o),
(511,210,cs),
(402,714,l),
(374,714,l),
(252,191,ls),
(240,139,o),
(231,100,o),
(220,46,c),
(211,104,o),
(208,133,o),
(196,195,cs),
(119,591,ls),
(112,629,o),
(106,653,o),
(106,666,cs),
(106,685,o),
(111,694,o),
(161,694,cs),
(178,694,l),
(178,714,l),
(14,714,l),
(14,694,l),
(17,694,ls),
(60,694,o),
(71,690,o),
(80,646,cs)
);
}
);
width = 778;
},
{
anchors = (
{
name = bottom;
pos = (511,0);
},
{
name = center;
pos = (511,357);
},
{
name = top;
pos = (511,714);
},
{
name = topright;
pos = (1001,714);
}
);
layerId = "1D4F67F9-897D-45AD-B7F0-CA61A6862C03";
shapes = (
{
closed = 1;
nodes = (
(306,0,l),
(334,0,l),
(507,669,l),
(682,0,l),
(710,0,l),
(909,645,ls),
(923,690,o),
(929,694,o),
(974,694,cs),
(1002,694,l),
(1002,714,l),
(790,714,l),
(790,694,l),
(825,694,ls),
(875,694,o),
(880,685,o),
(880,666,cs),
(880,652,o),
(874,632,o),
(863,595,cs),
(744,205,ls),
(726,147,o),
(708,84,o),
(699,41,c),
(688,92,o),
(674,143,o),
(657,208,cs),
(522,714,l),
(494,714,l),
(354,189,ls),
(339,135,o),
(332,96,o),
(320,40,c),
(305,100,o),
(298,126,o),
(279,189,cs),
(154,595,ls),
(142,633,o),
(136,653,o),
(136,666,cs),
(136,685,o),
(141,694,o),
(191,694,cs),
(232,694,l),
(232,714,l),
(21,714,l),
(21,694,l),
(43,694,ls),
(88,694,o),
(95,690,o),
(108,646,cs)
);
}
);
width = 1021;
},
{
anchors = (
{
name = bottom;
pos = (416,0);
},
{
name = center;
pos = (417,357);
},
{
name = top;
pos = (435,714);
},
{
name = topright;
pos = (812,714);
}
);
layerId = "A0CCC833-A561-4F2A-AF73-A35187C9FE5B";
shapes = (
{
closed = 1;
nodes = (
(205,0,l),
(294,0,l),
(419,571,l),
(534,0,l),
(623,0,l),
(752,595,ls),
(767,661,o),
(781,673,o),
(812,673,cs),
(828,673,l),
(828,714,l),
(631,714,l),
(631,673,l),
(649,673,ls),
(684,673,o),
(701,664,o),
(701,637,cs),
(701,622,o),
(696,591,o),
(692,572,cs),
(623,247,ls),
(610,184,o),
(602,145,o),
(595,98,c),
(588,149,o),
(576,202,o),
(563,269,cs),
(475,707,l),
(403,707,l),
(307,287,ls),
(291,215,o),
(277,153,o),
(269,100,c),
(263,148,o),
(253,199,o),
(241,260,cs),
(176,590,ls),
(173,606,o),
(169,625,o),
(169,638,cs),
(169,660,o),
(185,673,o),
(217,673,cs),
(235,673,l),
(235,714,l),
(6,714,l),
(6,673,l),
(16,673,ls),
(47,673,o),
(63,663,o),
(72,620,cs)
);
}
);
width = 832;
}
);
script = latin;
subCategory = Uppercase;
unicode = 87;
}
{
category = Letter;
glyphname = X;
kernLeft = X;
kernRight = X;
layers = (
{
anchors = (
{
name = bottom;
pos = (393,0);
},
{
name = center;
pos = (392,357);
},
{
name = top;
pos = (393,714);
},
{
name = topright;
pos = (765,714);
}
);
layerId = "E17BEC9D-CAAD-449F-91D9-03766E30097E";
shapes = (
{
closed = 1;
nodes = (
(273,0,l),
(273,61,l),
(269,61,ls),
(225,61,o),
(212,75,o),
(212,97,cs),
(212,118,o),
(226,138,o),
(238,155,cs),
(344,287,l),
(431,163,ls),
(461,121,o),
(464,109,o),
(464,94,cs),
(464,72,o),
(444,61,o),
(404,61,cs),
(399,61,l),
(399,0,l),
(773,0,l),
(773,61,l),
(760,61,ls),
(735,61,o),
(707,74,o),
(680,114,cs),
(496,391,l),
(641,581,ls),
(681,634,o),
(701,653,o),
(740,653,cs),
(749,653,l),
(749,714,l),
(504,714,l),
(504,653,l),
(509,653,ls),
(540,653,o),
(565,648,o),
(565,624,cs),
(565,606,o),
(546,577,o),
(536,563,cs),
(455,457,l),
(377,565,ls),
(364,583,o),
(350,607,o),
(350,621,cs),
(350,637,o),
(361,653,o),
(407,653,cs),
(413,653,l),
(413,714,l),
(38,714,l),
(38,653,l),
(51,653,ls),
(103,653,o),
(115,633,o),
(137,600,cs),
(302,351,l),
(121,131,ls),
(91,94,o),
(65,61,o),
(17,61,cs),
(11,61,l),
(11,0,l)
);
}
);
width = 785;
},
{
anchors = (
{
name = bottom;
pos = (330,0);
},
{
name = center;
pos = (330,357);
},
{
name = top;
pos = (330,714);
},
{
name = topright;
pos = (640,714);
}
);
layerId = UUID0;
shapes = (
{
closed = 1;
nodes = (
(246,0,l),
(246,42,l),
(243,42,ls),
(199,42,o),
(178,51,o),
(178,73,cs),
(178,94,o),
(193,122,o),
(204,139,cs),
(315,303,l),
(414,144,ls),
(442,100,o),
(447,90,o),
(447,75,cs),
(447,53,o),
(427,42,o),
(387,42,cs),
(382,42,l),
(382,0,l),
(652,0,l),
(652,42,l),
(639,42,ls),
(614,42,o),
(588,56,o),
(559,95,c),
(375,391,l),
(520,600,ls),
(558,655,o),
(580,672,o),
(619,672,cs),
(628,672,l),
(628,714,l),
(409,714,l),
(409,672,l),
(412,672,ls),
(443,672,o),
(466,667,o),
(466,643,cs),
(466,625,o),
(456,605,o),
(441,582,cs),
(346,438,l),
(256,584,ls),
(234,619,o),
(232,629,o),
(232,643,cs),
(232,659,o),
(243,672,o),
(289,672,cs),
(292,672,l),
(292,714,l),
(21,714,l),
(21,672,l),
(34,672,ls),
(64,672,o),
(96,657,o),
(120,619,cs),
(285,351,l),
(118,112,ls),
(82,60,o),
(62,42,o),
(14,42,cs),
(8,42,l),
(8,0,l)
);
}
);
width = 660;
},
{
anchors = (
{
name = bottom;
pos = (328,0);
},
{
name = center;
pos = (327,357);
},
{
name = top;
pos = (328,714);
},
{
name = topright;
pos = (635,714);
}
);
layerId = "75A83886-EED5-4C31-9670-660514D8A4F6";
shapes = (
{
closed = 1;
nodes = (
(228,0,l),
(228,56,l),
(224,56,ls),
(188,56,o),
(177,69,o),
(177,91,cs),
(177,112,o),
(188,134,o),
(199,153,cs),
(287,293,l),
(360,158,ls),
(383,115,o),
(387,104,o),
(387,89,cs),
(387,67,o),
(370,56,o),
(337,56,cs),
(333,56,l),
(333,0,l),
(645,0,l),
(645,56,l),
(634,56,ls),
(613,56,o),
(590,69,o),
(568,109,cs),
(414,389,l),
(535,586,ls),
(568,640,o),
(585,658,o),
(617,658,cs),
(625,658,l),
(625,714,l),
(421,714,l),
(421,658,l),
(425,658,ls),
(451,658,o),
(471,653,o),
(471,629,cs),
(471,611,o),
(456,585,o),
(447,568,cs),
(380,450,l),
(315,570,ls),
(304,589,o),
(292,613,o),
(292,627,cs),
(292,643,o),
(301,658,o),
(340,658,cs),
(345,658,l),
(345,714,l),
(31,714,l),
(31,658,l),
(43,658,ls),
(86,658,o),
(96,640,o),
(114,605,cs),
(252,352,l),
(101,125,ls),
(75,84,o),
(54,56,o),
(14,56,cs),
(9,56,l),
(9,0,l)
);
}
);
width = 655;
},
{
anchors = (
{
name = bottom;
pos = (224,0);
},
{
name = center;
pos = (222,357);
},
{
name = top;
pos = (224,714);
},
{
name = topright;
pos = (427,714);
}
);
layerId = "C91144B6-58F5-45F2-9CE4-7ED6CE127FD4";
shapes = (
{
closed = 1;
nodes = (
(175,0,l),
(175,20,l),
(145,20,ls),
(105,20,o),
(101,27,o),
(101,40,cs),
(101,53,o),
(107,70,o),
(141,143,cs),
(222,337,l),
(321,121,ls),
(345,68,o),
(355,47,o),
(355,36,cs),
(355,26,o),
(351,20,o),
(313,20,cs),
(283,20,l),
(283,0,l),
(441,0,l),
(441,20,l),
(437,20,ls),
(401,20,o),
(394,23,o),
(374,68,cs),
(236,371,l),
(352,648,ls),
(370,692,o),
(379,694,o),
(417,694,cs),
(423,694,l),
(423,714,l),
(270,714,l),
(270,694,l),
(295,694,ls),
(329,694,o),
(332,686,o),
(332,674,cs),
(332,658,o),
(320,637,o),
(308,607,cs),
(222,402,l),
(128,608,ls),
(114,640,o),
(101,667,o),
(101,676,cs),
(101,688,o),
(104,694,o),
(140,694,cs),
(168,694,l),
(168,714,l),
(9,714,l),
(9,694,l),
(13,694,ls),
(54,694,o),
(61,691,o),
(81,647,cs),
(208,368,l),
(82,67,ls),
(63,22,o),
(54,20,o),
(10,20,cs),
(4,20,l),
(4,0,l)
);
}
);
width = 447;
},
{
anchors = (
{
name = bottom;
pos = (295,0);
},
{
name = center;
pos = (285,357);
},
{
name = top;
pos = (285,714);
},
{
name = topright;
pos = (550,714);
}
);
layerId = "1D4F67F9-897D-45AD-B7F0-CA61A6862C03";
shapes = (
{
closed = 1;
nodes = (
(226,0,l),
(226,20,l),
(176,20,ls),
(140,20,o),
(137,28,o),
(137,40,cs),
(137,56,o),
(148,75,o),
(184,143,cs),
(288,340,l),
(408,120,ls),
(433,74,o),
(444,56,o),
(444,40,cs),
(444,28,o),
(441,20,o),
(408,20,cs),
(370,20,l),
(370,0,l),
(564,0,l),
(564,20,l),
(540,20,ls),
(496,20,o),
(493,24,o),
(469,68,cs),
(302,369,l),
(448,648,ls),
(469,690,o),
(475,694,o),
(519,694,cs),
(549,694,l),
(549,714,l),
(350,714,l),
(350,694,l),
(386,694,ls),
(420,694,o),
(423,686,o),
(423,674,cs),
(423,658,o),
(410,636,o),
(395,607,cs),
(286,398,l),
(173,608,ls),
(156,639,o),
(145,658,o),
(145,674,cs),
(145,686,o),
(148,694,o),
(184,694,cs),
(213,694,l),
(213,714,l),
(18,714,l),
(18,694,l),
(49,694,ls),
(93,694,o),
(96,690,o),
(120,647,cs),
(271,370,l),
(113,67,ls),
(90,24,o),
(85,20,o),
(41,20,cs),
(6,20,l),
(6,0,l)
);
}
);
width = 570;
},
{
anchors = (
{
name = bottom;
pos = (269,0);
},
{
name = center;
pos = (268,357);
},
{
name = top;
pos = (269,714);
},
{
name = topright;
pos = (517,714);
}
);
layerId = "A0CCC833-A561-4F2A-AF73-A35187C9FE5B";
shapes = (
{
closed = 1;
nodes = (
(198,0,l),
(198,41,l),
(195,41,ls),
(160,41,o),
(145,50,o),
(145,72,cs),
(145,93,o),
(157,121,o),
(170,148,cs),
(250,310,l),
(329,143,ls),
(351,99,o),
(356,89,o),
(356,74,cs),
(356,52,o),
(339,41,o),
(308,41,cs),
(305,41,l),
(305,0,l),
(530,0,l),
(530,41,l),
(519,41,ls),
(499,41,o),
(476,54,o),
(456,94,cs),
(314,383,l),
(425,601,ls),
(455,658,o),
(473,673,o),
(504,673,cs),
(511,673,l),
(511,714,l),
(336,714,l),
(336,673,l),
(338,673,ls),
(363,673,o),
(382,668,o),
(382,644,cs),
(382,626,o),
(373,607,o),
(362,583,cs),
(289,429,l),
(217,585,ls),
(208,606,o),
(197,630,o),
(197,644,cs),
(197,660,o),
(206,673,o),
(242,673,cs),
(245,673,l),
(245,714,l),
(19,714,l),
(19,673,l),
(29,673,ls),
(60,673,o),
(78,659,o),
(96,620,cs),
(225,356,l),
(94,110,ls),
(66,57,o),
(50,41,o),
(11,41,cs),
(6,41,l),
(6,0,l)
);
}
);
width = 537;
}
);
script = latin;
subCategory = Uppercase;
unicode = 88;
}
{
category = Letter;
glyphname = Y;
kernLeft = Y;
kernRight = Y;
layers = (
{
anchors = (
{
name = bottom;
pos = (372,0);
},
{
name = center;
pos = (372,357);
},
{
name = top;
pos = (372,714);
},
{
name = topright;
pos = (723,714);
}
);
layerId = "E17BEC9D-CAAD-449F-91D9-03766E30097E";
shapes = (
{
closed = 1;
nodes = (
(580,0,l),
(580,61,l),
(532,61,ls),
(501,61,o),
(475,71,o),
(475,126,cs),
(475,228,l),
(648,576,ls),
(679,638,o),
(691,653,o),
(729,653,cs),
(741,653,l),
(741,714,l),
(466,714,l),
(466,653,l),
(485,653,ls),
(533,653,o),
(555,638,o),
(555,600,cs),
(555,593,o),
(553,574,o),
(539,540,cs),
(485,427,ls),
(465,384,o),
(446,343,o),
(433,307,c),
(422,338,o),
(414,359,o),
(396,395,cs),
(322,542,ls),
(312,562,o),
(308,583,o),
(308,598,cs),
(308,633,o),
(336,653,o),
(379,653,cs),
(383,653,l),
(383,714,l),
(4,714,l),
(4,653,l),
(17,653,ls),
(60,653,o),
(68,640,o),
(88,600,cs),
(273,230,l),
(273,128,ls),
(273,72,o),
(246,61,o),
(203,61,cs),
(168,61,l),
(168,0,l)
);
}
);
width = 743;
},
{
anchors = (
{
name = bottom;
pos = (313,0);
},
{
name = center;
pos = (311,357);
},
{
name = top;
pos = (313,714);
},
{
name = topright;
pos = (605,714);
}
);
layerId = UUID0;
shapes = (
{
closed = 1;
nodes = (
(470,0,l),
(470,42,l),
(447,42,ls),
(402,42,o),
(365,51,o),
(365,114,cs),
(365,298,l),
(533,594,ls),
(567,654,o),
(588,672,o),
(616,672,cs),
(628,672,l),
(628,714,l),
(384,714,l),
(384,672,l),
(413,672,ls),
(451,672,o),
(473,657,o),
(473,628,cs),
(473,612,o),
(468,591,o),
(455,568,cs),
(391,453,ls),
(368,411,o),
(343,367,o),
(331,339,c),
(320,370,o),
(304,412,o),
(281,453,cs),
(207,587,ls),
(199,601,o),
(189,621,o),
(189,640,cs),
(189,657,o),
(197,672,o),
(233,672,cs),
(270,672,l),
(270,714,l),
(-5,714,l),
(-5,672,l),
(8,672,ls),
(42,672,o),
(57,657,o),
(79,619,cs),
(264,298,l),
(264,109,ls),
(264,50,o),
(226,42,o),
(182,42,cs),
(159,42,l),
(159,0,l)
);
}
);
width = 625;
},
{
anchors = (
{
name = bottom;
pos = (310,0);
},
{
name = center;
pos = (311,357);
},
{
name = top;
pos = (310,714);
},
{
name = topright;
pos = (600,714);
}
);
layerId = "75A83886-EED5-4C31-9670-660514D8A4F6";
shapes = (
{
closed = 1;
nodes = (
(484,0,l),
(484,56,l),
(444,56,ls),
(418,56,o),
(397,66,o),
(397,123,cs),
(397,248,l),
(540,581,ls),
(567,643,o),
(577,658,o),
(609,658,cs),
(619,658,l),
(619,714,l),
(389,714,l),
(389,658,l),
(405,658,ls),
(445,658,o),
(463,645,o),
(463,609,cs),
(463,600,o),
(461,579,o),
(449,548,cs),
(405,435,ls),
(389,392,o),
(373,352,o),
(362,319,c),
(352,350,o),
(346,374,o),
(330,411,cs),
(269,554,ls),
(261,573,o),
(257,594,o),
(257,609,cs),
(257,640,o),
(281,658,o),
(317,658,cs),
(320,658,l),
(320,714,l),
(3,714,l),
(3,658,l),
(14,658,ls),
(50,658,o),
(56,645,o),
(74,605,cs),
(227,249,l),
(227,124,ls),
(227,67,o),
(205,56,o),
(170,56,cs),
(140,56,l),
(140,0,l)
);
}
);
width = 620;
},
{
anchors = (
{
name = bottom;
pos = (211,0);
},
{
name = center;
pos = (209,357);
},
{
name = top;
pos = (211,714);
},
{
name = topright;
pos = (402,714);
}
);
layerId = "C91144B6-58F5-45F2-9CE4-7ED6CE127FD4";
shapes = (
{
closed = 1;
nodes = (
(308,0,l),
(308,20,l),
(282,20,ls),
(232,20,o),
(226,31,o),
(226,108,cs),
(226,356,l),
(370,652,ls),
(390,692,o),
(399,694,o),
(425,694,cs),
(427,694,l),
(427,714,l),
(264,714,l),
(264,694,l),
(307,694,ls),
(343,694,o),
(348,688,o),
(348,677,cs),
(348,667,o),
(347,660,o),
(333,631,cs),
(256,474,ls),
(235,431,o),
(221,402,o),
(211,382,c),
(191,425,o),
(172,466,o),
(151,510,cs),
(97,625,ls),
(84,652,o),
(74,668,o),
(74,678,cs),
(74,689,o),
(78,694,o),
(115,694,cs),
(146,694,l),
(146,714,l),
(-8,714,l),
(-8,694,l),
(-6,694,ls),
(23,694,o),
(33,692,o),
(53,651,cs),
(198,354,l),
(198,108,ls),
(198,31,o),
(192,20,o),
(142,20,cs),
(116,20,l),
(116,0,l)
);
}
);
width = 422;
},
{
anchors = (
{
name = bottom;
pos = (270,0);
},
{
name = center;
pos = (267,357);
},
{
name = top;
pos = (270,714);
},
{
name = topright;
pos = (519,714);
}
);
layerId = "1D4F67F9-897D-45AD-B7F0-CA61A6862C03";
shapes = (
{
closed = 1;
nodes = (
(390,0,l),
(390,20,l),
(342,20,ls),
(292,20,o),
(286,31,o),
(286,108,cs),
(286,356,l),
(466,652,ls),
(489,690,o),
(495,694,o),
(538,694,cs),
(546,694,l),
(546,714,l),
(354,714,l),
(354,694,l),
(403,694,ls),
(437,694,o),
(441,687,o),
(441,677,cs),
(441,665,o),
(432,650,o),
(419,629,cs),
(325,474,ls),
(300,432,o),
(281,402,o),
(271,382,c),
(249,421,o),
(223,462,o),
(197,503,cs),
(118,629,ls),
(105,650,o),
(95,665,o),
(95,677,cs),
(95,687,o),
(99,694,o),
(133,694,cs),
(166,694,l),
(166,714,l),
(-11,714,l),
(-11,694,l),
(-2,694,ls),
(41,694,o),
(46,690,o),
(71,651,cs),
(258,354,l),
(258,108,ls),
(258,31,o),
(252,20,o),
(202,20,cs),
(153,20,l),
(153,0,l)
);
}
);
width = 539;
},
{
anchors = (
{
name = bottom;
pos = (254,0);
},
{
name = center;
pos = (254,357);
},
{
name = top;
pos = (254,714);
},
{
name = topright;
pos = (488,714);
}
);
layerId = "A0CCC833-A561-4F2A-AF73-A35187C9FE5B";
shapes = (
{
closed = 1;
nodes = (
(385,0,l),
(385,41,l),
(367,41,ls),
(332,41,o),
(302,52,o),
(302,116,cs),
(302,305,l),
(436,596,ls),
(463,655,o),
(479,673,o),
(503,673,cs),
(511,673,l),
(511,714,l),
(319,714,l),
(319,673,l),
(336,673,ls),
(367,673,o),
(388,664,o),
(388,635,cs),
(388,619,o),
(381,595,o),
(370,570,cs),
(320,458,ls),
(302,416,o),
(287,380,o),
(277,353,c),
(268,384,o),
(254,419,o),
(236,459,cs),
(177,590,ls),
(170,604,o),
(163,628,o),
(163,643,cs),
(163,659,o),
(172,673,o),
(201,673,cs),
(222,673,l),
(222,714,l),
(-3,714,l),
(-3,673,l),
(7,673,ls),
(35,673,o),
(46,659,o),
(64,620,cs),
(209,305,l),
(209,111,ls),
(209,52,o),
(179,41,o),
(142,41,cs),
(127,41,l),
(127,0,l)
);
}
);
width = 508;
}
);
script = latin;
subCategory = Uppercase;
unicode = 89;
}
{
category = Letter;
glyphname = Z;
kernLeft = Z;
kernRight = Z;
layers = (
{
anchors = (
{
name = bottom;
pos = (361,0);
},
{
name = center;
pos = (360,357);
},
{
name = top;
pos = (361,714);
},
{
name = topright;
pos = (701,714);
}
);
layerId = "E17BEC9D-CAAD-449F-91D9-03766E30097E";
shapes = (
{
closed = 1;
nodes = (
(670,0,l),
(675,229,l),
(588,229,l),
(583,182,ls),
(578,128,o),
(560,69,o),
(462,69,cs),
(272,69,l),
(648,656,l),
(648,714,l),
(70,714,l),
(65,485,l),
(152,485,l),
(157,547,ls),
(162,610,o),
(173,645,o),
(239,645,cs),
(421,645,l),
(46,57,l),
(46,0,l)
);
}
);
width = 721;
},
{
anchors = (
{
name = bottom;
pos = (296,0);
},
{
name = center;
pos = (293,357);
},
{
name = top;
pos = (296,714);
},
{
name = topright;
pos = (572,714);
}
);
layerId = UUID0;
shapes = (
{
closed = 1;
nodes = (
(545,0,l),
(550,175,l),
(498,175,l),
(493,132,ls),
(488,88,o),
(470,50,o),
(410,50,cs),
(158,50,l),
(534,673,l),
(534,714,l),
(60,714,l),
(55,539,l),
(107,539,l),
(112,582,ls),
(117,626,o),
(135,664,o),
(194,664,cs),
(411,664,l),
(36,40,l),
(36,0,l)
);
}
);
width = 592;
},
{
anchors = (
{
name = bottom;
pos = (333,0);
},
{
name = center;
pos = (332,357);
},
{
name = top;
pos = (333,714);
},
{
name = topright;
pos = (646,714);
}
);
layerId = "58AAA307-6DE9-4107-B80A-C255AE991657";
shapes = (
{
closed = 1;
nodes = (
(617,0,l),
(622,206,l),
(550,206,l),
(545,161,l),
(540,111,o),
(522,61,o),
(440,61,cs),
(224,61,l),
(600,663,l),
(600,714,l),
(66,714,l),
(61,508,l),
(133,508,l),
(138,562,ls),
(143,617,o),
(157,653,o),
(220,653,c),
(417,653,l),
(42,50,l),
(42,0,l)
);
}
);
width = 666;
},
{
anchors = (
{
name = bottom;
pos = (301,0);
},
{
name = center;
pos = (300,357);
},
{
name = top;
pos = (301,714);
},
{
name = topright;
pos = (581,714);
}
);
layerId = "75A83886-EED5-4C31-9670-660514D8A4F6";
shapes = (
{
closed = 1;
nodes = (
(559,0,l),
(563,214,l),
(490,214,l),
(486,169,ls),
(482,117,o),
(467,64,o),
(385,64,cs),
(227,64,l),
(541,661,l),
(541,714,l),
(59,714,l),
(54,500,l),
(127,500,l),
(131,557,ls),
(135,614,o),
(144,650,o),
(200,650,cs),
(351,650,l),
(38,52,l),
(38,0,l)
);
}
);
width = 601;
},
{
anchors = (
{
name = bottom;
pos = (196,0);
},
{
name = center;
pos = (191,357);
},
{
name = top;
pos = (196,714);
},
{
name = topright;
pos = (371,714);
}
);
layerId = "C91144B6-58F5-45F2-9CE4-7ED6CE127FD4";
shapes = (
{
closed = 1;
nodes = (
(358,0,l),
(361,139,l),
(341,139,l),
(339,93,ls),
(337,39,o),
(332,25,o),
(280,25,cs),
(54,25,l),
(354,693,l),
(354,714,l),
(41,714,l),
(37,576,l),
(57,576,l),
(58,620,ls),
(59,675,o),
(67,689,o),
(119,689,cs),
(322,689,l),
(22,22,l),
(22,0,l)
);
}
);
width = 391;
},
{
anchors = (
{
name = bottom;
pos = (249,0);
},
{
name = center;
pos = (243,357);
},
{
name = top;
pos = (249,714);
},
{
name = topright;
pos = (478,714);
}
);
layerId = "1D4F67F9-897D-45AD-B7F0-CA61A6862C03";
shapes = (
{
closed = 1;
nodes = (
(453,0,l),
(458,135,l),
(438,135,l),
(436,93,ls),
(433,39,o),
(427,25,o),
(375,25,cs),
(62,25,l),
(450,685,l),
(450,714,l),
(52,714,l),
(47,579,l),
(67,579,l),
(69,620,ls),
(72,675,o),
(78,689,o),
(130,689,cs),
(420,689,l),
(28,22,l),
(28,0,l)
);
}
);
width = 498;
},
{
anchors = (
{
name = bottom;
pos = (242,0);
},
{
name = center;
pos = (239,357);
},
{
name = top;
pos = (242,714);
},
{
name = topright;
pos = (463,714);
}
);
layerId = "A0CCC833-A561-4F2A-AF73-A35187C9FE5B";
shapes = (
{
closed = 1;
nodes = (
(446,0,l),
(449,172,l),
(404,172,l),
(401,130,ls),
(397,85,o),
(382,49,o),
(330,49,cs),
(133,49,l),
(436,674,l),
(436,714,l),
(49,714,l),
(45,542,l),
(90,542,l),
(94,585,ls),
(97,627,o),
(111,665,o),
(159,665,cs),
(331,665,l),
(29,39,l),
(29,0,l)
);
}
);
width = 483;
},
{
anchors = (
{
name = bottom;
pos = (275,0);
},
{
name = center;
pos = (274,357);
},
{
name = top;
pos = (275,714);
},
{
name = topright;
pos = (530,714);
}
);
layerId = "BD18C76C-096B-4C52-83B4-518A374966BE";
shapes = (
{
closed = 1;
nodes = (
(510,0,l),
(514,196,l),
(453,196,l),
(449,152,ls),
(445,103,o),
(430,57,o),
(361,57,cs),
(186,57,l),
(495,667,l),
(495,714,l),
(55,714,l),
(50,518,l),
(111,518,l),
(115,569,ls),
(118,620,o),
(130,657,o),
(182,657,cs),
(342,657,l),
(34,46,l),
(34,0,l)
);
}
);
width = 550;
}
);
script = latin;
subCategory = Uppercase;
unicode = 90;
}
{
category = Punctuation;
glyphname = backslash;
layers = (
{
layerId = "E17BEC9D-CAAD-449F-91D9-03766E30097E";
shapes = (
{
closed = 1;
nodes = (
(288,-121,l),
(81,760,l),
(0,760,l),
(206,-121,l)
);
}
);
width = 288;
},
{
layerId = UUID0;
shapes = (
{
closed = 1;
nodes = (
(288,-121,l),
(58,760,l),
(0,760,l),
(229,-121,l)
);
}
);
width = 288;
},
{
layerId = "58AAA307-6DE9-4107-B80A-C255AE991657";
shapes = (
{
closed = 1;
nodes = (
(288,-121,l),
(71,760,l),
(0,760,l),
(216,-121,l)
);
}
);
width = 288;
},
{
layerId = "75A83886-EED5-4C31-9670-660514D8A4F6";
shapes = (
{
closed = 1;
nodes = (
(240,-121,l),
(68,760,l),
(0,760,l),
(172,-121,l)
);
}
);
width = 240;
},
{
layerId = "C91144B6-58F5-45F2-9CE4-7ED6CE127FD4";
shapes = (
{
closed = 1;
nodes = (
(219,-121,l),
(29,760,l),
(0,760,l),
(190,-121,l)
);
}
);
width = 219;
},
{
layerId = "1D4F67F9-897D-45AD-B7F0-CA61A6862C03";
shapes = (
{
closed = 1;
nodes = (
(288,-121,l),
(29,760,l),
(0,760,l),
(259,-121,l)
);
}
);
width = 288;
},
{
layerId = "A0CCC833-A561-4F2A-AF73-A35187C9FE5B";
shapes = (
{
closed = 1;
nodes = (
(228,-121,l),
(49,760,l),
(0,760,l),
(179,-121,l)
);
}
);
width = 228;
},
{
layerId = "BD18C76C-096B-4C52-83B4-518A374966BE";
shapes = (
{
closed = 1;
nodes = (
(235,-121,l),
(60,760,l),
(0,760,l),
(175,-121,l)
);
}
);
width = 235;
}
);
script = "";
subCategory = Other;
unicode = 92;
}
